<ttFont>
    <TTGlyph name=".notdef.001" xMin="18" yMin="-92" xMax="484" yMax="725">
      <contour>
        <pt x="425" y="212" on="1"/>
        <pt x="425" y="110" on="0"/>
        <pt x="289" y="-9" on="0"/>
        <pt x="186" y="-9" on="1"/>
        <pt x="117" y="-9" on="0"/>
        <pt x="18" y="20" on="1"/>
        <pt x="39" y="70" on="1"/>
        <pt x="136" y="42" on="0"/>
        <pt x="192" y="42" on="1"/>
        <pt x="270" y="42" on="0"/>
        <pt x="365" y="126" on="0"/>
        <pt x="365" y="202" on="1"/>
        <pt x="365" y="246" on="0"/>
        <pt x="310" y="296" on="0"/>
        <pt x="162" y="332" on="0"/>
        <pt x="89" y="404" on="0"/>
        <pt x="89" y="465" on="1"/>
        <pt x="89" y="561" on="0"/>
        <pt x="217" y="665" on="0"/>
        <pt x="401" y="665" on="0"/>
        <pt x="484" y="634" on="1"/>
        <pt x="462" y="584" on="1"/>
        <pt x="386" y="614" on="0"/>
        <pt x="238" y="614" on="0"/>
        <pt x="150" y="542" on="0"/>
        <pt x="150" y="475" on="1"/>
        <pt x="150" y="432" on="0"/>
        <pt x="205" y="381" on="0"/>
        <pt x="353" y="341" on="0"/>
        <pt x="425" y="277" on="0"/>
      </contour>
      <contour>
        <pt x="353" y="725" on="1"/>
        <pt x="287" y="340" on="1"/>
        <pt x="234" y="340" on="1"/>
        <pt x="300" y="725" on="1"/>
      </contour>
      <contour>
        <pt x="269" y="340" on="1"/>
        <pt x="195" y="-92" on="1"/>
        <pt x="142" y="-92" on="1"/>
        <pt x="216" y="340" on="1"/>
      </contour>
    </TTGlyph>
    <TTGlyph name="A" xMin="-30" yMin="0" xMax="434" yMax="655">
      <contour>
        <pt x="434" y="0" on="1"/>
        <pt x="375" y="0" on="1"/>
        <pt x="358" y="151" on="1"/>
        <pt x="93" y="151" on="1"/>
        <pt x="27" y="0" on="1"/>
        <pt x="-30" y="0" on="1"/>
        <pt x="263" y="655" on="1"/>
        <pt x="359" y="655" on="1"/>
      </contour>
      <contour>
        <pt x="115" y="201" on="1"/>
        <pt x="352" y="201" on="1"/>
        <pt x="309" y="608" on="1"/>
        <pt x="295" y="608" on="1"/>
      </contour>
    </TTGlyph>
    <TTGlyph name="AE" xMin="-34" yMin="0" xMax="563" yMax="655">
      <contour>
        <pt x="451" y="0" on="1"/>
        <pt x="214" y="0" on="1"/>
        <pt x="241" y="151" on="1"/>
        <pt x="93" y="151" on="1"/>
        <pt x="24" y="0" on="1"/>
        <pt x="-34" y="0" on="1"/>
        <pt x="261" y="655" on="1"/>
        <pt x="563" y="655" on="1"/>
        <pt x="555" y="607" on="1"/>
        <pt x="381" y="607" on="1"/>
        <pt x="337" y="357" on="1"/>
        <pt x="484" y="357" on="1"/>
        <pt x="475" y="309" on="1"/>
        <pt x="328" y="309" on="1"/>
        <pt x="283" y="48" on="1"/>
        <pt x="460" y="48" on="1"/>
      </contour>
      <contour>
        <pt x="116" y="201" on="1"/>
        <pt x="250" y="201" on="1"/>
        <pt x="326" y="608" on="1"/>
        <pt x="295" y="608" on="1"/>
      </contour>
    </TTGlyph>
    <TTGlyph name="Aacute" xMin="-30" yMin="0" xMax="434" yMax="945">
      <contour>
        <pt x="434" y="0" on="1"/>
        <pt x="375" y="0" on="1"/>
        <pt x="358" y="151" on="1"/>
        <pt x="93" y="151" on="1"/>
        <pt x="27" y="0" on="1"/>
        <pt x="-30" y="0" on="1"/>
        <pt x="263" y="655" on="1"/>
        <pt x="359" y="655" on="1"/>
      </contour>
      <contour>
        <pt x="115" y="201" on="1"/>
        <pt x="352" y="201" on="1"/>
        <pt x="309" y="608" on="1"/>
        <pt x="295" y="608" on="1"/>
      </contour>
      <contour>
        <pt x="218" y="847" on="1"/>
        <pt x="382" y="945" on="1"/>
        <pt x="400" y="891" on="1"/>
        <pt x="235" y="799" on="1"/>
      </contour>
    </TTGlyph>
    <TTGlyph name="Acircumflex" xMin="-30" yMin="0" xMax="465" yMax="974">
      <contour>
        <pt x="434" y="0" on="1"/>
        <pt x="375" y="0" on="1"/>
        <pt x="358" y="151" on="1"/>
        <pt x="93" y="151" on="1"/>
        <pt x="27" y="0" on="1"/>
        <pt x="-30" y="0" on="1"/>
        <pt x="263" y="655" on="1"/>
        <pt x="359" y="655" on="1"/>
      </contour>
      <contour>
        <pt x="115" y="201" on="1"/>
        <pt x="352" y="201" on="1"/>
        <pt x="309" y="608" on="1"/>
        <pt x="295" y="608" on="1"/>
      </contour>
      <contour>
        <pt x="165" y="812" on="1"/>
        <pt x="318" y="974" on="1"/>
        <pt x="363" y="974" on="1"/>
        <pt x="465" y="812" on="1"/>
        <pt x="407" y="812" on="1"/>
        <pt x="333" y="934" on="1"/>
        <pt x="222" y="812" on="1"/>
      </contour>
    </TTGlyph>
    <TTGlyph name="Adieresis" xMin="-30" yMin="0" xMax="464" yMax="909">
      <contour>
        <pt x="434" y="0" on="1"/>
        <pt x="375" y="0" on="1"/>
        <pt x="358" y="151" on="1"/>
        <pt x="93" y="151" on="1"/>
        <pt x="27" y="0" on="1"/>
        <pt x="-30" y="0" on="1"/>
        <pt x="263" y="655" on="1"/>
        <pt x="359" y="655" on="1"/>
      </contour>
      <contour>
        <pt x="115" y="201" on="1"/>
        <pt x="352" y="201" on="1"/>
        <pt x="309" y="608" on="1"/>
        <pt x="295" y="608" on="1"/>
      </contour>
      <contour>
        <pt x="228" y="835" on="1"/>
        <pt x="197" y="834" on="0"/>
        <pt x="197" y="868" on="1"/>
        <pt x="197" y="884" on="0"/>
        <pt x="221" y="909" on="0"/>
        <pt x="254" y="909" on="0"/>
        <pt x="270" y="891" on="0"/>
        <pt x="270" y="860" on="0"/>
        <pt x="246" y="835" on="0"/>
      </contour>
      <contour>
        <pt x="407" y="835" on="0"/>
        <pt x="390" y="853" on="0"/>
        <pt x="390" y="884" on="0"/>
        <pt x="415" y="909" on="0"/>
        <pt x="447" y="909" on="0"/>
        <pt x="464" y="891" on="0"/>
        <pt x="464" y="860" on="0"/>
        <pt x="439" y="835" on="0"/>
      </contour>
    </TTGlyph>
    <TTGlyph name="Agrave" xMin="-30" yMin="0" xMax="434" yMax="942">
      <contour>
        <pt x="434" y="0" on="1"/>
        <pt x="375" y="0" on="1"/>
        <pt x="358" y="151" on="1"/>
        <pt x="93" y="151" on="1"/>
        <pt x="27" y="0" on="1"/>
        <pt x="-30" y="0" on="1"/>
        <pt x="263" y="655" on="1"/>
        <pt x="359" y="655" on="1"/>
      </contour>
      <contour>
        <pt x="115" y="201" on="1"/>
        <pt x="352" y="201" on="1"/>
        <pt x="309" y="608" on="1"/>
        <pt x="295" y="608" on="1"/>
      </contour>
      <contour>
        <pt x="257" y="942" on="1"/>
        <pt x="419" y="844" on="1"/>
        <pt x="394" y="801" on="1"/>
        <pt x="230" y="893" on="1"/>
      </contour>
    </TTGlyph>
    <TTGlyph name="Aring" xMin="-30" yMin="0" xMax="436" yMax="954">
      <contour>
        <pt x="434" y="0" on="1"/>
        <pt x="375" y="0" on="1"/>
        <pt x="358" y="151" on="1"/>
        <pt x="93" y="151" on="1"/>
        <pt x="27" y="0" on="1"/>
        <pt x="-30" y="0" on="1"/>
        <pt x="263" y="655" on="1"/>
        <pt x="359" y="655" on="1"/>
      </contour>
      <contour>
        <pt x="115" y="201" on="1"/>
        <pt x="352" y="201" on="1"/>
        <pt x="309" y="608" on="1"/>
        <pt x="295" y="608" on="1"/>
      </contour>
      <contour>
        <pt x="387" y="954" on="0"/>
        <pt x="436" y="911" on="0"/>
        <pt x="436" y="823" on="0"/>
        <pt x="368" y="763" on="0"/>
        <pt x="273" y="763" on="0"/>
        <pt x="224" y="806" on="0"/>
        <pt x="224" y="893" on="0"/>
        <pt x="291" y="954" on="0"/>
      </contour>
      <contour>
        <pt x="266" y="848" on="1"/>
        <pt x="266" y="801" on="0"/>
        <pt x="320" y="801" on="1"/>
        <pt x="353" y="801" on="0"/>
        <pt x="392" y="837" on="0"/>
        <pt x="392" y="868" on="1"/>
        <pt x="392" y="915" on="0"/>
        <pt x="338" y="915" on="1"/>
        <pt x="305" y="915" on="0"/>
        <pt x="266" y="879" on="0"/>
      </contour>
    </TTGlyph>
    <TTGlyph name="Atilde" xMin="-30" yMin="0" xMax="471" yMax="932">
      <contour>
        <pt x="434" y="0" on="1"/>
        <pt x="375" y="0" on="1"/>
        <pt x="358" y="151" on="1"/>
        <pt x="93" y="151" on="1"/>
        <pt x="27" y="0" on="1"/>
        <pt x="-30" y="0" on="1"/>
        <pt x="263" y="655" on="1"/>
        <pt x="359" y="655" on="1"/>
      </contour>
      <contour>
        <pt x="115" y="201" on="1"/>
        <pt x="352" y="201" on="1"/>
        <pt x="309" y="608" on="1"/>
        <pt x="295" y="608" on="1"/>
      </contour>
      <contour>
        <pt x="451" y="919" on="1"/>
        <pt x="471" y="886" on="1"/>
        <pt x="410" y="831" on="0"/>
        <pt x="344" y="831" on="0"/>
        <pt x="278" y="885" on="0"/>
        <pt x="234" y="885" on="0"/>
        <pt x="183" y="844" on="1"/>
        <pt x="160" y="878" on="1"/>
        <pt x="226" y="932" on="0"/>
        <pt x="298" y="932" on="0"/>
        <pt x="366" y="879" on="0"/>
        <pt x="402" y="879" on="0"/>
      </contour>
    </TTGlyph>
    <TTGlyph name="B" xMin="32" yMin="0" xMax="473" yMax="655">
      <contour>
        <pt x="32" y="0" on="1"/>
        <pt x="139" y="655" on="1"/>
        <pt x="270" y="655" on="1"/>
        <pt x="387" y="655" on="0"/>
        <pt x="488" y="578" on="0"/>
        <pt x="473" y="485" on="1"/>
        <pt x="464" y="426" on="0"/>
        <pt x="405" y="354" on="0"/>
        <pt x="348" y="336" on="1"/>
        <pt x="463" y="308" on="0"/>
        <pt x="453" y="187" on="1"/>
        <pt x="444" y="82" on="0"/>
        <pt x="311" y="0" on="0"/>
        <pt x="190" y="0" on="1"/>
      </contour>
      <contour>
        <pt x="267" y="605" on="1"/>
        <pt x="183" y="605" on="1"/>
        <pt x="142" y="359" on="1"/>
        <pt x="256" y="359" on="1"/>
        <pt x="324" y="359" on="0"/>
        <pt x="366" y="392" on="1"/>
        <pt x="410" y="424" on="0"/>
        <pt x="430" y="552" on="0"/>
        <pt x="352" y="605" on="0"/>
      </contour>
      <contour>
        <pt x="135" y="310" on="1"/>
        <pt x="92" y="50" on="1"/>
        <pt x="199" y="50" on="1"/>
        <pt x="287" y="50" on="0"/>
        <pt x="386" y="110" on="0"/>
        <pt x="408" y="254" on="0"/>
        <pt x="324" y="310" on="0"/>
        <pt x="249" y="310" on="1"/>
      </contour>
    </TTGlyph>
    <TTGlyph name="C" xMin="52" yMin="-9" xMax="469" yMax="665">
      <contour>
        <pt x="370" y="70" on="1"/>
        <pt x="374" y="19" on="1"/>
        <pt x="290" y="-9" on="0"/>
        <pt x="216" y="-9" on="1"/>
        <pt x="107" y="-9" on="0"/>
        <pt x="24" y="151" on="0"/>
        <pt x="52" y="334" on="1"/>
        <pt x="80" y="504" on="0"/>
        <pt x="210" y="665" on="0"/>
        <pt x="323" y="665" on="1"/>
        <pt x="398" y="665" on="0"/>
        <pt x="469" y="640" on="1"/>
        <pt x="447" y="508" on="1"/>
        <pt x="395" y="508" on="1"/>
        <pt x="409" y="597" on="1"/>
        <pt x="371" y="613" on="0"/>
        <pt x="316" y="613" on="1"/>
        <pt x="234" y="613" on="0"/>
        <pt x="135" y="477" on="0"/>
        <pt x="110" y="334" on="1"/>
        <pt x="86" y="179" on="0"/>
        <pt x="146" y="43" on="0"/>
        <pt x="226" y="43" on="1"/>
        <pt x="283" y="43" on="0"/>
      </contour>
    </TTGlyph>
    <TTGlyph name="CR" xMin="53" yMin="-10" xMax="448" yMax="536">
      <contour>
        <pt x="103" y="431" on="0"/>
        <pt x="216" y="536" on="0"/>
        <pt x="372" y="536" on="0"/>
        <pt x="448" y="418" on="0"/>
        <pt x="448" y="230" on="0"/>
        <pt x="399" y="84" on="0"/>
        <pt x="288" y="-10" on="0"/>
        <pt x="129" y="-10" on="0"/>
        <pt x="53" y="96" on="0"/>
        <pt x="53" y="278" on="0"/>
      </contour>
      <contour>
        <pt x="110" y="126" on="0"/>
        <pt x="161" y="41" on="0"/>
        <pt x="220" y="41" on="1"/>
        <pt x="278" y="40" on="0"/>
        <pt x="319" y="86" on="1"/>
        <pt x="390" y="165" on="0"/>
        <pt x="390" y="317" on="1"/>
        <pt x="390" y="389" on="0"/>
        <pt x="340" y="483" on="0"/>
        <pt x="284" y="483" on="1"/>
        <pt x="228" y="483" on="0"/>
        <pt x="186" y="435" on="1"/>
        <pt x="110" y="348" on="0"/>
        <pt x="110" y="195" on="1"/>
      </contour>
    </TTGlyph>
    <TTGlyph name="CR.001" xMin="65" yMin="0" xMax="422" yMax="527">
      <contour>
        <pt x="414" y="0" on="1"/>
        <pt x="65" y="0" on="1"/>
        <pt x="73" y="52" on="1"/>
        <pt x="218" y="52" on="1"/>
        <pt x="283" y="463" on="1"/>
        <pt x="120" y="408" on="1"/>
        <pt x="105" y="462" on="1"/>
        <pt x="299" y="527" on="1"/>
        <pt x="352" y="527" on="1"/>
        <pt x="277" y="52" on="1"/>
        <pt x="422" y="52" on="1"/>
      </contour>
    </TTGlyph>
    <TTGlyph name="CR.002" xMin="54" yMin="0" xMax="455" yMax="538">
      <contour>
        <pt x="397" y="432" on="0"/>
        <pt x="342" y="486" on="0"/>
        <pt x="261" y="486" on="0"/>
        <pt x="192" y="462" on="0"/>
        <pt x="173" y="450" on="1"/>
        <pt x="154" y="438" on="1"/>
        <pt x="133" y="481" on="1"/>
        <pt x="165" y="502" on="0"/>
        <pt x="263" y="538" on="0"/>
        <pt x="300" y="538" on="1"/>
        <pt x="375" y="538" on="0"/>
        <pt x="455" y="465" on="0"/>
        <pt x="455" y="400" on="1"/>
        <pt x="455" y="353" on="0"/>
        <pt x="411" y="267" on="0"/>
        <pt x="348" y="213" on="1"/>
        <pt x="148" y="52" on="1"/>
        <pt x="436" y="52" on="1"/>
        <pt x="428" y="0" on="1"/>
        <pt x="54" y="0" on="1"/>
        <pt x="61" y="44" on="1"/>
        <pt x="265" y="207" on="0"/>
        <pt x="358" y="290" on="0"/>
        <pt x="397" y="348" on="0"/>
      </contour>
    </TTGlyph>
    <TTGlyph name="CR.003" xMin="30" yMin="-141" xMax="481" yMax="539">
      <contour>
        <pt x="165" y="182" on="1"/>
        <pt x="165" y="227" on="1"/>
        <pt x="239" y="238" on="1"/>
        <pt x="423" y="265" on="0"/>
        <pt x="423" y="395" on="1"/>
        <pt x="423" y="442" on="0"/>
        <pt x="392" y="464" on="1"/>
        <pt x="360" y="487" on="0"/>
        <pt x="256" y="487" on="0"/>
        <pt x="148" y="443" on="1"/>
        <pt x="137" y="490" on="1"/>
        <pt x="178" y="509" on="0"/>
        <pt x="289" y="539" on="0"/>
        <pt x="324" y="539" on="1"/>
        <pt x="397" y="539" on="0"/>
        <pt x="481" y="474" on="0"/>
        <pt x="481" y="342" on="0"/>
        <pt x="424" y="260" on="0"/>
        <pt x="357" y="229" on="1"/>
        <pt x="357" y="227" on="1"/>
        <pt x="405" y="217" on="0"/>
        <pt x="456" y="142" on="0"/>
        <pt x="456" y="87" on="1"/>
        <pt x="456" y="-21" on="0"/>
        <pt x="327" y="-141" on="0"/>
        <pt x="215" y="-141" on="1"/>
        <pt x="132" y="-141" on="0"/>
        <pt x="30" y="-101" on="1"/>
        <pt x="56" y="-50" on="1"/>
        <pt x="150" y="-89" on="0"/>
        <pt x="298" y="-89" on="0"/>
        <pt x="396" y="2" on="0"/>
        <pt x="396" y="81" on="1"/>
        <pt x="396" y="194" on="0"/>
        <pt x="276" y="194" on="1"/>
      </contour>
    </TTGlyph>
    <TTGlyph name="CR.004" xMin="37" yMin="-107" xMax="466" yMax="527">
      <contour>
        <pt x="466" y="112" on="1"/>
        <pt x="458" y="60" on="1"/>
        <pt x="368" y="60" on="1"/>
        <pt x="341" y="-107" on="1"/>
        <pt x="286" y="-107" on="1"/>
        <pt x="313" y="60" on="1"/>
        <pt x="37" y="60" on="1"/>
        <pt x="44" y="107" on="1"/>
        <pt x="382" y="527" on="1"/>
        <pt x="441" y="527" on="1"/>
        <pt x="376" y="112" on="1"/>
      </contour>
      <contour>
        <pt x="115" y="112" on="1"/>
        <pt x="321" y="112" on="1"/>
        <pt x="371" y="429" on="1"/>
      </contour>
    </TTGlyph>
    <TTGlyph name="CR.005" xMin="21" yMin="-141" xMax="489" yMax="527">
      <contour>
        <pt x="196" y="-141" on="1"/>
        <pt x="117" y="-141" on="0"/>
        <pt x="21" y="-99" on="1"/>
        <pt x="48" y="-48" on="1"/>
        <pt x="134" y="-89" on="0"/>
        <pt x="286" y="-89" on="0"/>
        <pt x="383" y="16" on="0"/>
        <pt x="383" y="101" on="1"/>
        <pt x="383" y="156" on="0"/>
        <pt x="323" y="218" on="0"/>
        <pt x="201" y="218" on="0"/>
        <pt x="123" y="160" on="1"/>
        <pt x="82" y="171" on="1"/>
        <pt x="148" y="527" on="1"/>
        <pt x="489" y="527" on="1"/>
        <pt x="480" y="470" on="1"/>
        <pt x="195" y="470" on="1"/>
        <pt x="150" y="227" on="1"/>
        <pt x="218" y="270" on="0"/>
        <pt x="358" y="270" on="0"/>
        <pt x="442" y="185" on="0"/>
        <pt x="442" y="110" on="1"/>
        <pt x="442" y="-4" on="0"/>
        <pt x="311" y="-141" on="0"/>
      </contour>
    </TTGlyph>
    <TTGlyph name="CR.006" xMin="47" yMin="-10" xMax="456" yMax="724">
      <contour>
        <pt x="217" y="-10" on="1"/>
        <pt x="137" y="-10" on="0"/>
        <pt x="47" y="90" on="0"/>
        <pt x="47" y="176" on="1"/>
        <pt x="47" y="547" on="0"/>
        <pt x="438" y="724" on="1"/>
        <pt x="452" y="675" on="1"/>
        <pt x="321" y="614" on="0"/>
        <pt x="183" y="453" on="0"/>
        <pt x="141" y="352" on="1"/>
        <pt x="215" y="416" on="0"/>
        <pt x="369" y="416" on="0"/>
        <pt x="456" y="334" on="0"/>
        <pt x="456" y="256" on="1"/>
        <pt x="456" y="143" on="0"/>
        <pt x="326" y="-10" on="0"/>
      </contour>
      <contour>
        <pt x="277" y="364" on="1"/>
        <pt x="208" y="364" on="0"/>
        <pt x="157" y="312" on="1"/>
        <pt x="106" y="262" on="0"/>
        <pt x="106" y="188" on="1"/>
        <pt x="106" y="42" on="0"/>
        <pt x="226" y="42" on="1"/>
        <pt x="306" y="42" on="0"/>
        <pt x="398" y="162" on="0"/>
        <pt x="398" y="248" on="1"/>
        <pt x="398" y="364" on="0"/>
      </contour>
    </TTGlyph>
    <TTGlyph name="CR.007" xMin="82" yMin="-108" xMax="447" yMax="527">
      <contour>
        <pt x="379" y="470" on="1"/>
        <pt x="82" y="470" on="1"/>
        <pt x="91" y="527" on="1"/>
        <pt x="447" y="527" on="1"/>
        <pt x="439" y="471" on="1"/>
        <pt x="175" y="-108" on="1"/>
        <pt x="111" y="-108" on="1"/>
      </contour>
    </TTGlyph>
    <TTGlyph name="CR.008" xMin="21" yMin="-10" xMax="478" yMax="669">
      <contour>
        <pt x="313" y="669" on="1"/>
        <pt x="394" y="669" on="0"/>
        <pt x="478" y="591" on="0"/>
        <pt x="478" y="526" on="1"/>
        <pt x="478" y="405" on="0"/>
        <pt x="359" y="358" on="1"/>
        <pt x="402" y="341" on="0"/>
        <pt x="451" y="261" on="0"/>
        <pt x="451" y="209" on="1"/>
        <pt x="451" y="117" on="0"/>
        <pt x="314" y="-10" on="0"/>
        <pt x="205" y="-10" on="1"/>
        <pt x="118" y="-10" on="0"/>
        <pt x="21" y="83" on="0"/>
        <pt x="21" y="225" on="0"/>
        <pt x="105" y="334" on="0"/>
        <pt x="167" y="356" on="1"/>
        <pt x="95" y="396" on="0"/>
        <pt x="95" y="560" on="0"/>
        <pt x="211" y="669" on="0"/>
      </contour>
      <contour>
        <pt x="183" y="331" on="0"/>
        <pt x="80" y="231" on="0"/>
        <pt x="80" y="110" on="0"/>
        <pt x="152" y="42" on="0"/>
        <pt x="291" y="42" on="0"/>
        <pt x="393" y="136" on="0"/>
        <pt x="393" y="258" on="0"/>
        <pt x="321" y="331" on="0"/>
      </contour>
      <contour>
        <pt x="227" y="617" on="0"/>
        <pt x="151" y="543" on="0"/>
        <pt x="151" y="489" on="1"/>
        <pt x="151" y="381" on="0"/>
        <pt x="267" y="381" on="1"/>
        <pt x="346" y="381" on="0"/>
        <pt x="421" y="457" on="0"/>
        <pt x="421" y="521" on="1"/>
        <pt x="421" y="617" on="0"/>
        <pt x="305" y="617" on="1"/>
      </contour>
    </TTGlyph>
    <TTGlyph name="CR.009" xMin="81" yMin="-198" xMax="486" yMax="536">
      <contour>
        <pt x="306" y="536" on="1"/>
        <pt x="391" y="536" on="0"/>
        <pt x="486" y="434" on="0"/>
        <pt x="486" y="342" on="1"/>
        <pt x="486" y="164" on="0"/>
        <pt x="319" y="-107" on="0"/>
        <pt x="125" y="-198" on="1"/>
        <pt x="108" y="-149" on="1"/>
        <pt x="238" y="-87" on="0"/>
        <pt x="370" y="67" on="0"/>
        <pt x="405" y="163" on="1"/>
        <pt x="336" y="100" on="0"/>
        <pt x="173" y="100" on="0"/>
        <pt x="81" y="192" on="0"/>
        <pt x="81" y="277" on="1"/>
        <pt x="81" y="388" on="0"/>
        <pt x="203" y="536" on="0"/>
      </contour>
      <contour>
        <pt x="139" y="219" on="0"/>
        <pt x="204" y="152" on="0"/>
        <pt x="331" y="152" on="0"/>
        <pt x="428" y="253" on="0"/>
        <pt x="428" y="402" on="0"/>
        <pt x="363" y="482" on="0"/>
        <pt x="225" y="482" on="0"/>
        <pt x="139" y="368" on="0"/>
        <pt x="139" y="282" on="1"/>
      </contour>
    </TTGlyph>
    <TTGlyph name="Ccedilla" xMin="52" yMin="-242" xMax="469" yMax="665">
      <contour>
        <pt x="370" y="70" on="1"/>
        <pt x="374" y="19" on="1"/>
        <pt x="290" y="-9" on="0"/>
        <pt x="216" y="-9" on="1"/>
        <pt x="107" y="-9" on="0"/>
        <pt x="24" y="151" on="0"/>
        <pt x="52" y="334" on="1"/>
        <pt x="80" y="504" on="0"/>
        <pt x="210" y="665" on="0"/>
        <pt x="323" y="665" on="1"/>
        <pt x="398" y="665" on="0"/>
        <pt x="469" y="640" on="1"/>
        <pt x="447" y="508" on="1"/>
        <pt x="395" y="508" on="1"/>
        <pt x="409" y="597" on="1"/>
        <pt x="371" y="613" on="0"/>
        <pt x="316" y="613" on="1"/>
        <pt x="234" y="613" on="0"/>
        <pt x="135" y="477" on="0"/>
        <pt x="110" y="334" on="1"/>
        <pt x="86" y="179" on="0"/>
        <pt x="146" y="43" on="0"/>
        <pt x="226" y="43" on="1"/>
        <pt x="283" y="43" on="0"/>
      </contour>
      <contour>
        <pt x="195" y="-57" on="1"/>
        <pt x="275" y="-57" on="0"/>
        <pt x="275" y="-139" on="1"/>
        <pt x="275" y="-183" on="0"/>
        <pt x="213" y="-242" on="0"/>
        <pt x="166" y="-242" on="1"/>
        <pt x="141" y="-242" on="0"/>
        <pt x="104" y="-235" on="1"/>
        <pt x="116" y="-192" on="1"/>
        <pt x="134" y="-197" on="0"/>
        <pt x="162" y="-197" on="1"/>
        <pt x="224" y="-197" on="0"/>
        <pt x="224" y="-138" on="1"/>
        <pt x="224" y="-101" on="0"/>
        <pt x="177" y="-101" on="1"/>
        <pt x="160" y="-101" on="0"/>
        <pt x="133" y="-106" on="1"/>
        <pt x="134" y="-65" on="1"/>
        <pt x="166" y="-57" on="0"/>
      </contour>
    </TTGlyph>
    <TTGlyph name="D" xMin="16" yMin="0" xMax="465" yMax="655">
      <contour>
        <pt x="16" y="0" on="1"/>
        <pt x="124" y="655" on="1"/>
        <pt x="255" y="655" on="1"/>
        <pt x="401" y="655" on="0"/>
        <pt x="491" y="503" on="0"/>
        <pt x="465" y="327" on="1"/>
        <pt x="437" y="133" on="0"/>
        <pt x="359" y="64" on="1"/>
        <pt x="318" y="28" on="0"/>
        <pt x="219" y="0" on="0"/>
        <pt x="148" y="0" on="1"/>
      </contour>
      <contour>
        <pt x="249" y="605" on="1"/>
        <pt x="167" y="605" on="1"/>
        <pt x="76" y="50" on="1"/>
        <pt x="156" y="50" on="1"/>
        <pt x="232" y="50" on="0"/>
        <pt x="278" y="72" on="1"/>
        <pt x="373" y="117" on="0"/>
        <pt x="409" y="327" on="1"/>
        <pt x="433" y="485" on="0"/>
        <pt x="363" y="605" on="0"/>
      </contour>
    </TTGlyph>
    <TTGlyph name="E" xMin="51" yMin="0" xMax="481" yMax="655">
      <contour>
        <pt x="378" y="0" on="1"/>
        <pt x="51" y="0" on="1"/>
        <pt x="159" y="655" on="1"/>
        <pt x="481" y="655" on="1"/>
        <pt x="473" y="605" on="1"/>
        <pt x="203" y="605" on="1"/>
        <pt x="162" y="357" on="1"/>
        <pt x="408" y="357" on="1"/>
        <pt x="400" y="307" on="1"/>
        <pt x="154" y="307" on="1"/>
        <pt x="112" y="50" on="1"/>
        <pt x="386" y="50" on="1"/>
      </contour>
    </TTGlyph>
    <TTGlyph name="Eacute" xMin="51" yMin="0" xMax="481" yMax="945">
      <contour>
        <pt x="378" y="0" on="1"/>
        <pt x="51" y="0" on="1"/>
        <pt x="159" y="655" on="1"/>
        <pt x="481" y="655" on="1"/>
        <pt x="473" y="605" on="1"/>
        <pt x="203" y="605" on="1"/>
        <pt x="162" y="357" on="1"/>
        <pt x="408" y="357" on="1"/>
        <pt x="400" y="307" on="1"/>
        <pt x="154" y="307" on="1"/>
        <pt x="112" y="50" on="1"/>
        <pt x="386" y="50" on="1"/>
      </contour>
      <contour>
        <pt x="228" y="847" on="1"/>
        <pt x="392" y="945" on="1"/>
        <pt x="410" y="891" on="1"/>
        <pt x="245" y="799" on="1"/>
      </contour>
    </TTGlyph>
    <TTGlyph name="Ecircumflex" xMin="51" yMin="0" xMax="481" yMax="974">
      <contour>
        <pt x="378" y="0" on="1"/>
        <pt x="51" y="0" on="1"/>
        <pt x="159" y="655" on="1"/>
        <pt x="481" y="655" on="1"/>
        <pt x="473" y="605" on="1"/>
        <pt x="203" y="605" on="1"/>
        <pt x="162" y="357" on="1"/>
        <pt x="408" y="357" on="1"/>
        <pt x="400" y="307" on="1"/>
        <pt x="154" y="307" on="1"/>
        <pt x="112" y="50" on="1"/>
        <pt x="386" y="50" on="1"/>
      </contour>
      <contour>
        <pt x="175" y="812" on="1"/>
        <pt x="328" y="974" on="1"/>
        <pt x="373" y="974" on="1"/>
        <pt x="475" y="812" on="1"/>
        <pt x="417" y="812" on="1"/>
        <pt x="343" y="934" on="1"/>
        <pt x="232" y="812" on="1"/>
      </contour>
    </TTGlyph>
    <TTGlyph name="Edieresis" xMin="51" yMin="0" xMax="481" yMax="909">
      <contour>
        <pt x="378" y="0" on="1"/>
        <pt x="51" y="0" on="1"/>
        <pt x="159" y="655" on="1"/>
        <pt x="481" y="655" on="1"/>
        <pt x="473" y="605" on="1"/>
        <pt x="203" y="605" on="1"/>
        <pt x="162" y="357" on="1"/>
        <pt x="408" y="357" on="1"/>
        <pt x="400" y="307" on="1"/>
        <pt x="154" y="307" on="1"/>
        <pt x="112" y="50" on="1"/>
        <pt x="386" y="50" on="1"/>
      </contour>
      <contour>
        <pt x="228" y="835" on="1"/>
        <pt x="197" y="834" on="0"/>
        <pt x="197" y="868" on="1"/>
        <pt x="197" y="884" on="0"/>
        <pt x="221" y="909" on="0"/>
        <pt x="254" y="909" on="0"/>
        <pt x="270" y="891" on="0"/>
        <pt x="270" y="860" on="0"/>
        <pt x="246" y="835" on="0"/>
      </contour>
      <contour>
        <pt x="407" y="835" on="0"/>
        <pt x="390" y="853" on="0"/>
        <pt x="390" y="884" on="0"/>
        <pt x="415" y="909" on="0"/>
        <pt x="447" y="909" on="0"/>
        <pt x="464" y="891" on="0"/>
        <pt x="464" y="860" on="0"/>
        <pt x="439" y="835" on="0"/>
      </contour>
    </TTGlyph>
    <TTGlyph name="Egrave" xMin="51" yMin="0" xMax="481" yMax="942">
      <contour>
        <pt x="378" y="0" on="1"/>
        <pt x="51" y="0" on="1"/>
        <pt x="159" y="655" on="1"/>
        <pt x="481" y="655" on="1"/>
        <pt x="473" y="605" on="1"/>
        <pt x="203" y="605" on="1"/>
        <pt x="162" y="357" on="1"/>
        <pt x="408" y="357" on="1"/>
        <pt x="400" y="307" on="1"/>
        <pt x="154" y="307" on="1"/>
        <pt x="112" y="50" on="1"/>
        <pt x="386" y="50" on="1"/>
      </contour>
      <contour>
        <pt x="262" y="942" on="1"/>
        <pt x="424" y="844" on="1"/>
        <pt x="399" y="801" on="1"/>
        <pt x="235" y="893" on="1"/>
      </contour>
    </TTGlyph>
    <TTGlyph name="Euro" xMin="6" yMin="-10" xMax="494" yMax="644">
      <contour>
        <pt x="13" y="285" on="1"/>
        <pt x="362" y="285" on="1"/>
        <pt x="355" y="241" on="1"/>
        <pt x="6" y="241" on="1"/>
      </contour>
      <contour>
        <pt x="32" y="404" on="1"/>
        <pt x="381" y="404" on="1"/>
        <pt x="374" y="360" on="1"/>
        <pt x="25" y="360" on="1"/>
      </contour>
      <contour>
        <pt x="401" y="69" on="1"/>
        <pt x="405" y="18" on="1"/>
        <pt x="372" y="7" on="0"/>
        <pt x="263" y="-10" on="0"/>
        <pt x="227" y="-10" on="1"/>
        <pt x="117" y="-10" on="0"/>
        <pt x="35" y="141" on="0"/>
        <pt x="63" y="323" on="1"/>
        <pt x="91" y="491" on="0"/>
        <pt x="220" y="644" on="0"/>
        <pt x="334" y="644" on="1"/>
        <pt x="427" y="644" on="0"/>
        <pt x="494" y="618" on="1"/>
        <pt x="471" y="567" on="1"/>
        <pt x="452" y="575" on="0"/>
        <pt x="352" y="592" on="0"/>
        <pt x="327" y="592" on="1"/>
        <pt x="244" y="592" on="0"/>
        <pt x="146" y="465" on="0"/>
        <pt x="121" y="323" on="1"/>
        <pt x="97" y="169" on="0"/>
        <pt x="156" y="42" on="0"/>
        <pt x="314" y="42" on="0"/>
      </contour>
    </TTGlyph>
    <TTGlyph name="F" xMin="43" yMin="0" xMax="473" yMax="655">
      <contour>
        <pt x="95" y="0" on="1"/>
        <pt x="43" y="0" on="1"/>
        <pt x="150" y="655" on="1"/>
        <pt x="473" y="655" on="1"/>
        <pt x="465" y="605" on="1"/>
        <pt x="194" y="605" on="1"/>
        <pt x="147" y="319" on="1"/>
        <pt x="379" y="319" on="1"/>
        <pt x="371" y="269" on="1"/>
        <pt x="139" y="269" on="1"/>
      </contour>
    </TTGlyph>
    <TTGlyph name="G" xMin="51" yMin="-9" xMax="504" yMax="665">
      <contour>
        <pt x="282" y="266" on="1"/>
        <pt x="291" y="316" on="1"/>
        <pt x="455" y="316" on="1"/>
        <pt x="408" y="27" on="1"/>
        <pt x="302" y="-9" on="0"/>
        <pt x="224" y="-9" on="1"/>
        <pt x="108" y="-9" on="0"/>
        <pt x="23" y="150" on="0"/>
        <pt x="79" y="506" on="0"/>
        <pt x="215" y="665" on="0"/>
        <pt x="339" y="665" on="1"/>
        <pt x="420" y="665" on="0"/>
        <pt x="504" y="633" on="1"/>
        <pt x="482" y="582" on="1"/>
        <pt x="396" y="613" on="0"/>
        <pt x="331" y="613" on="1"/>
        <pt x="237" y="613" on="0"/>
        <pt x="136" y="480" on="0"/>
        <pt x="84" y="176" on="0"/>
        <pt x="145" y="41" on="0"/>
        <pt x="236" y="43" on="1"/>
        <pt x="295" y="44" on="0"/>
        <pt x="363" y="66" on="1"/>
        <pt x="396" y="266" on="1"/>
      </contour>
    </TTGlyph>
    <TTGlyph name="H" xMin="13" yMin="0" xMax="489" yMax="655">
      <contour>
        <pt x="330" y="0" on="1"/>
        <pt x="379" y="300" on="1"/>
        <pt x="114" y="300" on="1"/>
        <pt x="65" y="0" on="1"/>
        <pt x="13" y="0" on="1"/>
        <pt x="120" y="655" on="1"/>
        <pt x="172" y="655" on="1"/>
        <pt x="122" y="350" on="1"/>
        <pt x="387" y="350" on="1"/>
        <pt x="437" y="655" on="1"/>
        <pt x="489" y="655" on="1"/>
        <pt x="382" y="0" on="1"/>
      </contour>
    </TTGlyph>
    <TTGlyph name="I" xMin="48" yMin="0" xMax="416" yMax="655">
      <contour>
        <pt x="305" y="605" on="1"/>
        <pt x="214" y="50" on="1"/>
        <pt x="321" y="50" on="1"/>
        <pt x="313" y="0" on="1"/>
        <pt x="48" y="0" on="1"/>
        <pt x="56" y="50" on="1"/>
        <pt x="162" y="50" on="1"/>
        <pt x="253" y="605" on="1"/>
        <pt x="144" y="605" on="1"/>
        <pt x="152" y="655" on="1"/>
        <pt x="416" y="655" on="1"/>
        <pt x="408" y="605" on="1"/>
      </contour>
    </TTGlyph>
    <TTGlyph name="Iacute" xMin="48" yMin="0" xMax="416" yMax="945">
      <contour>
        <pt x="305" y="605" on="1"/>
        <pt x="214" y="50" on="1"/>
        <pt x="321" y="50" on="1"/>
        <pt x="313" y="0" on="1"/>
        <pt x="48" y="0" on="1"/>
        <pt x="56" y="50" on="1"/>
        <pt x="162" y="50" on="1"/>
        <pt x="253" y="605" on="1"/>
        <pt x="144" y="605" on="1"/>
        <pt x="152" y="655" on="1"/>
        <pt x="416" y="655" on="1"/>
        <pt x="408" y="605" on="1"/>
      </contour>
      <contour>
        <pt x="208" y="847" on="1"/>
        <pt x="372" y="945" on="1"/>
        <pt x="390" y="891" on="1"/>
        <pt x="225" y="799" on="1"/>
      </contour>
    </TTGlyph>
    <TTGlyph name="Icircumflex" xMin="48" yMin="0" xMax="455" yMax="974">
      <contour>
        <pt x="305" y="605" on="1"/>
        <pt x="214" y="50" on="1"/>
        <pt x="321" y="50" on="1"/>
        <pt x="313" y="0" on="1"/>
        <pt x="48" y="0" on="1"/>
        <pt x="56" y="50" on="1"/>
        <pt x="162" y="50" on="1"/>
        <pt x="253" y="605" on="1"/>
        <pt x="144" y="605" on="1"/>
        <pt x="152" y="655" on="1"/>
        <pt x="416" y="655" on="1"/>
        <pt x="408" y="605" on="1"/>
      </contour>
      <contour>
        <pt x="155" y="812" on="1"/>
        <pt x="308" y="974" on="1"/>
        <pt x="353" y="974" on="1"/>
        <pt x="455" y="812" on="1"/>
        <pt x="397" y="812" on="1"/>
        <pt x="323" y="934" on="1"/>
        <pt x="212" y="812" on="1"/>
      </contour>
    </TTGlyph>
    <TTGlyph name="Idieresis" xMin="48" yMin="0" xMax="444" yMax="909">
      <contour>
        <pt x="305" y="605" on="1"/>
        <pt x="214" y="50" on="1"/>
        <pt x="321" y="50" on="1"/>
        <pt x="313" y="0" on="1"/>
        <pt x="48" y="0" on="1"/>
        <pt x="56" y="50" on="1"/>
        <pt x="162" y="50" on="1"/>
        <pt x="253" y="605" on="1"/>
        <pt x="144" y="605" on="1"/>
        <pt x="152" y="655" on="1"/>
        <pt x="416" y="655" on="1"/>
        <pt x="408" y="605" on="1"/>
      </contour>
      <contour>
        <pt x="208" y="835" on="1"/>
        <pt x="177" y="834" on="0"/>
        <pt x="177" y="868" on="1"/>
        <pt x="177" y="884" on="0"/>
        <pt x="201" y="909" on="0"/>
        <pt x="234" y="909" on="0"/>
        <pt x="250" y="891" on="0"/>
        <pt x="250" y="860" on="0"/>
        <pt x="226" y="835" on="0"/>
      </contour>
      <contour>
        <pt x="387" y="835" on="0"/>
        <pt x="370" y="853" on="0"/>
        <pt x="370" y="884" on="0"/>
        <pt x="395" y="909" on="0"/>
        <pt x="427" y="909" on="0"/>
        <pt x="444" y="891" on="0"/>
        <pt x="444" y="860" on="0"/>
        <pt x="419" y="835" on="0"/>
      </contour>
    </TTGlyph>
    <TTGlyph name="Igrave" xMin="48" yMin="0" xMax="416" yMax="942">
      <contour>
        <pt x="305" y="605" on="1"/>
        <pt x="214" y="50" on="1"/>
        <pt x="321" y="50" on="1"/>
        <pt x="313" y="0" on="1"/>
        <pt x="48" y="0" on="1"/>
        <pt x="56" y="50" on="1"/>
        <pt x="162" y="50" on="1"/>
        <pt x="253" y="605" on="1"/>
        <pt x="144" y="605" on="1"/>
        <pt x="152" y="655" on="1"/>
        <pt x="416" y="655" on="1"/>
        <pt x="408" y="605" on="1"/>
      </contour>
      <contour>
        <pt x="232" y="942" on="1"/>
        <pt x="394" y="844" on="1"/>
        <pt x="369" y="801" on="1"/>
        <pt x="205" y="893" on="1"/>
      </contour>
    </TTGlyph>
    <TTGlyph name="J" xMin="25" yMin="-11" xMax="413" yMax="655">
      <contour>
        <pt x="359" y="605" on="1"/>
        <pt x="296" y="215" on="1"/>
        <pt x="274" y="77" on="0"/>
        <pt x="218" y="-10" on="0"/>
        <pt x="137" y="-11" on="1"/>
        <pt x="120" y="-11" on="0"/>
        <pt x="41" y="1" on="0"/>
        <pt x="25" y="6" on="1"/>
        <pt x="41" y="58" on="1"/>
        <pt x="102" y="41" on="0"/>
        <pt x="190" y="41" on="0"/>
        <pt x="225" y="102" on="0"/>
        <pt x="244" y="218" on="1"/>
        <pt x="307" y="605" on="1"/>
        <pt x="152" y="605" on="1"/>
        <pt x="160" y="655" on="1"/>
        <pt x="413" y="655" on="1"/>
        <pt x="405" y="605" on="1"/>
      </contour>
    </TTGlyph>
    <TTGlyph name="K" xMin="28" yMin="0" xMax="472" yMax="655">
      <contour>
        <pt x="412" y="655" on="1"/>
        <pt x="472" y="655" on="1"/>
        <pt x="352" y="455" on="0"/>
        <pt x="264" y="337" on="1"/>
        <pt x="286" y="292" on="0"/>
        <pt x="320" y="208" on="1"/>
        <pt x="401" y="0" on="1"/>
        <pt x="338" y="0" on="1"/>
        <pt x="257" y="221" on="0"/>
        <pt x="216" y="307" on="1"/>
        <pt x="129" y="297" on="1"/>
        <pt x="81" y="0" on="1"/>
        <pt x="28" y="0" on="1"/>
        <pt x="135" y="655" on="1"/>
        <pt x="188" y="655" on="1"/>
        <pt x="137" y="346" on="1"/>
        <pt x="218" y="356" on="1"/>
        <pt x="295" y="458" on="0"/>
        <pt x="382" y="604" on="1"/>
      </contour>
    </TTGlyph>
    <TTGlyph name="L" xMin="57" yMin="0" xMax="377" yMax="655">
      <contour>
        <pt x="377" y="50" on="1"/>
        <pt x="370" y="0" on="1"/>
        <pt x="57" y="0" on="1"/>
        <pt x="163" y="655" on="1"/>
        <pt x="216" y="655" on="1"/>
        <pt x="117" y="50" on="1"/>
      </contour>
    </TTGlyph>
    <TTGlyph name="M" xMin="3" yMin="0" xMax="497" yMax="655">
      <contour>
        <pt x="389" y="0" on="1"/>
        <pt x="337" y="0" on="1"/>
        <pt x="424" y="533" on="1"/>
        <pt x="276" y="239" on="1"/>
        <pt x="209" y="239" on="1"/>
        <pt x="144" y="533" on="1"/>
        <pt x="56" y="0" on="1"/>
        <pt x="3" y="0" on="1"/>
        <pt x="112" y="655" on="1"/>
        <pt x="167" y="655" on="1"/>
        <pt x="246" y="289" on="1"/>
        <pt x="252" y="289" on="1"/>
        <pt x="430" y="655" on="1"/>
        <pt x="497" y="655" on="1"/>
      </contour>
    </TTGlyph>
    <TTGlyph name="N" xMin="0" yMin="0" xMax="498" yMax="655">
      <contour>
        <pt x="340" y="0" on="1"/>
        <pt x="356" y="103" on="1"/>
        <pt x="144" y="558" on="1"/>
        <pt x="53" y="0" on="1"/>
        <pt x="0" y="0" on="1"/>
        <pt x="108" y="655" on="1"/>
        <pt x="159" y="655" on="1"/>
        <pt x="370" y="195" on="1"/>
        <pt x="446" y="655" on="1"/>
        <pt x="498" y="655" on="1"/>
        <pt x="391" y="0" on="1"/>
      </contour>
    </TTGlyph>
    <TTGlyph name="Ntilde" xMin="0" yMin="0" xMax="498" yMax="932">
      <contour>
        <pt x="340" y="0" on="1"/>
        <pt x="356" y="103" on="1"/>
        <pt x="144" y="558" on="1"/>
        <pt x="53" y="0" on="1"/>
        <pt x="0" y="0" on="1"/>
        <pt x="108" y="655" on="1"/>
        <pt x="159" y="655" on="1"/>
        <pt x="370" y="195" on="1"/>
        <pt x="446" y="655" on="1"/>
        <pt x="498" y="655" on="1"/>
        <pt x="391" y="0" on="1"/>
      </contour>
      <contour>
        <pt x="446" y="919" on="1"/>
        <pt x="466" y="886" on="1"/>
        <pt x="405" y="831" on="0"/>
        <pt x="339" y="831" on="0"/>
        <pt x="273" y="885" on="0"/>
        <pt x="229" y="885" on="0"/>
        <pt x="178" y="844" on="1"/>
        <pt x="155" y="878" on="1"/>
        <pt x="220" y="932" on="0"/>
        <pt x="292" y="932" on="0"/>
        <pt x="360" y="879" on="0"/>
        <pt x="396" y="879" on="0"/>
      </contour>
    </TTGlyph>
    <TTGlyph name="O" xMin="40" yMin="-10" xMax="465" yMax="665">
      <contour>
        <pt x="309" y="665" on="1"/>
        <pt x="386" y="665" on="0"/>
        <pt x="463" y="578" on="0"/>
        <pt x="467" y="432" on="0"/>
        <pt x="438" y="255" on="0"/>
        <pt x="420" y="197" on="1"/>
        <pt x="402" y="139" on="0"/>
        <pt x="372" y="90" on="1"/>
        <pt x="312" y="-10" on="0"/>
        <pt x="193" y="-10" on="1"/>
        <pt x="118" y="-10" on="0"/>
        <pt x="42" y="80" on="0"/>
        <pt x="38" y="233" on="0"/>
        <pt x="54" y="336" on="1"/>
        <pt x="80" y="495" on="0"/>
        <pt x="196" y="665" on="0"/>
      </contour>
      <contour>
        <pt x="133" y="447" on="0"/>
        <pt x="117" y="380" on="0"/>
        <pt x="101" y="286" on="0"/>
        <pt x="93" y="210" on="0"/>
        <pt x="96" y="128" on="0"/>
        <pt x="117" y="75" on="0"/>
        <pt x="164" y="41" on="0"/>
        <pt x="245" y="41" on="0"/>
        <pt x="280" y="65" on="1"/>
        <pt x="314" y="88" on="0"/>
        <pt x="336" y="134" on="1"/>
        <pt x="375" y="214" on="0"/>
        <pt x="396" y="336" on="1"/>
        <pt x="423" y="482" on="0"/>
        <pt x="397" y="552" on="1"/>
        <pt x="387" y="578" on="0"/>
        <pt x="338" y="614" on="0"/>
        <pt x="262" y="614" on="0"/>
        <pt x="202" y="578" on="0"/>
        <pt x="163" y="527" on="0"/>
      </contour>
    </TTGlyph>
    <TTGlyph name="OE" xMin="11" yMin="0" xMax="522" yMax="655">
      <contour>
        <pt x="302" y="655" on="1"/>
        <pt x="522" y="655" on="1"/>
        <pt x="514" y="607" on="1"/>
        <pt x="360" y="607" on="1"/>
        <pt x="321" y="357" on="1"/>
        <pt x="448" y="357" on="1"/>
        <pt x="440" y="309" on="1"/>
        <pt x="313" y="309" on="1"/>
        <pt x="272" y="48" on="1"/>
        <pt x="429" y="48" on="1"/>
        <pt x="421" y="0" on="1"/>
        <pt x="198" y="0" on="1"/>
        <pt x="101" y="0" on="0"/>
        <pt x="45" y="72" on="1"/>
        <pt x="-13" y="146" on="0"/>
        <pt x="11" y="332" on="1"/>
        <pt x="65" y="659" on="0"/>
      </contour>
      <contour>
        <pt x="305" y="605" on="1"/>
        <pt x="119" y="611" on="0"/>
        <pt x="69" y="332" on="1"/>
        <pt x="46" y="183" on="0"/>
        <pt x="127" y="47" on="0"/>
        <pt x="206" y="49" on="1"/>
        <pt x="217" y="49" on="1"/>
      </contour>
    </TTGlyph>
    <TTGlyph name="Oacute" xMin="40" yMin="-10" xMax="465" yMax="945">
      <contour>
        <pt x="309" y="665" on="1"/>
        <pt x="386" y="665" on="0"/>
        <pt x="463" y="578" on="0"/>
        <pt x="467" y="432" on="0"/>
        <pt x="438" y="255" on="0"/>
        <pt x="420" y="197" on="1"/>
        <pt x="402" y="139" on="0"/>
        <pt x="372" y="90" on="1"/>
        <pt x="312" y="-10" on="0"/>
        <pt x="193" y="-10" on="1"/>
        <pt x="118" y="-10" on="0"/>
        <pt x="42" y="80" on="0"/>
        <pt x="38" y="233" on="0"/>
        <pt x="54" y="336" on="1"/>
        <pt x="80" y="495" on="0"/>
        <pt x="196" y="665" on="0"/>
      </contour>
      <contour>
        <pt x="133" y="447" on="0"/>
        <pt x="117" y="380" on="0"/>
        <pt x="101" y="286" on="0"/>
        <pt x="93" y="210" on="0"/>
        <pt x="96" y="128" on="0"/>
        <pt x="117" y="75" on="0"/>
        <pt x="164" y="41" on="0"/>
        <pt x="245" y="41" on="0"/>
        <pt x="280" y="65" on="1"/>
        <pt x="314" y="88" on="0"/>
        <pt x="336" y="134" on="1"/>
        <pt x="375" y="214" on="0"/>
        <pt x="396" y="336" on="1"/>
        <pt x="423" y="482" on="0"/>
        <pt x="397" y="552" on="1"/>
        <pt x="387" y="578" on="0"/>
        <pt x="338" y="614" on="0"/>
        <pt x="262" y="614" on="0"/>
        <pt x="202" y="578" on="0"/>
        <pt x="163" y="527" on="0"/>
      </contour>
      <contour>
        <pt x="238" y="847" on="1"/>
        <pt x="402" y="945" on="1"/>
        <pt x="420" y="891" on="1"/>
        <pt x="255" y="799" on="1"/>
      </contour>
    </TTGlyph>
    <TTGlyph name="Ocircumflex" xMin="40" yMin="-10" xMax="480" yMax="974">
      <contour>
        <pt x="309" y="665" on="1"/>
        <pt x="386" y="665" on="0"/>
        <pt x="463" y="578" on="0"/>
        <pt x="467" y="432" on="0"/>
        <pt x="438" y="255" on="0"/>
        <pt x="420" y="197" on="1"/>
        <pt x="402" y="139" on="0"/>
        <pt x="372" y="90" on="1"/>
        <pt x="312" y="-10" on="0"/>
        <pt x="193" y="-10" on="1"/>
        <pt x="118" y="-10" on="0"/>
        <pt x="42" y="80" on="0"/>
        <pt x="38" y="233" on="0"/>
        <pt x="54" y="336" on="1"/>
        <pt x="80" y="495" on="0"/>
        <pt x="196" y="665" on="0"/>
      </contour>
      <contour>
        <pt x="133" y="447" on="0"/>
        <pt x="117" y="380" on="0"/>
        <pt x="101" y="286" on="0"/>
        <pt x="93" y="210" on="0"/>
        <pt x="96" y="128" on="0"/>
        <pt x="117" y="75" on="0"/>
        <pt x="164" y="41" on="0"/>
        <pt x="245" y="41" on="0"/>
        <pt x="280" y="65" on="1"/>
        <pt x="314" y="88" on="0"/>
        <pt x="336" y="134" on="1"/>
        <pt x="375" y="214" on="0"/>
        <pt x="396" y="336" on="1"/>
        <pt x="423" y="482" on="0"/>
        <pt x="397" y="552" on="1"/>
        <pt x="387" y="578" on="0"/>
        <pt x="338" y="614" on="0"/>
        <pt x="262" y="614" on="0"/>
        <pt x="202" y="578" on="0"/>
        <pt x="163" y="527" on="0"/>
      </contour>
      <contour>
        <pt x="180" y="812" on="1"/>
        <pt x="333" y="974" on="1"/>
        <pt x="378" y="974" on="1"/>
        <pt x="480" y="812" on="1"/>
        <pt x="422" y="812" on="1"/>
        <pt x="348" y="934" on="1"/>
        <pt x="237" y="812" on="1"/>
      </contour>
    </TTGlyph>
    <TTGlyph name="Odieresis" xMin="40" yMin="-10" xMax="468" yMax="909">
      <contour>
        <pt x="309" y="665" on="1"/>
        <pt x="386" y="665" on="0"/>
        <pt x="463" y="578" on="0"/>
        <pt x="467" y="432" on="0"/>
        <pt x="438" y="255" on="0"/>
        <pt x="420" y="197" on="1"/>
        <pt x="402" y="139" on="0"/>
        <pt x="372" y="90" on="1"/>
        <pt x="312" y="-10" on="0"/>
        <pt x="193" y="-10" on="1"/>
        <pt x="118" y="-10" on="0"/>
        <pt x="42" y="80" on="0"/>
        <pt x="38" y="233" on="0"/>
        <pt x="54" y="336" on="1"/>
        <pt x="80" y="495" on="0"/>
        <pt x="196" y="665" on="0"/>
      </contour>
      <contour>
        <pt x="133" y="447" on="0"/>
        <pt x="117" y="380" on="0"/>
        <pt x="101" y="286" on="0"/>
        <pt x="93" y="210" on="0"/>
        <pt x="96" y="128" on="0"/>
        <pt x="117" y="75" on="0"/>
        <pt x="164" y="41" on="0"/>
        <pt x="245" y="41" on="0"/>
        <pt x="280" y="65" on="1"/>
        <pt x="314" y="88" on="0"/>
        <pt x="336" y="134" on="1"/>
        <pt x="375" y="214" on="0"/>
        <pt x="396" y="336" on="1"/>
        <pt x="423" y="482" on="0"/>
        <pt x="397" y="552" on="1"/>
        <pt x="387" y="578" on="0"/>
        <pt x="338" y="614" on="0"/>
        <pt x="262" y="614" on="0"/>
        <pt x="202" y="578" on="0"/>
        <pt x="163" y="527" on="0"/>
      </contour>
      <contour>
        <pt x="232" y="835" on="1"/>
        <pt x="201" y="834" on="0"/>
        <pt x="201" y="868" on="1"/>
        <pt x="201" y="884" on="0"/>
        <pt x="225" y="909" on="0"/>
        <pt x="258" y="909" on="0"/>
        <pt x="274" y="891" on="0"/>
        <pt x="274" y="860" on="0"/>
        <pt x="250" y="835" on="0"/>
      </contour>
      <contour>
        <pt x="411" y="835" on="0"/>
        <pt x="394" y="853" on="0"/>
        <pt x="394" y="884" on="0"/>
        <pt x="419" y="909" on="0"/>
        <pt x="451" y="909" on="0"/>
        <pt x="468" y="891" on="0"/>
        <pt x="468" y="860" on="0"/>
        <pt x="443" y="835" on="0"/>
      </contour>
    </TTGlyph>
    <TTGlyph name="Ograve" xMin="40" yMin="-10" xMax="465" yMax="942">
      <contour>
        <pt x="309" y="665" on="1"/>
        <pt x="386" y="665" on="0"/>
        <pt x="463" y="578" on="0"/>
        <pt x="467" y="432" on="0"/>
        <pt x="438" y="255" on="0"/>
        <pt x="420" y="197" on="1"/>
        <pt x="402" y="139" on="0"/>
        <pt x="372" y="90" on="1"/>
        <pt x="312" y="-10" on="0"/>
        <pt x="193" y="-10" on="1"/>
        <pt x="118" y="-10" on="0"/>
        <pt x="42" y="80" on="0"/>
        <pt x="38" y="233" on="0"/>
        <pt x="54" y="336" on="1"/>
        <pt x="80" y="495" on="0"/>
        <pt x="196" y="665" on="0"/>
      </contour>
      <contour>
        <pt x="133" y="447" on="0"/>
        <pt x="117" y="380" on="0"/>
        <pt x="101" y="286" on="0"/>
        <pt x="93" y="210" on="0"/>
        <pt x="96" y="128" on="0"/>
        <pt x="117" y="75" on="0"/>
        <pt x="164" y="41" on="0"/>
        <pt x="245" y="41" on="0"/>
        <pt x="280" y="65" on="1"/>
        <pt x="314" y="88" on="0"/>
        <pt x="336" y="134" on="1"/>
        <pt x="375" y="214" on="0"/>
        <pt x="396" y="336" on="1"/>
        <pt x="423" y="482" on="0"/>
        <pt x="397" y="552" on="1"/>
        <pt x="387" y="578" on="0"/>
        <pt x="338" y="614" on="0"/>
        <pt x="262" y="614" on="0"/>
        <pt x="202" y="578" on="0"/>
        <pt x="163" y="527" on="0"/>
      </contour>
      <contour>
        <pt x="262" y="942" on="1"/>
        <pt x="424" y="844" on="1"/>
        <pt x="399" y="801" on="1"/>
        <pt x="235" y="893" on="1"/>
      </contour>
    </TTGlyph>
    <TTGlyph name="Otilde" xMin="40" yMin="-10" xMax="481" yMax="932">
      <contour>
        <pt x="309" y="665" on="1"/>
        <pt x="386" y="665" on="0"/>
        <pt x="463" y="578" on="0"/>
        <pt x="467" y="432" on="0"/>
        <pt x="438" y="255" on="0"/>
        <pt x="420" y="197" on="1"/>
        <pt x="402" y="139" on="0"/>
        <pt x="372" y="90" on="1"/>
        <pt x="312" y="-10" on="0"/>
        <pt x="193" y="-10" on="1"/>
        <pt x="118" y="-10" on="0"/>
        <pt x="42" y="80" on="0"/>
        <pt x="38" y="233" on="0"/>
        <pt x="54" y="336" on="1"/>
        <pt x="80" y="495" on="0"/>
        <pt x="196" y="665" on="0"/>
      </contour>
      <contour>
        <pt x="133" y="447" on="0"/>
        <pt x="117" y="380" on="0"/>
        <pt x="101" y="286" on="0"/>
        <pt x="93" y="210" on="0"/>
        <pt x="96" y="128" on="0"/>
        <pt x="117" y="75" on="0"/>
        <pt x="164" y="41" on="0"/>
        <pt x="245" y="41" on="0"/>
        <pt x="280" y="65" on="1"/>
        <pt x="314" y="88" on="0"/>
        <pt x="336" y="134" on="1"/>
        <pt x="375" y="214" on="0"/>
        <pt x="396" y="336" on="1"/>
        <pt x="423" y="482" on="0"/>
        <pt x="397" y="552" on="1"/>
        <pt x="387" y="578" on="0"/>
        <pt x="338" y="614" on="0"/>
        <pt x="262" y="614" on="0"/>
        <pt x="202" y="578" on="0"/>
        <pt x="163" y="527" on="0"/>
      </contour>
      <contour>
        <pt x="461" y="919" on="1"/>
        <pt x="481" y="886" on="1"/>
        <pt x="420" y="831" on="0"/>
        <pt x="354" y="831" on="0"/>
        <pt x="288" y="885" on="0"/>
        <pt x="244" y="885" on="0"/>
        <pt x="193" y="844" on="1"/>
        <pt x="170" y="878" on="1"/>
        <pt x="235" y="932" on="0"/>
        <pt x="308" y="932" on="0"/>
        <pt x="376" y="879" on="0"/>
        <pt x="411" y="879" on="0"/>
      </contour>
    </TTGlyph>
    <TTGlyph name="P" xMin="19" yMin="0" xMax="455" yMax="655">
      <contour>
        <pt x="198" y="242" on="1"/>
        <pt x="111" y="242" on="1"/>
        <pt x="70" y="0" on="1"/>
        <pt x="19" y="0" on="1"/>
        <pt x="126" y="655" on="1"/>
        <pt x="265" y="655" on="1"/>
        <pt x="379" y="655" on="0"/>
        <pt x="473" y="564" on="0"/>
        <pt x="437" y="340" on="0"/>
        <pt x="311" y="242" on="0"/>
      </contour>
      <contour>
        <pt x="257" y="605" on="1"/>
        <pt x="170" y="605" on="1"/>
        <pt x="119" y="292" on="1"/>
        <pt x="206" y="292" on="1"/>
        <pt x="294" y="292" on="0"/>
        <pt x="340" y="328" on="1"/>
        <pt x="386" y="365" on="0"/>
        <pt x="414" y="539" on="0"/>
        <pt x="346" y="605" on="0"/>
      </contour>
    </TTGlyph>
    <TTGlyph name="Q" xMin="40" yMin="-73" xMax="465" yMax="665">
      <contour>
        <pt x="347" y="-73" on="1"/>
        <pt x="302" y="21" on="1"/>
        <pt x="254" y="-10" on="0"/>
        <pt x="117" y="-10" on="0"/>
        <pt x="42" y="80" on="0"/>
        <pt x="38" y="233" on="0"/>
        <pt x="54" y="336" on="1"/>
        <pt x="81" y="495" on="0"/>
        <pt x="196" y="665" on="0"/>
        <pt x="309" y="665" on="1"/>
        <pt x="386" y="665" on="0"/>
        <pt x="463" y="580" on="0"/>
        <pt x="467" y="434" on="0"/>
        <pt x="452" y="336" on="1"/>
        <pt x="419" y="140" on="0"/>
        <pt x="345" y="58" on="1"/>
        <pt x="385" y="-30" on="1"/>
      </contour>
      <contour>
        <pt x="133" y="447" on="0"/>
        <pt x="117" y="380" on="0"/>
        <pt x="99" y="274" on="0"/>
        <pt x="92" y="180" on="0"/>
        <pt x="98" y="134" on="1"/>
        <pt x="111" y="41" on="0"/>
        <pt x="201" y="41" on="1"/>
        <pt x="242" y="41" on="0"/>
        <pt x="275" y="63" on="1"/>
        <pt x="231" y="118" on="1"/>
        <pt x="264" y="170" on="1"/>
        <pt x="316" y="103" on="1"/>
        <pt x="366" y="169" on="0"/>
        <pt x="396" y="336" on="1"/>
        <pt x="423" y="482" on="0"/>
        <pt x="397" y="552" on="1"/>
        <pt x="387" y="578" on="0"/>
        <pt x="338" y="614" on="0"/>
        <pt x="262" y="614" on="0"/>
        <pt x="202" y="578" on="0"/>
        <pt x="163" y="527" on="0"/>
      </contour>
    </TTGlyph>
    <TTGlyph name="R" xMin="24" yMin="0" xMax="465" yMax="655">
      <contour>
        <pt x="265" y="271" on="1"/>
        <pt x="211" y="268" on="0"/>
        <pt x="198" y="268" on="1"/>
        <pt x="120" y="268" on="1"/>
        <pt x="75" y="0" on="1"/>
        <pt x="24" y="0" on="1"/>
        <pt x="130" y="655" on="1"/>
        <pt x="270" y="655" on="1"/>
        <pt x="386" y="655" on="0"/>
        <pt x="482" y="572" on="0"/>
        <pt x="465" y="466" on="1"/>
        <pt x="452" y="395" on="0"/>
        <pt x="384" y="310" on="0"/>
        <pt x="320" y="283" on="1"/>
        <pt x="364" y="147" on="0"/>
        <pt x="392" y="0" on="1"/>
        <pt x="335" y="0" on="1"/>
        <pt x="306" y="143" on="0"/>
      </contour>
      <contour>
        <pt x="261" y="605" on="1"/>
        <pt x="175" y="605" on="1"/>
        <pt x="128" y="318" on="1"/>
        <pt x="203" y="318" on="1"/>
        <pt x="291" y="318" on="0"/>
        <pt x="395" y="384" on="0"/>
        <pt x="423" y="548" on="0"/>
        <pt x="350" y="605" on="0"/>
      </contour>
    </TTGlyph>
    <TTGlyph name="S" xMin="38" yMin="-9" xMax="460" yMax="665">
      <contour>
        <pt x="358" y="337" on="0"/>
        <pt x="425" y="260" on="0"/>
        <pt x="405" y="89" on="0"/>
        <pt x="284" y="-9" on="0"/>
        <pt x="198" y="-9" on="1"/>
        <pt x="133" y="-9" on="0"/>
        <pt x="38" y="20" on="1"/>
        <pt x="56" y="70" on="1"/>
        <pt x="148" y="42" on="0"/>
        <pt x="267" y="42" on="0"/>
        <pt x="352" y="111" on="0"/>
        <pt x="366" y="235" on="0"/>
        <pt x="317" y="293" on="0"/>
        <pt x="152" y="336" on="0"/>
        <pt x="83" y="419" on="0"/>
        <pt x="102" y="577" on="0"/>
        <pt x="216" y="665" on="0"/>
        <pt x="379" y="665" on="0"/>
        <pt x="460" y="634" on="1"/>
        <pt x="441" y="584" on="1"/>
        <pt x="367" y="614" on="0"/>
        <pt x="234" y="614" on="0"/>
        <pt x="156" y="554" on="0"/>
        <pt x="143" y="443" on="0"/>
        <pt x="194" y="384" on="0"/>
      </contour>
    </TTGlyph>
    <TTGlyph name="T" xMin="92" yMin="0" xMax="480" yMax="655">
      <contour>
        <pt x="307" y="605" on="1"/>
        <pt x="208" y="0" on="1"/>
        <pt x="156" y="0" on="1"/>
        <pt x="255" y="605" on="1"/>
        <pt x="92" y="605" on="1"/>
        <pt x="100" y="655" on="1"/>
        <pt x="480" y="655" on="1"/>
        <pt x="473" y="605" on="1"/>
      </contour>
    </TTGlyph>
    <TTGlyph name="U" xMin="42" yMin="-9" xMax="491" yMax="655">
      <contour>
        <pt x="491" y="655" on="1"/>
        <pt x="415" y="190" on="1"/>
        <pt x="398" y="93" on="0"/>
        <pt x="342" y="42" on="1"/>
        <pt x="286" y="-9" on="0"/>
        <pt x="102" y="-9" on="0"/>
        <pt x="27" y="97" on="0"/>
        <pt x="42" y="190" on="1"/>
        <pt x="118" y="655" on="1"/>
        <pt x="170" y="655" on="1"/>
        <pt x="95" y="193" on="1"/>
        <pt x="68" y="39" on="0"/>
        <pt x="203" y="39" on="1"/>
        <pt x="270" y="39" on="0"/>
        <pt x="351" y="124" on="0"/>
        <pt x="363" y="193" on="1"/>
        <pt x="439" y="655" on="1"/>
      </contour>
    </TTGlyph>
    <TTGlyph name="Uacute" xMin="42" yMin="-9" xMax="491" yMax="945">
      <contour>
        <pt x="491" y="655" on="1"/>
        <pt x="415" y="190" on="1"/>
        <pt x="398" y="93" on="0"/>
        <pt x="342" y="42" on="1"/>
        <pt x="286" y="-9" on="0"/>
        <pt x="102" y="-9" on="0"/>
        <pt x="27" y="97" on="0"/>
        <pt x="42" y="190" on="1"/>
        <pt x="118" y="655" on="1"/>
        <pt x="170" y="655" on="1"/>
        <pt x="95" y="193" on="1"/>
        <pt x="68" y="39" on="0"/>
        <pt x="203" y="39" on="1"/>
        <pt x="270" y="39" on="0"/>
        <pt x="351" y="124" on="0"/>
        <pt x="363" y="193" on="1"/>
        <pt x="439" y="655" on="1"/>
      </contour>
      <contour>
        <pt x="238" y="847" on="1"/>
        <pt x="402" y="945" on="1"/>
        <pt x="420" y="891" on="1"/>
        <pt x="255" y="799" on="1"/>
      </contour>
    </TTGlyph>
    <TTGlyph name="Ucircumflex" xMin="42" yMin="-9" xMax="491" yMax="974">
      <contour>
        <pt x="491" y="655" on="1"/>
        <pt x="415" y="190" on="1"/>
        <pt x="398" y="93" on="0"/>
        <pt x="342" y="42" on="1"/>
        <pt x="286" y="-9" on="0"/>
        <pt x="102" y="-9" on="0"/>
        <pt x="27" y="97" on="0"/>
        <pt x="42" y="190" on="1"/>
        <pt x="118" y="655" on="1"/>
        <pt x="170" y="655" on="1"/>
        <pt x="95" y="193" on="1"/>
        <pt x="68" y="39" on="0"/>
        <pt x="203" y="39" on="1"/>
        <pt x="270" y="39" on="0"/>
        <pt x="351" y="124" on="0"/>
        <pt x="363" y="193" on="1"/>
        <pt x="439" y="655" on="1"/>
      </contour>
      <contour>
        <pt x="167" y="812" on="1"/>
        <pt x="320" y="974" on="1"/>
        <pt x="365" y="974" on="1"/>
        <pt x="467" y="812" on="1"/>
        <pt x="409" y="812" on="1"/>
        <pt x="335" y="934" on="1"/>
        <pt x="224" y="812" on="1"/>
      </contour>
    </TTGlyph>
    <TTGlyph name="Udieresis" xMin="42" yMin="-9" xMax="491" yMax="909">
      <contour>
        <pt x="491" y="655" on="1"/>
        <pt x="415" y="190" on="1"/>
        <pt x="398" y="93" on="0"/>
        <pt x="285" y="-9" on="0"/>
        <pt x="102" y="-9" on="0"/>
        <pt x="27" y="97" on="0"/>
        <pt x="42" y="190" on="1"/>
        <pt x="118" y="655" on="1"/>
        <pt x="170" y="655" on="1"/>
        <pt x="95" y="193" on="1"/>
        <pt x="68" y="39" on="0"/>
        <pt x="203" y="39" on="1"/>
        <pt x="270" y="39" on="0"/>
        <pt x="351" y="124" on="0"/>
        <pt x="363" y="193" on="1"/>
        <pt x="439" y="655" on="1"/>
      </contour>
      <contour>
        <pt x="218" y="835" on="1"/>
        <pt x="187" y="834" on="0"/>
        <pt x="187" y="868" on="1"/>
        <pt x="187" y="884" on="0"/>
        <pt x="211" y="909" on="0"/>
        <pt x="244" y="909" on="0"/>
        <pt x="260" y="891" on="0"/>
        <pt x="260" y="860" on="0"/>
        <pt x="236" y="835" on="0"/>
      </contour>
      <contour>
        <pt x="397" y="835" on="0"/>
        <pt x="380" y="853" on="0"/>
        <pt x="380" y="884" on="0"/>
        <pt x="405" y="909" on="0"/>
        <pt x="437" y="909" on="0"/>
        <pt x="454" y="891" on="0"/>
        <pt x="454" y="860" on="0"/>
        <pt x="429" y="835" on="0"/>
      </contour>
    </TTGlyph>
    <TTGlyph name="Ugrave" xMin="42" yMin="-9" xMax="491" yMax="942">
      <contour>
        <pt x="491" y="655" on="1"/>
        <pt x="415" y="190" on="1"/>
        <pt x="398" y="93" on="0"/>
        <pt x="342" y="42" on="1"/>
        <pt x="286" y="-9" on="0"/>
        <pt x="102" y="-9" on="0"/>
        <pt x="27" y="97" on="0"/>
        <pt x="42" y="190" on="1"/>
        <pt x="118" y="655" on="1"/>
        <pt x="170" y="655" on="1"/>
        <pt x="95" y="193" on="1"/>
        <pt x="68" y="39" on="0"/>
        <pt x="203" y="39" on="1"/>
        <pt x="270" y="39" on="0"/>
        <pt x="351" y="124" on="0"/>
        <pt x="363" y="193" on="1"/>
        <pt x="439" y="655" on="1"/>
      </contour>
      <contour>
        <pt x="252" y="942" on="1"/>
        <pt x="414" y="844" on="1"/>
        <pt x="389" y="801" on="1"/>
        <pt x="225" y="893" on="1"/>
      </contour>
    </TTGlyph>
    <TTGlyph name="V" xMin="79" yMin="0" xMax="533" yMax="655">
      <contour>
        <pt x="79" y="655" on="1"/>
        <pt x="133" y="655" on="1"/>
        <pt x="202" y="49" on="1"/>
        <pt x="210" y="49" on="1"/>
        <pt x="475" y="655" on="1"/>
        <pt x="533" y="655" on="1"/>
        <pt x="244" y="0" on="1"/>
        <pt x="149" y="0" on="1"/>
      </contour>
    </TTGlyph>
    <TTGlyph name="W" xMin="28" yMin="0" xMax="548" yMax="655">
      <contour>
        <pt x="490" y="655" on="1"/>
        <pt x="548" y="655" on="1"/>
        <pt x="374" y="0" on="1"/>
        <pt x="278" y="0" on="1"/>
        <pt x="248" y="316" on="1"/>
        <pt x="119" y="0" on="1"/>
        <pt x="28" y="0" on="1"/>
        <pt x="56" y="655" on="1"/>
        <pt x="110" y="655" on="1"/>
        <pt x="83" y="50" on="1"/>
        <pt x="89" y="50" on="1"/>
        <pt x="220" y="370" on="1"/>
        <pt x="291" y="370" on="1"/>
        <pt x="324" y="50" on="1"/>
        <pt x="330" y="50" on="1"/>
      </contour>
    </TTGlyph>
    <TTGlyph name="X" xMin="5" yMin="0" xMax="490" yMax="655">
      <contour>
        <pt x="244" y="288" on="1"/>
        <pt x="72" y="0" on="1"/>
        <pt x="5" y="0" on="1"/>
        <pt x="220" y="341" on="1"/>
        <pt x="120" y="655" on="1"/>
        <pt x="185" y="655" on="1"/>
        <pt x="265" y="380" on="1"/>
        <pt x="270" y="380" on="1"/>
        <pt x="423" y="655" on="1"/>
        <pt x="490" y="655" on="1"/>
        <pt x="295" y="328" on="1"/>
        <pt x="409" y="0" on="1"/>
        <pt x="342" y="0" on="1"/>
        <pt x="249" y="288" on="1"/>
      </contour>
    </TTGlyph>
    <TTGlyph name="Y" xMin="34" yMin="0" xMax="474" yMax="655">
      <contour>
        <pt x="222" y="283" on="1"/>
        <pt x="177" y="0" on="1"/>
        <pt x="122" y="0" on="1"/>
        <pt x="167" y="283" on="1"/>
        <pt x="34" y="655" on="1"/>
        <pt x="95" y="655" on="1"/>
        <pt x="201" y="340" on="1"/>
        <pt x="206" y="340" on="1"/>
        <pt x="411" y="655" on="1"/>
        <pt x="474" y="655" on="1"/>
      </contour>
    </TTGlyph>
    <TTGlyph name="Ydieresis" xMin="34" yMin="0" xMax="474" yMax="909">
      <contour>
        <pt x="222" y="283" on="1"/>
        <pt x="177" y="0" on="1"/>
        <pt x="122" y="0" on="1"/>
        <pt x="167" y="283" on="1"/>
        <pt x="34" y="655" on="1"/>
        <pt x="95" y="655" on="1"/>
        <pt x="201" y="340" on="1"/>
        <pt x="206" y="340" on="1"/>
        <pt x="411" y="655" on="1"/>
        <pt x="474" y="655" on="1"/>
      </contour>
      <contour>
        <pt x="163" y="835" on="1"/>
        <pt x="132" y="834" on="0"/>
        <pt x="132" y="868" on="1"/>
        <pt x="132" y="884" on="0"/>
        <pt x="156" y="909" on="0"/>
        <pt x="189" y="909" on="0"/>
        <pt x="205" y="891" on="0"/>
        <pt x="205" y="860" on="0"/>
        <pt x="181" y="835" on="0"/>
      </contour>
      <contour>
        <pt x="342" y="835" on="0"/>
        <pt x="325" y="853" on="0"/>
        <pt x="325" y="884" on="0"/>
        <pt x="350" y="909" on="0"/>
        <pt x="382" y="909" on="0"/>
        <pt x="399" y="891" on="0"/>
        <pt x="399" y="860" on="0"/>
        <pt x="374" y="835" on="0"/>
      </contour>
    </TTGlyph>
    <TTGlyph name="Z" xMin="33" yMin="0" xMax="466" yMax="655">
      <contour>
        <pt x="466" y="655" on="1"/>
        <pt x="466" y="615" on="1"/>
        <pt x="97" y="47" on="1"/>
        <pt x="399" y="47" on="1"/>
        <pt x="393" y="0" on="1"/>
        <pt x="33" y="0" on="1"/>
        <pt x="33" y="40" on="1"/>
        <pt x="400" y="607" on="1"/>
        <pt x="116" y="607" on="1"/>
        <pt x="123" y="655" on="1"/>
      </contour>
    </TTGlyph>
    <TTGlyph name="_31" xMin="25" yMin="-10" xMax="468" yMax="491">
      <contour>
        <pt x="213" y="431" on="1"/>
        <pt x="92" y="431" on="0"/>
        <pt x="77" y="235" on="1"/>
        <pt x="181" y="252" on="1"/>
        <pt x="239" y="261" on="0"/>
        <pt x="284" y="318" on="0"/>
        <pt x="284" y="398" on="0"/>
        <pt x="253" y="431" on="0"/>
      </contour>
      <contour>
        <pt x="181" y="-10" on="1"/>
        <pt x="88" y="-10" on="0"/>
        <pt x="11" y="117" on="0"/>
        <pt x="39" y="355" on="0"/>
        <pt x="130" y="479" on="0"/>
        <pt x="219" y="479" on="1"/>
        <pt x="336" y="479" on="0"/>
        <pt x="336" y="360" on="1"/>
        <pt x="336" y="333" on="0"/>
        <pt x="327" y="304" on="1"/>
        <pt x="425" y="365" on="0"/>
        <pt x="417" y="479" on="1"/>
        <pt x="468" y="491" on="1"/>
        <pt x="480" y="382" on="0"/>
        <pt x="331" y="230" on="0"/>
        <pt x="188" y="205" on="1"/>
        <pt x="74" y="185" on="1"/>
        <pt x="70" y="112" on="0"/>
        <pt x="94" y="77" on="1"/>
        <pt x="118" y="42" on="0"/>
        <pt x="238" y="42" on="0"/>
        <pt x="321" y="71" on="1"/>
        <pt x="336" y="21" on="1"/>
        <pt x="255" y="-10" on="0"/>
      </contour>
    </TTGlyph>
    <TTGlyph name="a" xMin="52" yMin="-9" xMax="449" yMax="481">
      <contour>
        <pt x="205" y="44" on="1"/>
        <pt x="231" y="44" on="0"/>
        <pt x="331" y="149" on="0"/>
        <pt x="348" y="180" on="1"/>
        <pt x="385" y="400" on="1"/>
        <pt x="331" y="428" on="0"/>
        <pt x="291" y="428" on="1"/>
        <pt x="204" y="428" on="0"/>
        <pt x="108" y="275" on="0"/>
        <pt x="108" y="180" on="1"/>
        <pt x="108" y="121" on="0"/>
        <pt x="154" y="44" on="0"/>
      </contour>
      <contour>
        <pt x="206" y="-9" on="1"/>
        <pt x="129" y="-9" on="0"/>
        <pt x="52" y="87" on="0"/>
        <pt x="52" y="173" on="1"/>
        <pt x="52" y="282" on="0"/>
        <pt x="108" y="376" on="1"/>
        <pt x="136" y="422" on="0"/>
        <pt x="230" y="481" on="0"/>
        <pt x="290" y="481" on="1"/>
        <pt x="309" y="481" on="0"/>
        <pt x="371" y="462" on="0"/>
        <pt x="390" y="452" on="1"/>
        <pt x="396" y="472" on="1"/>
        <pt x="449" y="472" on="1"/>
        <pt x="389" y="110" on="1"/>
        <pt x="391" y="-2" on="1"/>
        <pt x="341" y="-8" on="1"/>
        <pt x="333" y="93" on="1"/>
        <pt x="311" y="55" on="0"/>
        <pt x="239" y="-9" on="0"/>
      </contour>
    </TTGlyph>
    <TTGlyph name="a.001" xMin="52" yMin="-9" xMax="446" yMax="481">
      <contour>
        <pt x="205" y="44" on="1"/>
        <pt x="231" y="44" on="0"/>
        <pt x="331" y="149" on="0"/>
        <pt x="348" y="180" on="1"/>
        <pt x="387" y="413" on="1"/>
        <pt x="345" y="428" on="0"/>
        <pt x="291" y="428" on="1"/>
        <pt x="204" y="428" on="0"/>
        <pt x="108" y="275" on="0"/>
        <pt x="108" y="180" on="1"/>
        <pt x="108" y="121" on="0"/>
        <pt x="154" y="44" on="0"/>
      </contour>
      <contour>
        <pt x="206" y="-9" on="1"/>
        <pt x="129" y="-9" on="0"/>
        <pt x="52" y="87" on="0"/>
        <pt x="52" y="173" on="1"/>
        <pt x="52" y="282" on="0"/>
        <pt x="108" y="376" on="1"/>
        <pt x="136" y="422" on="0"/>
        <pt x="230" y="481" on="0"/>
        <pt x="365" y="481" on="0"/>
        <pt x="446" y="454" on="1"/>
        <pt x="389" y="110" on="1"/>
        <pt x="391" y="-2" on="1"/>
        <pt x="341" y="-8" on="1"/>
        <pt x="333" y="93" on="1"/>
        <pt x="311" y="55" on="0"/>
        <pt x="239" y="-9" on="0"/>
      </contour>
    </TTGlyph>
    <TTGlyph name="aacute" xMin="52" yMin="-9" xMax="449" yMax="720">
      <contour>
        <pt x="205" y="44" on="1"/>
        <pt x="231" y="44" on="0"/>
        <pt x="331" y="149" on="0"/>
        <pt x="348" y="180" on="1"/>
        <pt x="385" y="400" on="1"/>
        <pt x="331" y="428" on="0"/>
        <pt x="291" y="428" on="1"/>
        <pt x="204" y="428" on="0"/>
        <pt x="108" y="275" on="0"/>
        <pt x="108" y="180" on="1"/>
        <pt x="108" y="121" on="0"/>
        <pt x="154" y="44" on="0"/>
      </contour>
      <contour>
        <pt x="206" y="-9" on="1"/>
        <pt x="129" y="-9" on="0"/>
        <pt x="52" y="87" on="0"/>
        <pt x="52" y="173" on="1"/>
        <pt x="52" y="282" on="0"/>
        <pt x="108" y="376" on="1"/>
        <pt x="136" y="422" on="0"/>
        <pt x="230" y="481" on="0"/>
        <pt x="290" y="481" on="1"/>
        <pt x="309" y="481" on="0"/>
        <pt x="371" y="462" on="0"/>
        <pt x="390" y="452" on="1"/>
        <pt x="396" y="472" on="1"/>
        <pt x="449" y="472" on="1"/>
        <pt x="389" y="110" on="1"/>
        <pt x="391" y="-2" on="1"/>
        <pt x="341" y="-8" on="1"/>
        <pt x="333" y="93" on="1"/>
        <pt x="311" y="55" on="0"/>
        <pt x="239" y="-9" on="0"/>
      </contour>
      <contour>
        <pt x="213" y="622" on="1"/>
        <pt x="377" y="720" on="1"/>
        <pt x="395" y="666" on="1"/>
        <pt x="230" y="574" on="1"/>
      </contour>
    </TTGlyph>
    <TTGlyph name="acircumflex" xMin="52" yMin="-9" xMax="455" yMax="749">
      <contour>
        <pt x="205" y="44" on="1"/>
        <pt x="231" y="44" on="0"/>
        <pt x="331" y="149" on="0"/>
        <pt x="348" y="180" on="1"/>
        <pt x="385" y="400" on="1"/>
        <pt x="331" y="428" on="0"/>
        <pt x="291" y="428" on="1"/>
        <pt x="204" y="428" on="0"/>
        <pt x="108" y="275" on="0"/>
        <pt x="108" y="180" on="1"/>
        <pt x="108" y="121" on="0"/>
        <pt x="154" y="44" on="0"/>
      </contour>
      <contour>
        <pt x="206" y="-9" on="1"/>
        <pt x="129" y="-9" on="0"/>
        <pt x="52" y="87" on="0"/>
        <pt x="52" y="173" on="1"/>
        <pt x="52" y="282" on="0"/>
        <pt x="108" y="376" on="1"/>
        <pt x="136" y="422" on="0"/>
        <pt x="230" y="481" on="0"/>
        <pt x="290" y="481" on="1"/>
        <pt x="309" y="481" on="0"/>
        <pt x="371" y="462" on="0"/>
        <pt x="390" y="452" on="1"/>
        <pt x="396" y="472" on="1"/>
        <pt x="449" y="472" on="1"/>
        <pt x="389" y="110" on="1"/>
        <pt x="391" y="-2" on="1"/>
        <pt x="341" y="-8" on="1"/>
        <pt x="333" y="93" on="1"/>
        <pt x="311" y="55" on="0"/>
        <pt x="239" y="-9" on="0"/>
      </contour>
      <contour>
        <pt x="155" y="587" on="1"/>
        <pt x="308" y="749" on="1"/>
        <pt x="353" y="749" on="1"/>
        <pt x="455" y="587" on="1"/>
        <pt x="397" y="587" on="1"/>
        <pt x="323" y="709" on="1"/>
        <pt x="212" y="587" on="1"/>
      </contour>
    </TTGlyph>
    <TTGlyph name="acute" xMin="152" yMin="574" xMax="334" yMax="720">
      <contour>
        <pt x="152" y="622" on="1"/>
        <pt x="316" y="720" on="1"/>
        <pt x="334" y="666" on="1"/>
        <pt x="169" y="574" on="1"/>
      </contour>
    </TTGlyph>
    <TTGlyph name="adieresis" xMin="52" yMin="-9" xMax="454" yMax="684">
      <contour>
        <pt x="205" y="44" on="1"/>
        <pt x="231" y="44" on="0"/>
        <pt x="331" y="149" on="0"/>
        <pt x="348" y="180" on="1"/>
        <pt x="385" y="400" on="1"/>
        <pt x="331" y="428" on="0"/>
        <pt x="291" y="428" on="1"/>
        <pt x="204" y="428" on="0"/>
        <pt x="108" y="275" on="0"/>
        <pt x="108" y="180" on="1"/>
        <pt x="108" y="121" on="0"/>
        <pt x="154" y="44" on="0"/>
      </contour>
      <contour>
        <pt x="206" y="-9" on="1"/>
        <pt x="129" y="-9" on="0"/>
        <pt x="52" y="87" on="0"/>
        <pt x="52" y="173" on="1"/>
        <pt x="52" y="282" on="0"/>
        <pt x="108" y="376" on="1"/>
        <pt x="136" y="422" on="0"/>
        <pt x="230" y="481" on="0"/>
        <pt x="290" y="481" on="1"/>
        <pt x="309" y="481" on="0"/>
        <pt x="371" y="462" on="0"/>
        <pt x="390" y="452" on="1"/>
        <pt x="396" y="472" on="1"/>
        <pt x="449" y="472" on="1"/>
        <pt x="389" y="110" on="1"/>
        <pt x="391" y="-2" on="1"/>
        <pt x="341" y="-8" on="1"/>
        <pt x="333" y="93" on="1"/>
        <pt x="311" y="55" on="0"/>
        <pt x="239" y="-9" on="0"/>
      </contour>
      <contour>
        <pt x="218" y="610" on="1"/>
        <pt x="187" y="610" on="0"/>
        <pt x="187" y="644" on="1"/>
        <pt x="187" y="660" on="0"/>
        <pt x="211" y="684" on="0"/>
        <pt x="244" y="684" on="0"/>
        <pt x="260" y="666" on="0"/>
        <pt x="260" y="635" on="0"/>
        <pt x="236" y="610" on="0"/>
      </contour>
      <contour>
        <pt x="397" y="610" on="0"/>
        <pt x="380" y="628" on="0"/>
        <pt x="380" y="659" on="0"/>
        <pt x="405" y="684" on="0"/>
        <pt x="437" y="684" on="0"/>
        <pt x="454" y="666" on="0"/>
        <pt x="454" y="635" on="0"/>
        <pt x="429" y="610" on="0"/>
      </contour>
    </TTGlyph>
    <TTGlyph name="ae" xMin="37" yMin="-10" xMax="528" yMax="480">
      <contour>
        <pt x="133" y="-10" on="1"/>
        <pt x="88" y="-10" on="0"/>
        <pt x="37" y="51" on="0"/>
        <pt x="37" y="104" on="1"/>
        <pt x="37" y="179" on="0"/>
        <pt x="126" y="269" on="0"/>
        <pt x="199" y="269" on="1"/>
        <pt x="264" y="269" on="1"/>
        <pt x="280" y="353" on="0"/>
        <pt x="270" y="423" on="0"/>
        <pt x="184" y="423" on="0"/>
        <pt x="114" y="392" on="1"/>
        <pt x="104" y="440" on="1"/>
        <pt x="181" y="475" on="0"/>
        <pt x="278" y="475" on="0"/>
        <pt x="317" y="449" on="0"/>
        <pt x="323" y="416" on="1"/>
        <pt x="339" y="444" on="0"/>
        <pt x="396" y="480" on="0"/>
        <pt x="431" y="480" on="1"/>
        <pt x="501" y="480" on="0"/>
        <pt x="545" y="379" on="0"/>
        <pt x="528" y="269" on="1"/>
        <pt x="516" y="217" on="1"/>
        <pt x="313" y="217" on="1"/>
        <pt x="308" y="176" on="0"/>
        <pt x="307" y="82" on="0"/>
        <pt x="340" y="41" on="0"/>
        <pt x="377" y="41" on="1"/>
        <pt x="402" y="42" on="0"/>
        <pt x="458" y="58" on="1"/>
        <pt x="476" y="63" on="1"/>
        <pt x="483" y="15" on="1"/>
        <pt x="414" y="-10" on="0"/>
        <pt x="324" y="-10" on="0"/>
        <pt x="278" y="15" on="0"/>
        <pt x="265" y="50" on="1"/>
        <pt x="223" y="-10" on="0"/>
      </contour>
      <contour>
        <pt x="242" y="92" on="1"/>
        <pt x="254" y="218" on="1"/>
        <pt x="191" y="218" on="1"/>
        <pt x="145" y="218" on="0"/>
        <pt x="94" y="162" on="0"/>
        <pt x="94" y="110" on="1"/>
        <pt x="94" y="41" on="0"/>
        <pt x="146" y="41" on="1"/>
        <pt x="171" y="41" on="0"/>
        <pt x="195" y="54" on="1"/>
        <pt x="218" y="66" on="0"/>
        <pt x="230" y="79" on="1"/>
      </contour>
      <contour>
        <pt x="484" y="344" on="0"/>
        <pt x="465" y="428" on="0"/>
        <pt x="380" y="428" on="0"/>
        <pt x="340" y="356" on="0"/>
        <pt x="324" y="267" on="1"/>
        <pt x="470" y="267" on="1"/>
      </contour>
    </TTGlyph>
    <TTGlyph name="agrave" xMin="52" yMin="-9" xMax="449" yMax="717">
      <contour>
        <pt x="205" y="44" on="1"/>
        <pt x="231" y="44" on="0"/>
        <pt x="331" y="149" on="0"/>
        <pt x="348" y="180" on="1"/>
        <pt x="385" y="400" on="1"/>
        <pt x="331" y="428" on="0"/>
        <pt x="291" y="428" on="1"/>
        <pt x="204" y="428" on="0"/>
        <pt x="108" y="275" on="0"/>
        <pt x="108" y="180" on="1"/>
        <pt x="108" y="121" on="0"/>
        <pt x="154" y="44" on="0"/>
      </contour>
      <contour>
        <pt x="206" y="-9" on="1"/>
        <pt x="129" y="-9" on="0"/>
        <pt x="52" y="87" on="0"/>
        <pt x="52" y="173" on="1"/>
        <pt x="52" y="282" on="0"/>
        <pt x="108" y="376" on="1"/>
        <pt x="136" y="422" on="0"/>
        <pt x="230" y="481" on="0"/>
        <pt x="290" y="481" on="1"/>
        <pt x="309" y="481" on="0"/>
        <pt x="371" y="462" on="0"/>
        <pt x="390" y="452" on="1"/>
        <pt x="396" y="472" on="1"/>
        <pt x="449" y="472" on="1"/>
        <pt x="389" y="110" on="1"/>
        <pt x="391" y="-2" on="1"/>
        <pt x="341" y="-8" on="1"/>
        <pt x="333" y="93" on="1"/>
        <pt x="311" y="55" on="0"/>
        <pt x="239" y="-9" on="0"/>
      </contour>
      <contour>
        <pt x="242" y="717" on="1"/>
        <pt x="404" y="619" on="1"/>
        <pt x="379" y="576" on="1"/>
        <pt x="215" y="668" on="1"/>
      </contour>
    </TTGlyph>
    <TTGlyph name="ampersand" xMin="14" yMin="-21" xMax="488" yMax="666">
      <contour>
        <pt x="388" y="117" on="1"/>
        <pt x="453" y="11" on="1"/>
        <pt x="413" y="-21" on="1"/>
        <pt x="373" y="35" on="0"/>
        <pt x="352" y="76" on="1"/>
        <pt x="271" y="-10" on="0"/>
        <pt x="95" y="-10" on="0"/>
        <pt x="4" y="99" on="0"/>
        <pt x="14" y="197" on="1"/>
        <pt x="26" y="339" on="0"/>
        <pt x="180" y="401" on="1"/>
        <pt x="141" y="482" on="0"/>
        <pt x="148" y="535" on="1"/>
        <pt x="152" y="589" on="0"/>
        <pt x="238" y="666" on="0"/>
        <pt x="347" y="666" on="0"/>
        <pt x="418" y="589" on="0"/>
        <pt x="407" y="473" on="0"/>
        <pt x="339" y="401" on="0"/>
        <pt x="256" y="366" on="1"/>
        <pt x="360" y="159" on="1"/>
        <pt x="404" y="236" on="0"/>
        <pt x="443" y="365" on="1"/>
        <pt x="488" y="357" on="1"/>
        <pt x="452" y="222" on="0"/>
      </contour>
      <contour>
        <pt x="298" y="430" on="0"/>
        <pt x="354" y="489" on="0"/>
        <pt x="363" y="569" on="0"/>
        <pt x="322" y="618" on="0"/>
        <pt x="256" y="618" on="0"/>
        <pt x="204" y="569" on="0"/>
        <pt x="197" y="501" on="0"/>
        <pt x="214" y="446" on="0"/>
        <pt x="237" y="406" on="1"/>
      </contour>
      <contour>
        <pt x="328" y="115" on="1"/>
        <pt x="199" y="362" on="1"/>
        <pt x="77" y="311" on="0"/>
        <pt x="67" y="197" on="1"/>
        <pt x="59" y="123" on="0"/>
        <pt x="122" y="38" on="0"/>
        <pt x="186" y="38" on="1"/>
        <pt x="221" y="38" on="0"/>
        <pt x="299" y="81" on="0"/>
      </contour>
    </TTGlyph>
    <TTGlyph name="approxequal" xMin="8" yMin="92" xMax="492" yMax="411">
      <contour>
        <pt x="431" y="202" on="1"/>
        <pt x="461" y="170" on="1"/>
        <pt x="377" y="92" on="0"/>
        <pt x="285" y="92" on="0"/>
        <pt x="164" y="170" on="0"/>
        <pt x="106" y="170" on="0"/>
        <pt x="39" y="108" on="1"/>
        <pt x="8" y="141" on="1"/>
        <pt x="94" y="219" on="0"/>
        <pt x="147" y="219" on="1"/>
        <pt x="188" y="219" on="0"/>
        <pt x="305" y="141" on="0"/>
        <pt x="363" y="141" on="0"/>
      </contour>
      <contour>
        <pt x="461" y="394" on="1"/>
        <pt x="492" y="364" on="1"/>
        <pt x="408" y="286" on="0"/>
        <pt x="316" y="286" on="0"/>
        <pt x="195" y="364" on="0"/>
        <pt x="137" y="364" on="0"/>
        <pt x="70" y="302" on="1"/>
        <pt x="39" y="333" on="1"/>
        <pt x="125" y="411" on="0"/>
        <pt x="177" y="411" on="1"/>
        <pt x="218" y="411" on="0"/>
        <pt x="336" y="333" on="0"/>
        <pt x="392" y="333" on="0"/>
      </contour>
    </TTGlyph>
    <TTGlyph name="aring" xMin="52" yMin="-9" xMax="449" yMax="744">
      <contour>
        <pt x="205" y="44" on="1"/>
        <pt x="231" y="44" on="0"/>
        <pt x="331" y="149" on="0"/>
        <pt x="348" y="180" on="1"/>
        <pt x="385" y="400" on="1"/>
        <pt x="331" y="428" on="0"/>
        <pt x="291" y="428" on="1"/>
        <pt x="204" y="428" on="0"/>
        <pt x="108" y="275" on="0"/>
        <pt x="108" y="180" on="1"/>
        <pt x="108" y="121" on="0"/>
        <pt x="154" y="44" on="0"/>
      </contour>
      <contour>
        <pt x="206" y="-9" on="1"/>
        <pt x="129" y="-9" on="0"/>
        <pt x="52" y="87" on="0"/>
        <pt x="52" y="173" on="1"/>
        <pt x="52" y="282" on="0"/>
        <pt x="108" y="376" on="1"/>
        <pt x="136" y="422" on="0"/>
        <pt x="230" y="481" on="0"/>
        <pt x="290" y="481" on="1"/>
        <pt x="309" y="481" on="0"/>
        <pt x="371" y="462" on="0"/>
        <pt x="390" y="452" on="1"/>
        <pt x="396" y="472" on="1"/>
        <pt x="449" y="472" on="1"/>
        <pt x="389" y="110" on="1"/>
        <pt x="391" y="-2" on="1"/>
        <pt x="341" y="-8" on="1"/>
        <pt x="333" y="93" on="1"/>
        <pt x="311" y="55" on="0"/>
        <pt x="239" y="-9" on="0"/>
      </contour>
      <contour>
        <pt x="382" y="744" on="0"/>
        <pt x="431" y="701" on="0"/>
        <pt x="431" y="613" on="0"/>
        <pt x="363" y="553" on="0"/>
        <pt x="268" y="553" on="0"/>
        <pt x="219" y="596" on="0"/>
        <pt x="219" y="683" on="0"/>
        <pt x="286" y="744" on="0"/>
      </contour>
      <contour>
        <pt x="261" y="638" on="1"/>
        <pt x="261" y="591" on="0"/>
        <pt x="315" y="591" on="1"/>
        <pt x="348" y="591" on="0"/>
        <pt x="387" y="627" on="0"/>
        <pt x="387" y="658" on="1"/>
        <pt x="387" y="705" on="0"/>
        <pt x="333" y="705" on="1"/>
        <pt x="300" y="705" on="0"/>
        <pt x="261" y="669" on="0"/>
      </contour>
    </TTGlyph>
    <TTGlyph name="asciitilde" xMin="35" yMin="209" xMax="469" yMax="332">
      <contour>
        <pt x="444" y="316" on="1"/>
        <pt x="469" y="286" on="1"/>
        <pt x="423" y="245" on="0"/>
        <pt x="364" y="209" on="0"/>
        <pt x="338" y="209" on="1"/>
        <pt x="296" y="209" on="0"/>
        <pt x="192" y="286" on="0"/>
        <pt x="168" y="286" on="1"/>
        <pt x="132" y="286" on="0"/>
        <pt x="61" y="224" on="1"/>
        <pt x="35" y="255" on="1"/>
        <pt x="83" y="296" on="0"/>
        <pt x="114" y="314" on="1"/>
        <pt x="144" y="332" on="0"/>
        <pt x="212" y="332" on="0"/>
        <pt x="312" y="255" on="0"/>
        <pt x="374" y="255" on="0"/>
      </contour>
    </TTGlyph>
    <TTGlyph name="asterisk" xMin="76" yMin="350" xMax="409" yMax="705">
      <contour>
        <pt x="76" y="505" on="1"/>
        <pt x="81" y="550" on="1"/>
        <pt x="221" y="550" on="1"/>
        <pt x="195" y="690" on="1"/>
        <pt x="239" y="705" on="1"/>
        <pt x="265" y="563" on="1"/>
        <pt x="388" y="650" on="1"/>
        <pt x="409" y="614" on="1"/>
        <pt x="285" y="526" on="1"/>
        <pt x="389" y="441" on="1"/>
        <pt x="358" y="402" on="1"/>
        <pt x="255" y="490" on="1"/>
        <pt x="195" y="350" on="1"/>
        <pt x="155" y="366" on="1"/>
        <pt x="215" y="505" on="1"/>
      </contour>
    </TTGlyph>
    <TTGlyph name="at" xMin="52" yMin="-109" xMax="472" yMax="525">
      <contour>
        <pt x="360" y="87" on="1"/>
        <pt x="415" y="453" on="1"/>
        <pt x="396" y="473" on="0"/>
        <pt x="238" y="473" on="0"/>
        <pt x="128" y="335" on="0"/>
        <pt x="89" y="76" on="0"/>
        <pt x="165" y="-57" on="0"/>
        <pt x="289" y="-57" on="0"/>
        <pt x="374" y="-30" on="1"/>
        <pt x="379" y="-81" on="1"/>
        <pt x="295" y="-109" on="0"/>
        <pt x="219" y="-109" on="1"/>
        <pt x="123" y="-109" on="0"/>
        <pt x="29" y="52" on="0"/>
        <pt x="76" y="362" on="0"/>
        <pt x="217" y="525" on="0"/>
        <pt x="326" y="525" on="1"/>
        <pt x="373" y="525" on="0"/>
        <pt x="446" y="506" on="0"/>
        <pt x="459" y="496" on="1"/>
        <pt x="472" y="487" on="1"/>
        <pt x="406" y="54" on="1"/>
        <pt x="346" y="27" on="0"/>
        <pt x="267" y="27" on="1"/>
        <pt x="143" y="27" on="0"/>
        <pt x="173" y="216" on="1"/>
        <pt x="206" y="389" on="0"/>
        <pt x="323" y="389" on="1"/>
        <pt x="373" y="389" on="0"/>
        <pt x="401" y="378" on="1"/>
        <pt x="411" y="374" on="1"/>
        <pt x="399" y="324" on="1"/>
        <pt x="376" y="338" on="0"/>
        <pt x="317" y="338" on="1"/>
        <pt x="242" y="338" on="0"/>
        <pt x="227" y="216" on="1"/>
        <pt x="213" y="158" on="0"/>
        <pt x="235" y="78" on="0"/>
        <pt x="282" y="78" on="1"/>
        <pt x="318" y="78" on="0"/>
        <pt x="348" y="84" on="1"/>
      </contour>
    </TTGlyph>
    <TTGlyph name="atilde" xMin="52" yMin="-9" xMax="471" yMax="707">
      <contour>
        <pt x="205" y="44" on="1"/>
        <pt x="231" y="44" on="0"/>
        <pt x="331" y="149" on="0"/>
        <pt x="348" y="180" on="1"/>
        <pt x="385" y="400" on="1"/>
        <pt x="331" y="428" on="0"/>
        <pt x="291" y="428" on="1"/>
        <pt x="204" y="428" on="0"/>
        <pt x="108" y="275" on="0"/>
        <pt x="108" y="180" on="1"/>
        <pt x="108" y="121" on="0"/>
        <pt x="154" y="44" on="0"/>
      </contour>
      <contour>
        <pt x="206" y="-9" on="1"/>
        <pt x="129" y="-9" on="0"/>
        <pt x="52" y="87" on="0"/>
        <pt x="52" y="173" on="1"/>
        <pt x="52" y="282" on="0"/>
        <pt x="108" y="376" on="1"/>
        <pt x="136" y="422" on="0"/>
        <pt x="230" y="481" on="0"/>
        <pt x="290" y="481" on="1"/>
        <pt x="309" y="481" on="0"/>
        <pt x="371" y="462" on="0"/>
        <pt x="390" y="452" on="1"/>
        <pt x="396" y="472" on="1"/>
        <pt x="449" y="472" on="1"/>
        <pt x="389" y="110" on="1"/>
        <pt x="391" y="-2" on="1"/>
        <pt x="341" y="-8" on="1"/>
        <pt x="333" y="93" on="1"/>
        <pt x="311" y="55" on="0"/>
        <pt x="239" y="-9" on="0"/>
      </contour>
      <contour>
        <pt x="451" y="694" on="1"/>
        <pt x="471" y="661" on="1"/>
        <pt x="410" y="606" on="0"/>
        <pt x="344" y="606" on="0"/>
        <pt x="278" y="660" on="0"/>
        <pt x="234" y="660" on="0"/>
        <pt x="183" y="619" on="1"/>
        <pt x="160" y="653" on="1"/>
        <pt x="225" y="707" on="0"/>
        <pt x="298" y="707" on="0"/>
        <pt x="366" y="654" on="0"/>
        <pt x="401" y="654" on="0"/>
      </contour>
    </TTGlyph>
    <TTGlyph name="b" xMin="24" yMin="-9" xMax="429" yMax="665">
      <contour>
        <pt x="24" y="0" on="1"/>
        <pt x="133" y="665" on="1"/>
        <pt x="185" y="665" on="1"/>
        <pt x="146" y="429" on="1"/>
        <pt x="223" y="481" on="0"/>
        <pt x="278" y="481" on="1"/>
        <pt x="364" y="481" on="0"/>
        <pt x="442" y="358" on="0"/>
        <pt x="416" y="130" on="0"/>
        <pt x="295" y="-9" on="0"/>
        <pt x="205" y="-9" on="1"/>
        <pt x="179" y="-9" on="0"/>
        <pt x="102" y="10" on="0"/>
        <pt x="83" y="20" on="1"/>
        <pt x="77" y="0" on="1"/>
      </contour>
      <contour>
        <pt x="385" y="331" on="0"/>
        <pt x="331" y="429" on="0"/>
        <pt x="209" y="429" on="0"/>
        <pt x="137" y="372" on="1"/>
        <pt x="88" y="72" on="1"/>
        <pt x="106" y="63" on="0"/>
        <pt x="186" y="43" on="0"/>
        <pt x="209" y="43" on="1"/>
        <pt x="276" y="43" on="0"/>
        <pt x="364" y="154" on="0"/>
      </contour>
    </TTGlyph>
    <TTGlyph name="backslash" xMin="70" yMin="-41" xMax="411" yMax="710">
      <contour>
        <pt x="362" y="-41" on="1"/>
        <pt x="70" y="688" on="1"/>
        <pt x="120" y="710" on="1"/>
        <pt x="411" y="-19" on="1"/>
      </contour>
    </TTGlyph>
    <TTGlyph name="bar" xMin="157" yMin="-244" xMax="358" yMax="743">
      <contour>
        <pt x="358" y="743" on="1"/>
        <pt x="208" y="-244" on="1"/>
        <pt x="157" y="-244" on="1"/>
        <pt x="307" y="743" on="1"/>
      </contour>
    </TTGlyph>
    <TTGlyph name="braceleft" xMin="122" yMin="-156" xMax="467" yMax="793">
      <contour>
        <pt x="178" y="323" on="1"/>
        <pt x="257" y="285" on="1"/>
        <pt x="246" y="209" on="0"/>
        <pt x="203" y="-13" on="0"/>
        <pt x="197" y="-51" on="1"/>
        <pt x="189" y="-106" on="0"/>
        <pt x="232" y="-106" on="1"/>
        <pt x="330" y="-106" on="1"/>
        <pt x="323" y="-156" on="1"/>
        <pt x="221" y="-156" on="1"/>
        <pt x="127" y="-156" on="0"/>
        <pt x="142" y="-57" on="1"/>
        <pt x="148" y="-20" on="0"/>
        <pt x="187" y="177" on="0"/>
        <pt x="198" y="253" on="1"/>
        <pt x="122" y="303" on="1"/>
        <pt x="127" y="348" on="1"/>
        <pt x="221" y="398" on="1"/>
        <pt x="234" y="484" on="0"/>
        <pt x="253" y="669" on="0"/>
        <pt x="256" y="694" on="1"/>
        <pt x="271" y="793" on="0"/>
        <pt x="365" y="793" on="1"/>
        <pt x="467" y="793" on="1"/>
        <pt x="460" y="743" on="1"/>
        <pt x="362" y="743" on="1"/>
        <pt x="317" y="743" on="0"/>
        <pt x="309" y="688" on="1"/>
        <pt x="305" y="659" on="0"/>
        <pt x="283" y="451" on="0"/>
        <pt x="270" y="366" on="1"/>
        <pt x="179" y="328" on="1"/>
      </contour>
    </TTGlyph>
    <TTGlyph name="braceright" xMin="39" yMin="-156" xMax="386" yMax="793">
      <contour>
        <pt x="308" y="398" on="1"/>
        <pt x="386" y="348" on="1"/>
        <pt x="381" y="303" on="1"/>
        <pt x="286" y="253" on="1"/>
        <pt x="275" y="181" on="0"/>
        <pt x="256" y="-15" on="0"/>
        <pt x="249" y="-57" on="1"/>
        <pt x="234" y="-156" on="0"/>
        <pt x="141" y="-156" on="1"/>
        <pt x="39" y="-156" on="1"/>
        <pt x="45" y="-106" on="1"/>
        <pt x="143" y="-106" on="1"/>
        <pt x="188" y="-106" on="0"/>
        <pt x="196" y="-51" on="1"/>
        <pt x="203" y="-5" on="0"/>
        <pt x="227" y="215" on="0"/>
        <pt x="237" y="285" on="1"/>
        <pt x="328" y="323" on="1"/>
        <pt x="329" y="328" on="1"/>
        <pt x="250" y="366" on="1"/>
        <pt x="262" y="447" on="0"/>
        <pt x="303" y="652" on="0"/>
        <pt x="308" y="688" on="1"/>
        <pt x="316" y="743" on="0"/>
        <pt x="273" y="743" on="1"/>
        <pt x="175" y="743" on="1"/>
        <pt x="183" y="793" on="1"/>
        <pt x="285" y="793" on="1"/>
        <pt x="378" y="793" on="0"/>
        <pt x="363" y="694" on="1"/>
        <pt x="358" y="659" on="0"/>
        <pt x="321" y="478" on="0"/>
      </contour>
    </TTGlyph>
    <TTGlyph name="bracketleft" xMin="72" yMin="-156" xMax="420" yMax="793">
      <contour>
        <pt x="271" y="743" on="1"/>
        <pt x="132" y="-106" on="1"/>
        <pt x="278" y="-106" on="1"/>
        <pt x="266" y="-156" on="1"/>
        <pt x="72" y="-156" on="1"/>
        <pt x="227" y="793" on="1"/>
        <pt x="420" y="793" on="1"/>
        <pt x="412" y="743" on="1"/>
      </contour>
    </TTGlyph>
    <TTGlyph name="bracketright" xMin="70" yMin="-156" xMax="420" yMax="793">
      <contour>
        <pt x="221" y="-106" on="1"/>
        <pt x="360" y="743" on="1"/>
        <pt x="213" y="743" on="1"/>
        <pt x="224" y="793" on="1"/>
        <pt x="420" y="793" on="1"/>
        <pt x="265" y="-156" on="1"/>
        <pt x="70" y="-156" on="1"/>
        <pt x="78" y="-106" on="1"/>
      </contour>
    </TTGlyph>
    <TTGlyph name="c" xMin="93" yMin="-9" xMax="433" yMax="481">
      <contour>
        <pt x="358" y="320" on="1"/>
        <pt x="375" y="419" on="1"/>
        <pt x="329" y="430" on="0"/>
        <pt x="302" y="430" on="1"/>
        <pt x="175" y="430" on="0"/>
        <pt x="144" y="237" on="1"/>
        <pt x="130" y="149" on="0"/>
        <pt x="188" y="42" on="0"/>
        <pt x="257" y="42" on="1"/>
        <pt x="298" y="42" on="0"/>
        <pt x="379" y="71" on="1"/>
        <pt x="387" y="21" on="1"/>
        <pt x="308" y="-9" on="0"/>
        <pt x="251" y="-9" on="1"/>
        <pt x="158" y="-9" on="0"/>
        <pt x="76" y="122" on="0"/>
        <pt x="93" y="237" on="1"/>
        <pt x="129" y="481" on="0"/>
        <pt x="309" y="481" on="1"/>
        <pt x="374" y="481" on="0"/>
        <pt x="433" y="460" on="1"/>
        <pt x="410" y="320" on="1"/>
      </contour>
    </TTGlyph>
    <TTGlyph name="ccedilla" xMin="93" yMin="-242" xMax="433" yMax="481">
      <contour>
        <pt x="358" y="320" on="1"/>
        <pt x="375" y="419" on="1"/>
        <pt x="329" y="430" on="0"/>
        <pt x="302" y="430" on="1"/>
        <pt x="175" y="430" on="0"/>
        <pt x="144" y="237" on="1"/>
        <pt x="130" y="149" on="0"/>
        <pt x="188" y="42" on="0"/>
        <pt x="257" y="42" on="1"/>
        <pt x="298" y="42" on="0"/>
        <pt x="379" y="71" on="1"/>
        <pt x="387" y="21" on="1"/>
        <pt x="308" y="-9" on="0"/>
        <pt x="251" y="-9" on="1"/>
        <pt x="158" y="-9" on="0"/>
        <pt x="76" y="122" on="0"/>
        <pt x="93" y="237" on="1"/>
        <pt x="129" y="481" on="0"/>
        <pt x="309" y="481" on="1"/>
        <pt x="374" y="481" on="0"/>
        <pt x="433" y="460" on="1"/>
        <pt x="410" y="320" on="1"/>
      </contour>
      <contour>
        <pt x="225" y="-57" on="1"/>
        <pt x="305" y="-57" on="0"/>
        <pt x="305" y="-139" on="1"/>
        <pt x="305" y="-183" on="0"/>
        <pt x="243" y="-242" on="0"/>
        <pt x="196" y="-242" on="1"/>
        <pt x="171" y="-242" on="0"/>
        <pt x="134" y="-235" on="1"/>
        <pt x="146" y="-192" on="1"/>
        <pt x="164" y="-197" on="0"/>
        <pt x="192" y="-197" on="1"/>
        <pt x="254" y="-197" on="0"/>
        <pt x="254" y="-138" on="1"/>
        <pt x="254" y="-101" on="0"/>
        <pt x="207" y="-101" on="1"/>
        <pt x="190" y="-101" on="0"/>
        <pt x="163" y="-106" on="1"/>
        <pt x="164" y="-65" on="1"/>
        <pt x="196" y="-57" on="0"/>
      </contour>
    </TTGlyph>
    <TTGlyph name="cedilla" xMin="162" yMin="-242" xMax="333" yMax="-57">
      <contour>
        <pt x="253" y="-57" on="1"/>
        <pt x="333" y="-57" on="0"/>
        <pt x="333" y="-139" on="1"/>
        <pt x="333" y="-183" on="0"/>
        <pt x="271" y="-242" on="0"/>
        <pt x="224" y="-242" on="1"/>
        <pt x="199" y="-242" on="0"/>
        <pt x="162" y="-235" on="1"/>
        <pt x="174" y="-192" on="1"/>
        <pt x="192" y="-197" on="0"/>
        <pt x="220" y="-197" on="1"/>
        <pt x="282" y="-197" on="0"/>
        <pt x="282" y="-138" on="1"/>
        <pt x="282" y="-101" on="0"/>
        <pt x="235" y="-101" on="1"/>
        <pt x="218" y="-101" on="0"/>
        <pt x="191" y="-106" on="1"/>
        <pt x="192" y="-65" on="1"/>
        <pt x="224" y="-57" on="0"/>
      </contour>
    </TTGlyph>
    <TTGlyph name="circumflex" xMin="101" yMin="587" xMax="401" yMax="749">
      <contour>
        <pt x="101" y="587" on="1"/>
        <pt x="254" y="749" on="1"/>
        <pt x="299" y="749" on="1"/>
        <pt x="401" y="587" on="1"/>
        <pt x="343" y="587" on="1"/>
        <pt x="269" y="709" on="1"/>
        <pt x="158" y="587" on="1"/>
      </contour>
    </TTGlyph>
    <TTGlyph name="colon" xMin="160" yMin="0" xMax="300" yMax="405">
      <contour>
        <pt x="200" y="303" on="1"/>
        <pt x="213" y="405" on="1"/>
        <pt x="300" y="405" on="1"/>
        <pt x="287" y="303" on="1"/>
      </contour>
      <contour>
        <pt x="160" y="0" on="1"/>
        <pt x="173" y="102" on="1"/>
        <pt x="260" y="102" on="1"/>
        <pt x="247" y="0" on="1"/>
      </contour>
    </TTGlyph>
    <TTGlyph name="comma" xMin="153" yMin="-143" xMax="283" yMax="112">
      <contour>
        <pt x="177" y="0" on="1"/>
        <pt x="192" y="112" on="1"/>
        <pt x="283" y="112" on="1"/>
        <pt x="272" y="30" on="1"/>
        <pt x="261" y="-58" on="0"/>
        <pt x="176" y="-143" on="1"/>
        <pt x="153" y="-119" on="1"/>
        <pt x="205" y="-54" on="0"/>
        <pt x="215" y="0" on="1"/>
      </contour>
    </TTGlyph>
    <TTGlyph name="d" xMin="43" yMin="-10" xMax="472" yMax="665">
      <contour>
        <pt x="472" y="665" on="1"/>
        <pt x="377" y="83" on="1"/>
        <pt x="375" y="-4" on="1"/>
        <pt x="325" y="-10" on="1"/>
        <pt x="323" y="43" on="1"/>
        <pt x="244" y="-9" on="0"/>
        <pt x="193" y="-9" on="1"/>
        <pt x="108" y="-9" on="0"/>
        <pt x="30" y="123" on="0"/>
        <pt x="57" y="350" on="0"/>
        <pt x="176" y="481" on="0"/>
        <pt x="266" y="481" on="1"/>
        <pt x="292" y="481" on="0"/>
        <pt x="365" y="464" on="0"/>
        <pt x="385" y="454" on="1"/>
        <pt x="420" y="665" on="1"/>
      </contour>
      <contour>
        <pt x="87" y="150" on="0"/>
        <pt x="141" y="43" on="0"/>
        <pt x="255" y="43" on="0"/>
        <pt x="327" y="100" on="1"/>
        <pt x="376" y="400" on="1"/>
        <pt x="360" y="409" on="0"/>
        <pt x="284" y="429" on="0"/>
        <pt x="262" y="429" on="1"/>
        <pt x="195" y="429" on="0"/>
        <pt x="108" y="326" on="0"/>
      </contour>
    </TTGlyph>
    <TTGlyph name="dagger" xMin="30" yMin="-118" xMax="463" yMax="758">
      <contour>
        <pt x="116" y="-118" on="1"/>
        <pt x="216" y="500" on="1"/>
        <pt x="30" y="500" on="1"/>
        <pt x="37" y="548" on="1"/>
        <pt x="224" y="548" on="1"/>
        <pt x="261" y="758" on="1"/>
        <pt x="312" y="758" on="1"/>
        <pt x="277" y="548" on="1"/>
        <pt x="463" y="548" on="1"/>
        <pt x="455" y="500" on="1"/>
        <pt x="269" y="500" on="1"/>
        <pt x="166" y="-118" on="1"/>
      </contour>
    </TTGlyph>
    <TTGlyph name="daggerdbl" xMin="-27" yMin="-84" xMax="469" yMax="746">
      <contour>
        <pt x="222" y="500" on="1"/>
        <pt x="36" y="500" on="1"/>
        <pt x="43" y="548" on="1"/>
        <pt x="230" y="548" on="1"/>
        <pt x="263" y="746" on="1"/>
        <pt x="314" y="746" on="1"/>
        <pt x="281" y="548" on="1"/>
        <pt x="469" y="548" on="1"/>
        <pt x="461" y="500" on="1"/>
        <pt x="274" y="500" on="1"/>
        <pt x="218" y="161" on="1"/>
        <pt x="406" y="161" on="1"/>
        <pt x="398" y="113" on="1"/>
        <pt x="210" y="113" on="1"/>
        <pt x="177" y="-84" on="1"/>
        <pt x="127" y="-84" on="1"/>
        <pt x="159" y="113" on="1"/>
        <pt x="-27" y="113" on="1"/>
        <pt x="-20" y="161" on="1"/>
        <pt x="167" y="161" on="1"/>
      </contour>
    </TTGlyph>
    <TTGlyph name="degree" xMin="108" yMin="426" xMax="388" yMax="693">
      <contour>
        <pt x="321" y="693" on="0"/>
        <pt x="388" y="627" on="0"/>
        <pt x="388" y="515" on="0"/>
        <pt x="292" y="426" on="0"/>
        <pt x="175" y="426" on="0"/>
        <pt x="108" y="492" on="0"/>
        <pt x="108" y="604" on="0"/>
        <pt x="205" y="693" on="0"/>
      </contour>
      <contour>
        <pt x="338" y="596" on="0"/>
        <pt x="298" y="648" on="0"/>
        <pt x="223" y="650" on="0"/>
        <pt x="168" y="600" on="0"/>
        <pt x="158" y="523" on="0"/>
        <pt x="199" y="472" on="0"/>
        <pt x="273" y="470" on="0"/>
        <pt x="328" y="519" on="0"/>
      </contour>
    </TTGlyph>
    <TTGlyph name="dieresis" xMin="131" yMin="610" xMax="398" yMax="684">
      <contour>
        <pt x="162" y="610" on="1"/>
        <pt x="131" y="610" on="0"/>
        <pt x="131" y="644" on="1"/>
        <pt x="131" y="660" on="0"/>
        <pt x="155" y="684" on="0"/>
        <pt x="188" y="684" on="0"/>
        <pt x="204" y="666" on="0"/>
        <pt x="204" y="635" on="0"/>
        <pt x="180" y="610" on="0"/>
      </contour>
      <contour>
        <pt x="341" y="610" on="0"/>
        <pt x="324" y="628" on="0"/>
        <pt x="324" y="659" on="0"/>
        <pt x="349" y="684" on="0"/>
        <pt x="381" y="684" on="0"/>
        <pt x="398" y="666" on="0"/>
        <pt x="398" y="635" on="0"/>
        <pt x="373" y="610" on="0"/>
      </contour>
    </TTGlyph>
    <TTGlyph name="divide" xMin="31" yMin="92" xMax="469" yMax="465">
      <contour>
        <pt x="181" y="124" on="1"/>
        <pt x="181" y="182" on="0"/>
        <pt x="231" y="182" on="1"/>
        <pt x="265" y="182" on="0"/>
        <pt x="265" y="146" on="1"/>
        <pt x="265" y="118" on="0"/>
        <pt x="243" y="92" on="0"/>
        <pt x="217" y="92" on="1"/>
        <pt x="181" y="92" on="0"/>
      </contour>
      <contour>
        <pt x="226" y="408" on="1"/>
        <pt x="226" y="465" on="0"/>
        <pt x="276" y="465" on="1"/>
        <pt x="310" y="465" on="0"/>
        <pt x="310" y="429" on="1"/>
        <pt x="310" y="375" on="0"/>
        <pt x="261" y="375" on="1"/>
        <pt x="226" y="375" on="0"/>
      </contour>
      <contour>
        <pt x="39" y="307" on="1"/>
        <pt x="31" y="261" on="1"/>
        <pt x="461" y="261" on="1"/>
        <pt x="469" y="307" on="1"/>
      </contour>
    </TTGlyph>
    <TTGlyph name="dollar" xMin="29" yMin="-92" xMax="449" yMax="725">
      <contour>
        <pt x="348" y="332" on="0"/>
        <pt x="416" y="253" on="0"/>
        <pt x="397" y="97" on="0"/>
        <pt x="294" y="0" on="0"/>
        <pt x="219" y="-7" on="1"/>
        <pt x="209" y="-92" on="1"/>
        <pt x="161" y="-92" on="1"/>
        <pt x="172" y="-8" on="1"/>
        <pt x="109" y="-4" on="0"/>
        <pt x="29" y="21" on="1"/>
        <pt x="47" y="71" on="1"/>
        <pt x="136" y="42" on="0"/>
        <pt x="257" y="42" on="0"/>
        <pt x="343" y="113" on="0"/>
        <pt x="357" y="235" on="0"/>
        <pt x="306" y="285" on="0"/>
        <pt x="140" y="329" on="0"/>
        <pt x="74" y="405" on="0"/>
        <pt x="92" y="552" on="0"/>
        <pt x="188" y="634" on="0"/>
        <pt x="254" y="641" on="1"/>
        <pt x="265" y="725" on="1"/>
        <pt x="313" y="725" on="1"/>
        <pt x="303" y="642" on="1"/>
        <pt x="377" y="639" on="0"/>
        <pt x="449" y="611" on="1"/>
        <pt x="430" y="561" on="1"/>
        <pt x="351" y="592" on="0"/>
        <pt x="283" y="592" on="1"/>
        <pt x="153" y="592" on="0"/>
        <pt x="140" y="482" on="1"/>
        <pt x="134" y="428" on="0"/>
        <pt x="184" y="374" on="0"/>
      </contour>
    </TTGlyph>
    <TTGlyph name="dotlessi" xMin="113" yMin="-10" xMax="365" yMax="475">
      <contour>
        <pt x="359" y="52" on="1"/>
        <pt x="365" y="2" on="1"/>
        <pt x="306" y="-10" on="0"/>
        <pt x="287" y="-10" on="1"/>
        <pt x="228" y="-10" on="0"/>
        <pt x="180" y="27" on="0"/>
        <pt x="182" y="103" on="0"/>
        <pt x="189" y="160" on="1"/>
        <pt x="233" y="425" on="1"/>
        <pt x="113" y="425" on="1"/>
        <pt x="121" y="475" on="1"/>
        <pt x="293" y="475" on="1"/>
        <pt x="243" y="162" on="1"/>
        <pt x="230" y="92" on="0"/>
        <pt x="242" y="42" on="0"/>
        <pt x="293" y="42" on="1"/>
        <pt x="317" y="42" on="0"/>
      </contour>
    </TTGlyph>
    <TTGlyph name="e" xMin="76" yMin="-9" xMax="423" yMax="481">
      <contour>
        <pt x="186" y="454" on="1"/>
        <pt x="229" y="481" on="0"/>
        <pt x="350" y="481" on="0"/>
        <pt x="423" y="417" on="0"/>
        <pt x="423" y="303" on="0"/>
        <pt x="337" y="217" on="0"/>
        <pt x="257" y="206" on="1"/>
        <pt x="130" y="189" on="1"/>
        <pt x="132" y="114" on="0"/>
        <pt x="181" y="43" on="0"/>
        <pt x="299" y="43" on="0"/>
        <pt x="380" y="72" on="1"/>
        <pt x="389" y="22" on="1"/>
        <pt x="308" y="-9" on="0"/>
        <pt x="159" y="-9" on="0"/>
        <pt x="76" y="91" on="0"/>
        <pt x="76" y="182" on="1"/>
        <pt x="76" y="294" on="0"/>
        <pt x="120" y="382" on="1"/>
        <pt x="143" y="428" on="0"/>
      </contour>
      <contour>
        <pt x="133" y="236" on="1"/>
        <pt x="250" y="253" on="1"/>
        <pt x="310" y="262" on="0"/>
        <pt x="371" y="321" on="0"/>
        <pt x="371" y="359" on="1"/>
        <pt x="371" y="433" on="0"/>
        <pt x="282" y="433" on="1"/>
        <pt x="213" y="433" on="0"/>
        <pt x="140" y="321" on="0"/>
      </contour>
    </TTGlyph>
    <TTGlyph name="eacute" xMin="76" yMin="-9" xMax="423" yMax="720">
      <contour>
        <pt x="186" y="454" on="1"/>
        <pt x="229" y="481" on="0"/>
        <pt x="350" y="481" on="0"/>
        <pt x="423" y="417" on="0"/>
        <pt x="423" y="303" on="0"/>
        <pt x="337" y="217" on="0"/>
        <pt x="257" y="206" on="1"/>
        <pt x="130" y="189" on="1"/>
        <pt x="132" y="114" on="0"/>
        <pt x="181" y="43" on="0"/>
        <pt x="299" y="43" on="0"/>
        <pt x="380" y="72" on="1"/>
        <pt x="389" y="22" on="1"/>
        <pt x="308" y="-9" on="0"/>
        <pt x="159" y="-9" on="0"/>
        <pt x="76" y="91" on="0"/>
        <pt x="76" y="182" on="1"/>
        <pt x="76" y="294" on="0"/>
        <pt x="120" y="382" on="1"/>
        <pt x="143" y="428" on="0"/>
      </contour>
      <contour>
        <pt x="133" y="236" on="1"/>
        <pt x="250" y="253" on="1"/>
        <pt x="310" y="262" on="0"/>
        <pt x="371" y="321" on="0"/>
        <pt x="371" y="359" on="1"/>
        <pt x="371" y="433" on="0"/>
        <pt x="282" y="433" on="1"/>
        <pt x="213" y="433" on="0"/>
        <pt x="140" y="321" on="0"/>
      </contour>
      <contour>
        <pt x="193" y="622" on="1"/>
        <pt x="357" y="720" on="1"/>
        <pt x="375" y="666" on="1"/>
        <pt x="210" y="574" on="1"/>
      </contour>
    </TTGlyph>
    <TTGlyph name="ecircumflex" xMin="76" yMin="-9" xMax="450" yMax="749">
      <contour>
        <pt x="186" y="454" on="1"/>
        <pt x="229" y="481" on="0"/>
        <pt x="350" y="481" on="0"/>
        <pt x="423" y="417" on="0"/>
        <pt x="423" y="303" on="0"/>
        <pt x="337" y="217" on="0"/>
        <pt x="257" y="206" on="1"/>
        <pt x="130" y="189" on="1"/>
        <pt x="132" y="114" on="0"/>
        <pt x="181" y="43" on="0"/>
        <pt x="299" y="43" on="0"/>
        <pt x="380" y="72" on="1"/>
        <pt x="389" y="22" on="1"/>
        <pt x="308" y="-9" on="0"/>
        <pt x="159" y="-9" on="0"/>
        <pt x="76" y="91" on="0"/>
        <pt x="76" y="182" on="1"/>
        <pt x="76" y="294" on="0"/>
        <pt x="120" y="382" on="1"/>
        <pt x="143" y="428" on="0"/>
      </contour>
      <contour>
        <pt x="133" y="236" on="1"/>
        <pt x="250" y="253" on="1"/>
        <pt x="310" y="262" on="0"/>
        <pt x="371" y="321" on="0"/>
        <pt x="371" y="359" on="1"/>
        <pt x="371" y="433" on="0"/>
        <pt x="282" y="433" on="1"/>
        <pt x="213" y="433" on="0"/>
        <pt x="140" y="321" on="0"/>
      </contour>
      <contour>
        <pt x="150" y="587" on="1"/>
        <pt x="303" y="749" on="1"/>
        <pt x="348" y="749" on="1"/>
        <pt x="450" y="587" on="1"/>
        <pt x="392" y="587" on="1"/>
        <pt x="318" y="709" on="1"/>
        <pt x="207" y="587" on="1"/>
      </contour>
    </TTGlyph>
    <TTGlyph name="edieresis" xMin="76" yMin="-9" xMax="434" yMax="684">
      <contour>
        <pt x="186" y="454" on="1"/>
        <pt x="229" y="481" on="0"/>
        <pt x="350" y="481" on="0"/>
        <pt x="423" y="417" on="0"/>
        <pt x="423" y="303" on="0"/>
        <pt x="337" y="217" on="0"/>
        <pt x="257" y="206" on="1"/>
        <pt x="130" y="189" on="1"/>
        <pt x="132" y="114" on="0"/>
        <pt x="181" y="43" on="0"/>
        <pt x="299" y="43" on="0"/>
        <pt x="380" y="72" on="1"/>
        <pt x="389" y="22" on="1"/>
        <pt x="308" y="-9" on="0"/>
        <pt x="159" y="-9" on="0"/>
        <pt x="76" y="91" on="0"/>
        <pt x="76" y="182" on="1"/>
        <pt x="76" y="294" on="0"/>
        <pt x="120" y="382" on="1"/>
        <pt x="143" y="428" on="0"/>
      </contour>
      <contour>
        <pt x="133" y="236" on="1"/>
        <pt x="250" y="253" on="1"/>
        <pt x="310" y="262" on="0"/>
        <pt x="371" y="321" on="0"/>
        <pt x="371" y="359" on="1"/>
        <pt x="371" y="433" on="0"/>
        <pt x="282" y="433" on="1"/>
        <pt x="213" y="433" on="0"/>
        <pt x="140" y="321" on="0"/>
      </contour>
      <contour>
        <pt x="198" y="610" on="1"/>
        <pt x="167" y="610" on="0"/>
        <pt x="167" y="644" on="1"/>
        <pt x="167" y="660" on="0"/>
        <pt x="191" y="684" on="0"/>
        <pt x="224" y="684" on="0"/>
        <pt x="240" y="666" on="0"/>
        <pt x="240" y="635" on="0"/>
        <pt x="216" y="610" on="0"/>
      </contour>
      <contour>
        <pt x="377" y="610" on="0"/>
        <pt x="360" y="628" on="0"/>
        <pt x="360" y="659" on="0"/>
        <pt x="385" y="684" on="0"/>
        <pt x="417" y="684" on="0"/>
        <pt x="434" y="666" on="0"/>
        <pt x="434" y="635" on="0"/>
        <pt x="409" y="610" on="0"/>
      </contour>
    </TTGlyph>
    <TTGlyph name="egrave" xMin="76" yMin="-9" xMax="423" yMax="717">
      <contour>
        <pt x="186" y="454" on="1"/>
        <pt x="229" y="481" on="0"/>
        <pt x="350" y="481" on="0"/>
        <pt x="423" y="417" on="0"/>
        <pt x="423" y="303" on="0"/>
        <pt x="337" y="217" on="0"/>
        <pt x="257" y="206" on="1"/>
        <pt x="130" y="189" on="1"/>
        <pt x="132" y="114" on="0"/>
        <pt x="181" y="43" on="0"/>
        <pt x="299" y="43" on="0"/>
        <pt x="380" y="72" on="1"/>
        <pt x="389" y="22" on="1"/>
        <pt x="308" y="-9" on="0"/>
        <pt x="159" y="-9" on="0"/>
        <pt x="76" y="91" on="0"/>
        <pt x="76" y="182" on="1"/>
        <pt x="76" y="294" on="0"/>
        <pt x="120" y="382" on="1"/>
        <pt x="143" y="428" on="0"/>
      </contour>
      <contour>
        <pt x="133" y="236" on="1"/>
        <pt x="250" y="253" on="1"/>
        <pt x="310" y="262" on="0"/>
        <pt x="371" y="321" on="0"/>
        <pt x="371" y="359" on="1"/>
        <pt x="371" y="433" on="0"/>
        <pt x="282" y="433" on="1"/>
        <pt x="213" y="433" on="0"/>
        <pt x="140" y="321" on="0"/>
      </contour>
      <contour>
        <pt x="232" y="717" on="1"/>
        <pt x="394" y="619" on="1"/>
        <pt x="369" y="576" on="1"/>
        <pt x="205" y="668" on="1"/>
      </contour>
    </TTGlyph>
    <TTGlyph name="eight" xMin="24" yMin="-10" xMax="467" yMax="643">
      <contour>
        <pt x="103" y="553" on="0"/>
        <pt x="214" y="643" on="0"/>
        <pt x="397" y="643" on="0"/>
        <pt x="479" y="548" on="0"/>
        <pt x="467" y="472" on="1"/>
        <pt x="448" y="365" on="0"/>
        <pt x="348" y="326" on="1"/>
        <pt x="448" y="286" on="0"/>
        <pt x="427" y="161" on="1"/>
        <pt x="413" y="80" on="0"/>
        <pt x="295" y="-10" on="0"/>
        <pt x="99" y="-10" on="0"/>
        <pt x="10" y="85" on="0"/>
        <pt x="24" y="166" on="1"/>
        <pt x="45" y="284" on="0"/>
        <pt x="157" y="324" on="1"/>
        <pt x="74" y="373" on="0"/>
        <pt x="91" y="477" on="1"/>
      </contour>
      <contour>
        <pt x="180" y="299" on="0"/>
        <pt x="93" y="229" on="0"/>
        <pt x="72" y="108" on="0"/>
        <pt x="135" y="42" on="0"/>
        <pt x="275" y="42" on="0"/>
        <pt x="362" y="108" on="0"/>
        <pt x="383" y="229" on="0"/>
        <pt x="320" y="299" on="0"/>
      </contour>
      <contour>
        <pt x="231" y="591" on="0"/>
        <pt x="153" y="527" on="0"/>
        <pt x="134" y="418" on="0"/>
        <pt x="189" y="349" on="0"/>
        <pt x="325" y="349" on="0"/>
        <pt x="401" y="416" on="0"/>
        <pt x="411" y="472" on="1"/>
        <pt x="420" y="528" on="0"/>
        <pt x="365" y="591" on="0"/>
      </contour>
    </TTGlyph>
    <TTGlyph name="ellipsis" xMin="57" yMin="0" xMax="446" yMax="81">
      <contour>
        <pt x="57" y="0" on="1"/>
        <pt x="70" y="81" on="1"/>
        <pt x="139" y="81" on="1"/>
        <pt x="126" y="0" on="1"/>
      </contour>
      <contour>
        <pt x="210" y="0" on="1"/>
        <pt x="223" y="81" on="1"/>
        <pt x="292" y="81" on="1"/>
        <pt x="279" y="0" on="1"/>
      </contour>
      <contour>
        <pt x="364" y="0" on="1"/>
        <pt x="377" y="81" on="1"/>
        <pt x="446" y="81" on="1"/>
        <pt x="433" y="0" on="1"/>
      </contour>
    </TTGlyph>
    <TTGlyph name="equal" xMin="26" yMin="163" xMax="482" yMax="375">
      <contour>
        <pt x="33" y="207" on="1"/>
        <pt x="459" y="207" on="1"/>
        <pt x="452" y="163" on="1"/>
        <pt x="26" y="163" on="1"/>
      </contour>
      <contour>
        <pt x="56" y="375" on="1"/>
        <pt x="482" y="375" on="1"/>
        <pt x="475" y="331" on="1"/>
        <pt x="49" y="331" on="1"/>
      </contour>
    </TTGlyph>
    <TTGlyph name="exclam" xMin="143" yMin="-6" xMax="322" yMax="688">
      <contour>
        <pt x="322" y="688" on="1"/>
        <pt x="229" y="188" on="1"/>
        <pt x="183" y="188" on="1"/>
        <pt x="258" y="688" on="1"/>
      </contour>
      <contour>
        <pt x="143" y="-6" on="1"/>
        <pt x="156" y="80" on="1"/>
        <pt x="225" y="80" on="1"/>
        <pt x="212" y="-6" on="1"/>
      </contour>
    </TTGlyph>
    <TTGlyph name="exclamdown" xMin="158" yMin="-193" xMax="337" yMax="501">
      <contour>
        <pt x="158" y="-193" on="1"/>
        <pt x="251" y="307" on="1"/>
        <pt x="297" y="307" on="1"/>
        <pt x="222" y="-193" on="1"/>
      </contour>
      <contour>
        <pt x="337" y="501" on="1"/>
        <pt x="324" y="415" on="1"/>
        <pt x="255" y="415" on="1"/>
        <pt x="268" y="501" on="1"/>
      </contour>
    </TTGlyph>
    <TTGlyph name="f" xMin="60" yMin="-192" xMax="433" yMax="673">
      <contour>
        <pt x="164" y="425" on="1"/>
        <pt x="74" y="425" on="1"/>
        <pt x="82" y="475" on="1"/>
        <pt x="171" y="475" on="1"/>
        <pt x="193" y="673" on="0"/>
        <pt x="334" y="673" on="1"/>
        <pt x="380" y="673" on="0"/>
        <pt x="433" y="656" on="1"/>
        <pt x="415" y="605" on="1"/>
        <pt x="363" y="621" on="0"/>
        <pt x="330" y="621" on="1"/>
        <pt x="241" y="621" on="0"/>
        <pt x="224" y="475" on="1"/>
        <pt x="392" y="475" on="1"/>
        <pt x="384" y="425" on="1"/>
        <pt x="218" y="425" on="1"/>
        <pt x="191" y="188" on="0"/>
        <pt x="139" y="-120" on="0"/>
        <pt x="126" y="-156" on="1"/>
        <pt x="113" y="-192" on="1"/>
        <pt x="60" y="-192" on="1"/>
        <pt x="65" y="-182" on="0"/>
        <pt x="83" y="-124" on="0"/>
        <pt x="137" y="190" on="0"/>
      </contour>
    </TTGlyph>
    <TTGlyph name="fi" xMin="-12" yMin="-192" xMax="507" yMax="673">
      <contour>
        <pt x="10" y="475" on="1"/>
        <pt x="99" y="475" on="1"/>
        <pt x="109" y="573" on="0"/>
        <pt x="204" y="673" on="0"/>
        <pt x="284" y="673" on="1"/>
        <pt x="347" y="673" on="0"/>
        <pt x="404" y="658" on="1"/>
        <pt x="423" y="653" on="1"/>
        <pt x="408" y="604" on="1"/>
        <pt x="336" y="624" on="0"/>
        <pt x="221" y="624" on="0"/>
        <pt x="160" y="551" on="0"/>
        <pt x="152" y="475" on="1"/>
        <pt x="425" y="475" on="1"/>
        <pt x="385" y="162" on="1"/>
        <pt x="372" y="92" on="0"/>
        <pt x="384" y="42" on="0"/>
        <pt x="435" y="42" on="1"/>
        <pt x="459" y="42" on="0"/>
        <pt x="501" y="52" on="1"/>
        <pt x="507" y="2" on="1"/>
        <pt x="448" y="-10" on="0"/>
        <pt x="429" y="-10" on="1"/>
        <pt x="370" y="-10" on="0"/>
        <pt x="322" y="27" on="0"/>
        <pt x="324" y="103" on="0"/>
        <pt x="331" y="160" on="1"/>
        <pt x="365" y="425" on="1"/>
        <pt x="146" y="425" on="1"/>
        <pt x="119" y="188" on="0"/>
        <pt x="67" y="-120" on="0"/>
        <pt x="54" y="-156" on="1"/>
        <pt x="41" y="-192" on="1"/>
        <pt x="-12" y="-192" on="1"/>
        <pt x="-7" y="-182" on="0"/>
        <pt x="11" y="-124" on="0"/>
        <pt x="65" y="190" on="0"/>
        <pt x="92" y="425" on="1"/>
        <pt x="3" y="425" on="1"/>
      </contour>
    </TTGlyph>
    <TTGlyph name="five" xMin="27" yMin="-10" xMax="458" yMax="634">
      <contour>
        <pt x="354" y="405" on="0"/>
        <pt x="434" y="300" on="0"/>
        <pt x="407" y="107" on="0"/>
        <pt x="289" y="-10" on="0"/>
        <pt x="194" y="-10" on="1"/>
        <pt x="121" y="-10" on="0"/>
        <pt x="27" y="32" on="1"/>
        <pt x="52" y="83" on="1"/>
        <pt x="136" y="42" on="0"/>
        <pt x="269" y="42" on="0"/>
        <pt x="356" y="133" on="0"/>
        <pt x="375" y="277" on="0"/>
        <pt x="318" y="353" on="0"/>
        <pt x="194" y="353" on="0"/>
        <pt x="120" y="295" on="1"/>
        <pt x="84" y="306" on="1"/>
        <pt x="138" y="634" on="1"/>
        <pt x="458" y="634" on="1"/>
        <pt x="448" y="581" on="1"/>
        <pt x="180" y="581" on="1"/>
        <pt x="145" y="362" on="1"/>
        <pt x="209" y="405" on="0"/>
        <pt x="268" y="405" on="1"/>
      </contour>
    </TTGlyph>
    <TTGlyph name="fl" xMin="-22" yMin="-192" xMax="546" yMax="673">
      <contour>
        <pt x="312" y="475" on="1"/>
        <pt x="304" y="425" on="1"/>
        <pt x="136" y="425" on="1"/>
        <pt x="109" y="188" on="0"/>
        <pt x="57" y="-120" on="0"/>
        <pt x="44" y="-156" on="1"/>
        <pt x="31" y="-192" on="1"/>
        <pt x="-22" y="-192" on="1"/>
        <pt x="-17" y="-182" on="0"/>
        <pt x="1" y="-124" on="0"/>
        <pt x="55" y="190" on="0"/>
        <pt x="82" y="425" on="1"/>
        <pt x="-7" y="425" on="1"/>
        <pt x="0" y="475" on="1"/>
        <pt x="89" y="475" on="1"/>
        <pt x="99" y="573" on="0"/>
        <pt x="194" y="673" on="0"/>
        <pt x="274" y="673" on="1"/>
        <pt x="460" y="673" on="1"/>
        <pt x="395" y="161" on="1"/>
        <pt x="382" y="91" on="0"/>
        <pt x="395" y="41" on="0"/>
        <pt x="483" y="41" on="0"/>
        <pt x="540" y="61" on="1"/>
        <pt x="546" y="10" on="1"/>
        <pt x="488" y="-11" on="0"/>
        <pt x="380" y="-11" on="0"/>
        <pt x="331" y="26" on="0"/>
        <pt x="333" y="102" on="0"/>
        <pt x="341" y="159" on="1"/>
        <pt x="400" y="624" on="1"/>
        <pt x="271" y="624" on="1"/>
        <pt x="211" y="624" on="0"/>
        <pt x="150" y="551" on="0"/>
        <pt x="142" y="475" on="1"/>
      </contour>
    </TTGlyph>
    <TTGlyph name="four" xMin="48" yMin="-10" xMax="441" yMax="634">
      <contour>
        <pt x="441" y="179" on="1"/>
        <pt x="433" y="127" on="1"/>
        <pt x="350" y="127" on="1"/>
        <pt x="327" y="-10" on="1"/>
        <pt x="275" y="-10" on="1"/>
        <pt x="297" y="127" on="1"/>
        <pt x="48" y="127" on="1"/>
        <pt x="48" y="174" on="1"/>
        <pt x="277" y="634" on="1"/>
        <pt x="331" y="634" on="1"/>
        <pt x="107" y="179" on="1"/>
        <pt x="306" y="179" on="1"/>
        <pt x="340" y="389" on="1"/>
        <pt x="393" y="389" on="1"/>
        <pt x="359" y="179" on="1"/>
      </contour>
    </TTGlyph>
    <TTGlyph name="g" xMin="15" yMin="-200" xMax="463" yMax="481">
      <contour>
        <pt x="329" y="-24" on="1"/>
        <pt x="339" y="39" on="1"/>
        <pt x="273" y="1" on="0"/>
        <pt x="222" y="1" on="1"/>
        <pt x="137" y="1" on="0"/>
        <pt x="98" y="62" on="1"/>
        <pt x="58" y="124" on="0"/>
        <pt x="86" y="352" on="0"/>
        <pt x="203" y="481" on="0"/>
        <pt x="295" y="481" on="1"/>
        <pt x="347" y="481" on="0"/>
        <pt x="406" y="446" on="1"/>
        <pt x="411" y="475" on="1"/>
        <pt x="463" y="475" on="1"/>
        <pt x="382" y="-23" on="1"/>
        <pt x="372" y="-112" on="0"/>
        <pt x="257" y="-200" on="0"/>
        <pt x="107" y="-200" on="0"/>
        <pt x="15" y="-160" on="1"/>
        <pt x="38" y="-110" on="1"/>
        <pt x="126" y="-148" on="0"/>
        <pt x="238" y="-148" on="0"/>
        <pt x="320" y="-88" on="0"/>
      </contour>
      <contour>
        <pt x="348" y="97" on="1"/>
        <pt x="397" y="390" on="1"/>
        <pt x="342" y="429" on="0"/>
        <pt x="291" y="429" on="1"/>
        <pt x="224" y="429" on="0"/>
        <pt x="180" y="378" on="1"/>
        <pt x="136" y="326" on="0"/>
        <pt x="116" y="150" on="0"/>
        <pt x="170" y="53" on="0"/>
        <pt x="284" y="53" on="0"/>
      </contour>
    </TTGlyph>
    <TTGlyph name="grave" xMin="148" yMin="576" xMax="337" yMax="717">
      <contour>
        <pt x="175" y="717" on="1"/>
        <pt x="337" y="619" on="1"/>
        <pt x="312" y="576" on="1"/>
        <pt x="148" y="668" on="1"/>
      </contour>
    </TTGlyph>
    <TTGlyph name="greater" xMin="45" yMin="41" xMax="460" yMax="553">
      <contour>
        <pt x="45" y="82" on="1"/>
        <pt x="400" y="292" on="1"/>
        <pt x="103" y="512" on="1"/>
        <pt x="134" y="553" on="1"/>
        <pt x="460" y="308" on="1"/>
        <pt x="456" y="276" on="1"/>
        <pt x="65" y="41" on="1"/>
      </contour>
    </TTGlyph>
    <TTGlyph name="greaterequal" xMin="35" yMin="29" xMax="464" yMax="525">
      <contour>
        <pt x="399" y="345" on="1"/>
        <pt x="35" y="484" on="1"/>
        <pt x="53" y="525" on="1"/>
        <pt x="464" y="364" on="1"/>
        <pt x="464" y="325" on="1"/>
        <pt x="53" y="155" on="1"/>
        <pt x="35" y="196" on="1"/>
      </contour>
      <contour>
        <pt x="69" y="33" on="1"/>
        <pt x="76" y="68" on="1"/>
        <pt x="359" y="68" on="1"/>
        <pt x="429" y="63" on="1"/>
        <pt x="422" y="29" on="1"/>
        <pt x="139" y="29" on="1"/>
      </contour>
    </TTGlyph>
    <TTGlyph name="guillemotleft" xMin="112" yMin="25" xMax="490" yMax="416">
      <contour>
        <pt x="278" y="25" on="1"/>
        <pt x="112" y="196" on="1"/>
        <pt x="118" y="245" on="1"/>
        <pt x="339" y="416" on="1"/>
        <pt x="328" y="346" on="1"/>
        <pt x="162" y="217" on="1"/>
        <pt x="288" y="89" on="1"/>
      </contour>
      <contour>
        <pt x="432" y="47" on="1"/>
        <pt x="265" y="208" on="1"/>
        <pt x="271" y="253" on="1"/>
        <pt x="490" y="414" on="1"/>
        <pt x="479" y="344" on="1"/>
        <pt x="315" y="227" on="1"/>
        <pt x="443" y="111" on="1"/>
      </contour>
    </TTGlyph>
    <TTGlyph name="guillemotright" xMin="81" yMin="40" xMax="461" yMax="434">
      <contour>
        <pt x="296" y="434" on="1"/>
        <pt x="461" y="263" on="1"/>
        <pt x="454" y="211" on="1"/>
        <pt x="234" y="40" on="1"/>
        <pt x="245" y="112" on="1"/>
        <pt x="410" y="239" on="1"/>
        <pt x="285" y="369" on="1"/>
      </contour>
      <contour>
        <pt x="140" y="412" on="1"/>
        <pt x="307" y="251" on="1"/>
        <pt x="300" y="203" on="1"/>
        <pt x="81" y="42" on="1"/>
        <pt x="93" y="114" on="1"/>
        <pt x="256" y="229" on="1"/>
        <pt x="129" y="347" on="1"/>
      </contour>
    </TTGlyph>
    <TTGlyph name="guilsinglleft" xMin="139" yMin="39" xMax="365" yMax="420">
      <contour>
        <pt x="305" y="39" on="1"/>
        <pt x="139" y="206" on="1"/>
        <pt x="145" y="253" on="1"/>
        <pt x="365" y="420" on="1"/>
        <pt x="355" y="352" on="1"/>
        <pt x="189" y="230" on="1"/>
        <pt x="315" y="103" on="1"/>
      </contour>
    </TTGlyph>
    <TTGlyph name="guilsinglright" xMin="133" yMin="36" xMax="359" yMax="417">
      <contour>
        <pt x="193" y="417" on="1"/>
        <pt x="359" y="250" on="1"/>
        <pt x="353" y="203" on="1"/>
        <pt x="133" y="36" on="1"/>
        <pt x="143" y="103" on="1"/>
        <pt x="308" y="226" on="1"/>
        <pt x="183" y="352" on="1"/>
      </contour>
    </TTGlyph>
    <TTGlyph name="h" xMin="45" yMin="0" xMax="437" yMax="665">
      <contour>
        <pt x="161" y="388" on="1"/>
        <pt x="97" y="0" on="1"/>
        <pt x="45" y="0" on="1"/>
        <pt x="154" y="665" on="1"/>
        <pt x="206" y="665" on="1"/>
        <pt x="169" y="439" on="1"/>
        <pt x="263" y="481" on="0"/>
        <pt x="389" y="481" on="0"/>
        <pt x="446" y="395" on="0"/>
        <pt x="437" y="317" on="1"/>
        <pt x="382" y="0" on="1"/>
        <pt x="332" y="0" on="1"/>
        <pt x="387" y="317" on="1"/>
        <pt x="393" y="368" on="0"/>
        <pt x="358" y="429" on="0"/>
        <pt x="254" y="429" on="0"/>
      </contour>
    </TTGlyph>
    <TTGlyph name="hyphen" xMin="95" yMin="213" xMax="390" yMax="265">
      <contour>
        <pt x="104" y="265" on="1"/>
        <pt x="390" y="265" on="1"/>
        <pt x="381" y="213" on="1"/>
        <pt x="95" y="213" on="1"/>
      </contour>
    </TTGlyph>
    <TTGlyph name="i" xMin="113" yMin="-10" xMax="365" yMax="658">
      <contour>
        <pt x="231" y="616" on="1"/>
        <pt x="235" y="658" on="0"/>
        <pt x="280" y="658" on="1"/>
        <pt x="297" y="658" on="0"/>
        <pt x="319" y="638" on="0"/>
        <pt x="317" y="616" on="1"/>
        <pt x="311" y="571" on="0"/>
        <pt x="269" y="571" on="1"/>
        <pt x="253" y="571" on="0"/>
        <pt x="229" y="594" on="0"/>
      </contour>
      <contour>
        <pt x="365" y="2" on="1"/>
        <pt x="359" y="52" on="1"/>
        <pt x="317" y="42" on="0"/>
        <pt x="293" y="42" on="1"/>
        <pt x="242" y="42" on="0"/>
        <pt x="230" y="92" on="0"/>
        <pt x="243" y="162" on="1"/>
        <pt x="293" y="475" on="1"/>
        <pt x="121" y="475" on="1"/>
        <pt x="113" y="425" on="1"/>
        <pt x="233" y="425" on="1"/>
        <pt x="189" y="160" on="1"/>
        <pt x="182" y="103" on="0"/>
        <pt x="180" y="27" on="0"/>
        <pt x="228" y="-10" on="0"/>
        <pt x="287" y="-10" on="1"/>
      </contour>
    </TTGlyph>
    <TTGlyph name="iacute" xMin="113" yMin="-10" xMax="365" yMax="720">
      <contour>
        <pt x="365" y="2" on="1"/>
        <pt x="359" y="52" on="1"/>
        <pt x="317" y="42" on="0"/>
        <pt x="293" y="42" on="1"/>
        <pt x="242" y="42" on="0"/>
        <pt x="230" y="92" on="0"/>
        <pt x="243" y="162" on="1"/>
        <pt x="293" y="475" on="1"/>
        <pt x="121" y="475" on="1"/>
        <pt x="113" y="425" on="1"/>
        <pt x="233" y="425" on="1"/>
        <pt x="189" y="160" on="1"/>
        <pt x="182" y="103" on="0"/>
        <pt x="180" y="27" on="0"/>
        <pt x="228" y="-10" on="0"/>
        <pt x="287" y="-10" on="1"/>
      </contour>
      <contour>
        <pt x="153" y="622" on="1"/>
        <pt x="317" y="720" on="1"/>
        <pt x="335" y="666" on="1"/>
        <pt x="170" y="574" on="1"/>
      </contour>
    </TTGlyph>
    <TTGlyph name="icircumflex" xMin="85" yMin="-10" xMax="385" yMax="749">
      <contour>
        <pt x="365" y="2" on="1"/>
        <pt x="359" y="52" on="1"/>
        <pt x="317" y="42" on="0"/>
        <pt x="293" y="42" on="1"/>
        <pt x="242" y="42" on="0"/>
        <pt x="230" y="92" on="0"/>
        <pt x="243" y="162" on="1"/>
        <pt x="293" y="475" on="1"/>
        <pt x="121" y="475" on="1"/>
        <pt x="113" y="425" on="1"/>
        <pt x="233" y="425" on="1"/>
        <pt x="189" y="160" on="1"/>
        <pt x="182" y="103" on="0"/>
        <pt x="180" y="27" on="0"/>
        <pt x="228" y="-10" on="0"/>
        <pt x="287" y="-10" on="1"/>
      </contour>
      <contour>
        <pt x="85" y="587" on="1"/>
        <pt x="238" y="749" on="1"/>
        <pt x="283" y="749" on="1"/>
        <pt x="385" y="587" on="1"/>
        <pt x="327" y="587" on="1"/>
        <pt x="253" y="709" on="1"/>
        <pt x="142" y="587" on="1"/>
      </contour>
    </TTGlyph>
    <TTGlyph name="idieresis" xMin="107" yMin="-10" xMax="374" yMax="684">
      <contour>
        <pt x="365" y="2" on="1"/>
        <pt x="359" y="52" on="1"/>
        <pt x="317" y="42" on="0"/>
        <pt x="293" y="42" on="1"/>
        <pt x="242" y="42" on="0"/>
        <pt x="230" y="92" on="0"/>
        <pt x="243" y="162" on="1"/>
        <pt x="293" y="475" on="1"/>
        <pt x="121" y="475" on="1"/>
        <pt x="113" y="425" on="1"/>
        <pt x="233" y="425" on="1"/>
        <pt x="189" y="160" on="1"/>
        <pt x="182" y="103" on="0"/>
        <pt x="180" y="27" on="0"/>
        <pt x="228" y="-10" on="0"/>
        <pt x="287" y="-10" on="1"/>
      </contour>
      <contour>
        <pt x="138" y="610" on="1"/>
        <pt x="107" y="610" on="0"/>
        <pt x="107" y="644" on="1"/>
        <pt x="107" y="660" on="0"/>
        <pt x="131" y="684" on="0"/>
        <pt x="164" y="684" on="0"/>
        <pt x="180" y="666" on="0"/>
        <pt x="180" y="635" on="0"/>
        <pt x="156" y="610" on="0"/>
      </contour>
      <contour>
        <pt x="317" y="610" on="0"/>
        <pt x="300" y="628" on="0"/>
        <pt x="300" y="659" on="0"/>
        <pt x="325" y="684" on="0"/>
        <pt x="357" y="684" on="0"/>
        <pt x="374" y="666" on="0"/>
        <pt x="374" y="635" on="0"/>
        <pt x="349" y="610" on="0"/>
      </contour>
    </TTGlyph>
    <TTGlyph name="igrave" xMin="113" yMin="-10" xMax="365" yMax="717">
      <contour>
        <pt x="365" y="2" on="1"/>
        <pt x="359" y="52" on="1"/>
        <pt x="317" y="42" on="0"/>
        <pt x="293" y="42" on="1"/>
        <pt x="242" y="42" on="0"/>
        <pt x="230" y="92" on="0"/>
        <pt x="243" y="162" on="1"/>
        <pt x="293" y="475" on="1"/>
        <pt x="121" y="475" on="1"/>
        <pt x="113" y="425" on="1"/>
        <pt x="233" y="425" on="1"/>
        <pt x="189" y="160" on="1"/>
        <pt x="182" y="103" on="0"/>
        <pt x="180" y="27" on="0"/>
        <pt x="228" y="-10" on="0"/>
        <pt x="287" y="-10" on="1"/>
      </contour>
      <contour>
        <pt x="172" y="717" on="1"/>
        <pt x="334" y="619" on="1"/>
        <pt x="309" y="576" on="1"/>
        <pt x="145" y="668" on="1"/>
      </contour>
    </TTGlyph>
    <TTGlyph name="j" xMin="67" yMin="-188" xMax="392" yMax="658">
      <contour>
        <pt x="371" y="475" on="1"/>
        <pt x="293" y="-10" on="1"/>
        <pt x="280" y="-88" on="0"/>
        <pt x="245" y="-128" on="1"/>
        <pt x="216" y="-161" on="0"/>
        <pt x="143" y="-176" on="1"/>
        <pt x="114" y="-182" on="0"/>
        <pt x="67" y="-188" on="1"/>
        <pt x="67" y="-141" on="1"/>
        <pt x="156" y="-129" on="0"/>
        <pt x="228" y="-74" on="0"/>
        <pt x="239" y="-9" on="1"/>
        <pt x="311" y="425" on="1"/>
        <pt x="182" y="425" on="1"/>
        <pt x="190" y="475" on="1"/>
      </contour>
      <contour>
        <pt x="306" y="616" on="1"/>
        <pt x="310" y="658" on="0"/>
        <pt x="355" y="658" on="1"/>
        <pt x="372" y="658" on="0"/>
        <pt x="394" y="638" on="0"/>
        <pt x="392" y="616" on="1"/>
        <pt x="386" y="571" on="0"/>
        <pt x="344" y="571" on="1"/>
        <pt x="328" y="571" on="0"/>
        <pt x="304" y="594" on="0"/>
      </contour>
    </TTGlyph>
    <TTGlyph name="k" xMin="57" yMin="0" xMax="431" yMax="665">
      <contour>
        <pt x="374" y="475" on="1"/>
        <pt x="431" y="475" on="1"/>
        <pt x="349" y="357" on="0"/>
        <pt x="255" y="253" on="1"/>
        <pt x="326" y="122" on="0"/>
        <pt x="385" y="0" on="1"/>
        <pt x="325" y="0" on="1"/>
        <pt x="257" y="142" on="0"/>
        <pt x="213" y="221" on="1"/>
        <pt x="144" y="212" on="1"/>
        <pt x="109" y="0" on="1"/>
        <pt x="57" y="0" on="1"/>
        <pt x="166" y="665" on="1"/>
        <pt x="218" y="665" on="1"/>
        <pt x="152" y="260" on="1"/>
        <pt x="214" y="270" on="1"/>
        <pt x="292" y="363" on="0"/>
      </contour>
    </TTGlyph>
    <TTGlyph name="l" xMin="138" yMin="-10" xMax="397" yMax="665">
      <contour>
        <pt x="193" y="160" on="1"/>
        <pt x="267" y="615" on="1"/>
        <pt x="138" y="615" on="1"/>
        <pt x="145" y="665" on="1"/>
        <pt x="327" y="665" on="1"/>
        <pt x="245" y="162" on="1"/>
        <pt x="232" y="92" on="0"/>
        <pt x="244" y="42" on="0"/>
        <pt x="336" y="42" on="0"/>
        <pt x="391" y="61" on="1"/>
        <pt x="397" y="11" on="1"/>
        <pt x="338" y="-10" on="0"/>
        <pt x="230" y="-10" on="0"/>
        <pt x="182" y="27" on="0"/>
        <pt x="184" y="103" on="0"/>
      </contour>
    </TTGlyph>
    <TTGlyph name="less" xMin="48" yMin="31" xMax="464" yMax="543">
      <contour>
        <pt x="464" y="502" on="1"/>
        <pt x="107" y="292" on="1"/>
        <pt x="405" y="72" on="1"/>
        <pt x="375" y="31" on="1"/>
        <pt x="48" y="276" on="1"/>
        <pt x="52" y="308" on="1"/>
        <pt x="443" y="543" on="1"/>
      </contour>
    </TTGlyph>
    <TTGlyph name="lessequal" xMin="34" yMin="29" xMax="463" yMax="525">
      <contour>
        <pt x="463" y="484" on="1"/>
        <pt x="99" y="345" on="1"/>
        <pt x="463" y="196" on="1"/>
        <pt x="445" y="155" on="1"/>
        <pt x="34" y="325" on="1"/>
        <pt x="34" y="364" on="1"/>
        <pt x="445" y="525" on="1"/>
      </contour>
      <contour>
        <pt x="76" y="29" on="1"/>
        <pt x="378" y="29" on="1"/>
        <pt x="429" y="33" on="1"/>
        <pt x="422" y="68" on="1"/>
        <pt x="120" y="68" on="1"/>
        <pt x="69" y="63" on="1"/>
      </contour>
    </TTGlyph>
    <TTGlyph name="m" xMin="-9" yMin="0" xMax="465" yMax="481">
      <contour>
        <pt x="119" y="475" on="1"/>
        <pt x="119" y="445" on="1"/>
        <pt x="171" y="481" on="0"/>
        <pt x="204" y="481" on="1"/>
        <pt x="259" y="481" on="0"/>
        <pt x="278" y="438" on="1"/>
        <pt x="336" y="481" on="0"/>
        <pt x="376" y="481" on="1"/>
        <pt x="441" y="481" on="0"/>
        <pt x="476" y="402" on="0"/>
        <pt x="465" y="318" on="1"/>
        <pt x="414" y="0" on="1"/>
        <pt x="361" y="0" on="1"/>
        <pt x="414" y="318" on="1"/>
        <pt x="424" y="366" on="0"/>
        <pt x="405" y="431" on="0"/>
        <pt x="367" y="431" on="1"/>
        <pt x="341" y="431" on="0"/>
        <pt x="289" y="398" on="1"/>
        <pt x="291" y="360" on="0"/>
        <pt x="285" y="318" on="1"/>
        <pt x="258" y="152" on="1"/>
        <pt x="205" y="152" on="1"/>
        <pt x="232" y="318" on="1"/>
        <pt x="255" y="429" on="0"/>
        <pt x="188" y="429" on="1"/>
        <pt x="153" y="429" on="0"/>
        <pt x="109" y="397" on="1"/>
        <pt x="43" y="0" on="1"/>
        <pt x="-9" y="0" on="1"/>
        <pt x="69" y="475" on="1"/>
      </contour>
    </TTGlyph>
    <TTGlyph name="mu" xMin="14" yMin="-192" xMax="488" yMax="475">
      <contour>
        <pt x="57" y="-49" on="1"/>
        <pt x="138" y="475" on="1"/>
        <pt x="193" y="475" on="1"/>
        <pt x="142" y="154" on="1"/>
        <pt x="134" y="100" on="0"/>
        <pt x="167" y="39" on="0"/>
        <pt x="295" y="39" on="0"/>
        <pt x="375" y="105" on="1"/>
        <pt x="435" y="475" on="1"/>
        <pt x="488" y="475" on="1"/>
        <pt x="413" y="0" on="1"/>
        <pt x="362" y="0" on="1"/>
        <pt x="367" y="46" on="1"/>
        <pt x="336" y="20" on="0"/>
        <pt x="253" y="-10" on="0"/>
        <pt x="216" y="-10" on="1"/>
        <pt x="142" y="-10" on="0"/>
        <pt x="119" y="33" on="1"/>
        <pt x="108" y="-52" on="1"/>
        <pt x="94" y="-138" on="0"/>
        <pt x="53" y="-192" on="1"/>
        <pt x="14" y="-173" on="1"/>
        <pt x="37" y="-132" on="0"/>
        <pt x="52" y="-80" on="0"/>
      </contour>
    </TTGlyph>
    <TTGlyph name="n" xMin="49" yMin="0" xMax="442" yMax="481">
      <contour>
        <pt x="175" y="475" on="1"/>
        <pt x="173" y="435" on="1"/>
        <pt x="271" y="481" on="0"/>
        <pt x="393" y="481" on="0"/>
        <pt x="451" y="393" on="0"/>
        <pt x="442" y="317" on="1"/>
        <pt x="392" y="0" on="1"/>
        <pt x="339" y="0" on="1"/>
        <pt x="392" y="317" on="1"/>
        <pt x="398" y="366" on="0"/>
        <pt x="380" y="398" on="1"/>
        <pt x="362" y="429" on="0"/>
        <pt x="266" y="429" on="0"/>
        <pt x="165" y="385" on="1"/>
        <pt x="101" y="0" on="1"/>
        <pt x="49" y="0" on="1"/>
        <pt x="127" y="475" on="1"/>
      </contour>
    </TTGlyph>
    <TTGlyph name="nine" xMin="83" yMin="-17" xMax="475" yMax="643">
      <contour>
        <pt x="154" y="239" on="0"/>
        <pt x="68" y="342" on="0"/>
        <pt x="98" y="529" on="0"/>
        <pt x="223" y="643" on="0"/>
        <pt x="405" y="643" on="0"/>
        <pt x="490" y="533" on="0"/>
        <pt x="460" y="344" on="0"/>
        <pt x="381" y="186" on="0"/>
        <pt x="278" y="64" on="0"/>
        <pt x="192" y="-17" on="1"/>
        <pt x="127" y="-6" on="1"/>
        <pt x="241" y="100" on="0"/>
        <pt x="343" y="223" on="0"/>
        <pt x="376" y="295" on="1"/>
        <pt x="343" y="267" on="0"/>
        <pt x="286" y="239" on="0"/>
        <pt x="247" y="239" on="1"/>
      </contour>
      <contour>
        <pt x="239" y="591" on="0"/>
        <pt x="152" y="507" on="0"/>
        <pt x="129" y="364" on="0"/>
        <pt x="183" y="291" on="0"/>
        <pt x="314" y="291" on="0"/>
        <pt x="406" y="373" on="0"/>
        <pt x="416" y="435" on="1"/>
        <pt x="440" y="591" on="0"/>
        <pt x="304" y="591" on="1"/>
      </contour>
    </TTGlyph>
    <TTGlyph name="notequal" xMin="51" yMin="29" xMax="542" yMax="510">
      <contour>
        <pt x="214" y="221" on="1"/>
        <pt x="232" y="240" on="0"/>
        <pt x="272" y="278" on="1"/>
        <pt x="508" y="510" on="1"/>
        <pt x="538" y="479" on="1"/>
        <pt x="441" y="382" on="1"/>
        <pt x="409" y="356" on="1"/>
        <pt x="410" y="356" on="1"/>
        <pt x="367" y="311" on="1"/>
        <pt x="265" y="210" on="1"/>
        <pt x="266" y="210" on="1"/>
        <pt x="83" y="29" on="1"/>
        <pt x="51" y="60" on="1"/>
        <pt x="149" y="156" on="1"/>
        <pt x="177" y="180" on="1"/>
        <pt x="177" y="180" on="0"/>
        <pt x="176" y="180" on="1"/>
        <pt x="174" y="179" on="1"/>
      </contour>
      <contour>
        <pt x="63" y="213" on="1"/>
        <pt x="513" y="213" on="1"/>
        <pt x="505" y="169" on="1"/>
        <pt x="55" y="169" on="1"/>
      </contour>
      <contour>
        <pt x="92" y="381" on="1"/>
        <pt x="542" y="381" on="1"/>
        <pt x="534" y="337" on="1"/>
        <pt x="84" y="337" on="1"/>
      </contour>
    </TTGlyph>
    <TTGlyph name="ntilde" xMin="49" yMin="0" xMax="461" yMax="707">
      <contour>
        <pt x="175" y="475" on="1"/>
        <pt x="173" y="435" on="1"/>
        <pt x="271" y="481" on="0"/>
        <pt x="393" y="481" on="0"/>
        <pt x="451" y="393" on="0"/>
        <pt x="442" y="317" on="1"/>
        <pt x="392" y="0" on="1"/>
        <pt x="339" y="0" on="1"/>
        <pt x="392" y="317" on="1"/>
        <pt x="398" y="366" on="0"/>
        <pt x="380" y="398" on="1"/>
        <pt x="362" y="429" on="0"/>
        <pt x="266" y="429" on="0"/>
        <pt x="165" y="385" on="1"/>
        <pt x="101" y="0" on="1"/>
        <pt x="49" y="0" on="1"/>
        <pt x="127" y="475" on="1"/>
      </contour>
      <contour>
        <pt x="441" y="694" on="1"/>
        <pt x="461" y="661" on="1"/>
        <pt x="400" y="606" on="0"/>
        <pt x="334" y="606" on="0"/>
        <pt x="268" y="660" on="0"/>
        <pt x="224" y="660" on="0"/>
        <pt x="173" y="619" on="1"/>
        <pt x="150" y="653" on="1"/>
        <pt x="216" y="707" on="0"/>
        <pt x="288" y="707" on="0"/>
        <pt x="356" y="654" on="0"/>
        <pt x="392" y="654" on="0"/>
      </contour>
    </TTGlyph>
    <TTGlyph name="numbersign" xMin="-43" yMin="0" xMax="546" yMax="655">
      <contour>
        <pt x="298" y="236" on="1"/>
        <pt x="350" y="438" on="1"/>
        <pt x="206" y="438" on="1"/>
        <pt x="154" y="236" on="1"/>
      </contour>
      <contour>
        <pt x="479" y="192" on="1"/>
        <pt x="338" y="192" on="1"/>
        <pt x="287" y="0" on="1"/>
        <pt x="234" y="0" on="1"/>
        <pt x="286" y="192" on="1"/>
        <pt x="142" y="192" on="1"/>
        <pt x="90" y="0" on="1"/>
        <pt x="38" y="0" on="1"/>
        <pt x="90" y="192" on="1"/>
        <pt x="-43" y="192" on="1"/>
        <pt x="-36" y="236" on="1"/>
        <pt x="102" y="236" on="1"/>
        <pt x="154" y="438" on="1"/>
        <pt x="16" y="438" on="1"/>
        <pt x="23" y="481" on="1"/>
        <pt x="165" y="481" on="1"/>
        <pt x="211" y="655" on="1"/>
        <pt x="263" y="655" on="1"/>
        <pt x="217" y="481" on="1"/>
        <pt x="362" y="481" on="1"/>
        <pt x="407" y="655" on="1"/>
        <pt x="459" y="655" on="1"/>
        <pt x="414" y="481" on="1"/>
        <pt x="546" y="481" on="1"/>
        <pt x="539" y="438" on="1"/>
        <pt x="402" y="438" on="1"/>
        <pt x="350" y="236" on="1"/>
        <pt x="486" y="236" on="1"/>
      </contour>
    </TTGlyph>
    <TTGlyph name="o" xMin="67" yMin="-10" xMax="437" yMax="481">
      <contour>
        <pt x="227" y="-10" on="1"/>
        <pt x="41" y="-12" on="0"/>
        <pt x="67" y="234" on="1"/>
        <pt x="102" y="481" on="0"/>
        <pt x="277" y="481" on="1"/>
        <pt x="368" y="482" on="0"/>
        <pt x="450" y="360" on="0"/>
        <pt x="437" y="237" on="1"/>
        <pt x="402" y="-10" on="0"/>
      </contour>
      <contour>
        <pt x="399" y="328" on="0"/>
        <pt x="342" y="430" on="0"/>
        <pt x="210" y="431" on="0"/>
        <pt x="136" y="330" on="0"/>
        <pt x="105" y="143" on="0"/>
        <pt x="163" y="41" on="0"/>
        <pt x="230" y="42" on="1"/>
        <pt x="352" y="42" on="0"/>
        <pt x="384" y="236" on="1"/>
      </contour>
    </TTGlyph>
    <TTGlyph name="oacute" xMin="67" yMin="-10" xMax="437" yMax="720">
      <contour>
        <pt x="227" y="-10" on="1"/>
        <pt x="41" y="-12" on="0"/>
        <pt x="67" y="234" on="1"/>
        <pt x="102" y="481" on="0"/>
        <pt x="277" y="481" on="1"/>
        <pt x="368" y="482" on="0"/>
        <pt x="450" y="360" on="0"/>
        <pt x="437" y="237" on="1"/>
        <pt x="402" y="-10" on="0"/>
      </contour>
      <contour>
        <pt x="399" y="328" on="0"/>
        <pt x="342" y="430" on="0"/>
        <pt x="210" y="431" on="0"/>
        <pt x="136" y="330" on="0"/>
        <pt x="105" y="143" on="0"/>
        <pt x="163" y="41" on="0"/>
        <pt x="230" y="42" on="1"/>
        <pt x="352" y="42" on="0"/>
        <pt x="384" y="236" on="1"/>
      </contour>
      <contour>
        <pt x="203" y="622" on="1"/>
        <pt x="367" y="720" on="1"/>
        <pt x="385" y="666" on="1"/>
        <pt x="220" y="574" on="1"/>
      </contour>
    </TTGlyph>
    <TTGlyph name="ocircumflex" xMin="67" yMin="-10" xMax="445" yMax="749">
      <contour>
        <pt x="227" y="-10" on="1"/>
        <pt x="41" y="-12" on="0"/>
        <pt x="67" y="234" on="1"/>
        <pt x="102" y="481" on="0"/>
        <pt x="277" y="481" on="1"/>
        <pt x="368" y="482" on="0"/>
        <pt x="450" y="360" on="0"/>
        <pt x="437" y="237" on="1"/>
        <pt x="402" y="-10" on="0"/>
      </contour>
      <contour>
        <pt x="399" y="328" on="0"/>
        <pt x="342" y="430" on="0"/>
        <pt x="210" y="431" on="0"/>
        <pt x="136" y="330" on="0"/>
        <pt x="105" y="143" on="0"/>
        <pt x="163" y="41" on="0"/>
        <pt x="230" y="42" on="1"/>
        <pt x="352" y="42" on="0"/>
        <pt x="384" y="236" on="1"/>
      </contour>
      <contour>
        <pt x="145" y="587" on="1"/>
        <pt x="298" y="749" on="1"/>
        <pt x="343" y="749" on="1"/>
        <pt x="445" y="587" on="1"/>
        <pt x="387" y="587" on="1"/>
        <pt x="313" y="709" on="1"/>
        <pt x="202" y="587" on="1"/>
      </contour>
    </TTGlyph>
    <TTGlyph name="odieresis" xMin="67" yMin="-10" xMax="444" yMax="684">
      <contour>
        <pt x="227" y="-10" on="1"/>
        <pt x="41" y="-12" on="0"/>
        <pt x="67" y="234" on="1"/>
        <pt x="102" y="481" on="0"/>
        <pt x="277" y="481" on="1"/>
        <pt x="368" y="482" on="0"/>
        <pt x="450" y="360" on="0"/>
        <pt x="437" y="237" on="1"/>
        <pt x="402" y="-10" on="0"/>
      </contour>
      <contour>
        <pt x="399" y="328" on="0"/>
        <pt x="342" y="430" on="0"/>
        <pt x="210" y="431" on="0"/>
        <pt x="136" y="330" on="0"/>
        <pt x="105" y="143" on="0"/>
        <pt x="163" y="41" on="0"/>
        <pt x="230" y="42" on="1"/>
        <pt x="352" y="42" on="0"/>
        <pt x="384" y="236" on="1"/>
      </contour>
      <contour>
        <pt x="208" y="610" on="1"/>
        <pt x="177" y="610" on="0"/>
        <pt x="177" y="644" on="1"/>
        <pt x="177" y="660" on="0"/>
        <pt x="201" y="684" on="0"/>
        <pt x="234" y="684" on="0"/>
        <pt x="250" y="666" on="0"/>
        <pt x="250" y="635" on="0"/>
        <pt x="226" y="610" on="0"/>
      </contour>
      <contour>
        <pt x="387" y="610" on="0"/>
        <pt x="370" y="628" on="0"/>
        <pt x="370" y="659" on="0"/>
        <pt x="395" y="684" on="0"/>
        <pt x="427" y="684" on="0"/>
        <pt x="444" y="666" on="0"/>
        <pt x="444" y="635" on="0"/>
        <pt x="419" y="610" on="0"/>
      </contour>
    </TTGlyph>
    <TTGlyph name="oe" xMin="8" yMin="-10" xMax="488" yMax="481">
      <contour>
        <pt x="181" y="481" on="1"/>
        <pt x="206" y="481" on="0"/>
        <pt x="243" y="461" on="0"/>
        <pt x="260" y="436" on="0"/>
        <pt x="266" y="420" on="1"/>
        <pt x="272" y="401" on="0"/>
        <pt x="272" y="384" on="1"/>
        <pt x="272" y="384" on="0"/>
        <pt x="274" y="394" on="1"/>
        <pt x="276" y="400" on="0"/>
        <pt x="293" y="434" on="0"/>
        <pt x="316" y="460" on="0"/>
        <pt x="361" y="481" on="0"/>
        <pt x="388" y="481" on="1"/>
        <pt x="457" y="481" on="0"/>
        <pt x="503" y="374" on="0"/>
        <pt x="488" y="267" on="1"/>
        <pt x="477" y="217" on="1"/>
        <pt x="271" y="217" on="1"/>
        <pt x="258" y="43" on="0"/>
        <pt x="347" y="43" on="1"/>
        <pt x="380" y="44" on="0"/>
        <pt x="425" y="60" on="1"/>
        <pt x="440" y="65" on="1"/>
        <pt x="448" y="15" on="1"/>
        <pt x="385" y="-9" on="0"/>
        <pt x="312" y="-9" on="0"/>
        <pt x="270" y="11" on="0"/>
        <pt x="260" y="24" on="1"/>
        <pt x="248" y="38" on="0"/>
        <pt x="242" y="56" on="1"/>
        <pt x="234" y="79" on="0"/>
        <pt x="234" y="101" on="1"/>
        <pt x="233" y="94" on="0"/>
        <pt x="231" y="88" on="1"/>
        <pt x="226" y="73" on="1"/>
        <pt x="218" y="43" on="0"/>
        <pt x="192" y="19" on="1"/>
        <pt x="161" y="-10" on="0"/>
        <pt x="55" y="-10" on="0"/>
        <pt x="8" y="69" on="0"/>
        <pt x="8" y="228" on="0"/>
        <pt x="46" y="377" on="0"/>
        <pt x="128" y="481" on="0"/>
      </contour>
      <contour>
        <pt x="125" y="427" on="0"/>
        <pt x="60" y="246" on="0"/>
        <pt x="60" y="40" on="0"/>
        <pt x="119" y="40" on="1"/>
        <pt x="166" y="40" on="0"/>
        <pt x="228" y="225" on="0"/>
        <pt x="228" y="326" on="1"/>
        <pt x="228" y="377" on="0"/>
        <pt x="203" y="427" on="0"/>
        <pt x="172" y="427" on="1"/>
      </contour>
      <contour>
        <pt x="296" y="350" on="1"/>
        <pt x="288" y="324" on="0"/>
        <pt x="286" y="310" on="1"/>
        <pt x="279" y="267" on="1"/>
        <pt x="431" y="267" on="1"/>
        <pt x="444" y="344" on="0"/>
        <pt x="422" y="429" on="0"/>
        <pt x="341" y="429" on="0"/>
        <pt x="302" y="378" on="0"/>
      </contour>
    </TTGlyph>
    <TTGlyph name="ograve" xMin="67" yMin="-10" xMax="437" yMax="717">
      <contour>
        <pt x="227" y="-10" on="1"/>
        <pt x="41" y="-12" on="0"/>
        <pt x="67" y="234" on="1"/>
        <pt x="102" y="481" on="0"/>
        <pt x="277" y="481" on="1"/>
        <pt x="368" y="482" on="0"/>
        <pt x="450" y="360" on="0"/>
        <pt x="437" y="237" on="1"/>
        <pt x="402" y="-10" on="0"/>
      </contour>
      <contour>
        <pt x="399" y="328" on="0"/>
        <pt x="342" y="430" on="0"/>
        <pt x="210" y="431" on="0"/>
        <pt x="136" y="330" on="0"/>
        <pt x="105" y="143" on="0"/>
        <pt x="163" y="41" on="0"/>
        <pt x="230" y="42" on="1"/>
        <pt x="352" y="42" on="0"/>
        <pt x="384" y="236" on="1"/>
      </contour>
      <contour>
        <pt x="232" y="717" on="1"/>
        <pt x="394" y="619" on="1"/>
        <pt x="369" y="576" on="1"/>
        <pt x="205" y="668" on="1"/>
      </contour>
    </TTGlyph>
    <TTGlyph name="one" xMin="49" yMin="0" xMax="408" yMax="635">
      <contour>
        <pt x="400" y="0" on="1"/>
        <pt x="49" y="0" on="1"/>
        <pt x="57" y="50" on="1"/>
        <pt x="218" y="50" on="1"/>
        <pt x="304" y="576" on="1"/>
        <pt x="133" y="500" on="1"/>
        <pt x="122" y="548" on="1"/>
        <pt x="320" y="635" on="1"/>
        <pt x="370" y="635" on="1"/>
        <pt x="274" y="50" on="1"/>
        <pt x="408" y="50" on="1"/>
      </contour>
    </TTGlyph>
    <TTGlyph name="otilde" xMin="67" yMin="-10" xMax="460" yMax="707">
      <contour>
        <pt x="227" y="-10" on="1"/>
        <pt x="41" y="-12" on="0"/>
        <pt x="67" y="234" on="1"/>
        <pt x="102" y="481" on="0"/>
        <pt x="277" y="481" on="1"/>
        <pt x="368" y="482" on="0"/>
        <pt x="450" y="360" on="0"/>
        <pt x="437" y="237" on="1"/>
        <pt x="402" y="-10" on="0"/>
      </contour>
      <contour>
        <pt x="399" y="328" on="0"/>
        <pt x="342" y="430" on="0"/>
        <pt x="210" y="431" on="0"/>
        <pt x="136" y="330" on="0"/>
        <pt x="105" y="143" on="0"/>
        <pt x="163" y="41" on="0"/>
        <pt x="230" y="42" on="1"/>
        <pt x="352" y="42" on="0"/>
        <pt x="384" y="236" on="1"/>
      </contour>
      <contour>
        <pt x="440" y="694" on="1"/>
        <pt x="460" y="661" on="1"/>
        <pt x="399" y="606" on="0"/>
        <pt x="333" y="606" on="0"/>
        <pt x="267" y="660" on="0"/>
        <pt x="223" y="660" on="0"/>
        <pt x="172" y="619" on="1"/>
        <pt x="149" y="653" on="1"/>
        <pt x="214" y="707" on="0"/>
        <pt x="286" y="707" on="0"/>
        <pt x="354" y="654" on="0"/>
        <pt x="390" y="654" on="0"/>
      </contour>
    </TTGlyph>
    <TTGlyph name="p" xMin="2" yMin="-192" xMax="436" yMax="482">
      <contour>
        <pt x="2" y="-192" on="1"/>
        <pt x="97" y="389" on="1"/>
        <pt x="99" y="476" on="1"/>
        <pt x="150" y="482" on="1"/>
        <pt x="152" y="428" on="1"/>
        <pt x="227" y="481" on="0"/>
        <pt x="287" y="481" on="1"/>
        <pt x="373" y="481" on="0"/>
        <pt x="449" y="352" on="0"/>
        <pt x="423" y="125" on="0"/>
        <pt x="288" y="-9" on="0"/>
        <pt x="194" y="-9" on="1"/>
        <pt x="144" y="-9" on="0"/>
        <pt x="88" y="18" on="1"/>
        <pt x="54" y="-192" on="1"/>
      </contour>
      <contour>
        <pt x="392" y="325" on="0"/>
        <pt x="341" y="429" on="0"/>
        <pt x="222" y="429" on="0"/>
        <pt x="146" y="371" on="1"/>
        <pt x="97" y="72" on="1"/>
        <pt x="114" y="62" on="0"/>
        <pt x="176" y="45" on="0"/>
        <pt x="198" y="45" on="1"/>
        <pt x="267" y="45" on="0"/>
        <pt x="371" y="150" on="0"/>
      </contour>
    </TTGlyph>
    <TTGlyph name="paragraph" xMin="16" yMin="0" xMax="480" yMax="700">
      <contour>
        <pt x="345" y="0" on="1"/>
        <pt x="310" y="0" on="1"/>
        <pt x="445" y="700" on="1"/>
        <pt x="480" y="700" on="1"/>
      </contour>
      <contour>
        <pt x="185" y="0" on="1"/>
        <pt x="150" y="0" on="1"/>
        <pt x="201" y="264" on="1"/>
        <pt x="105" y="271" on="0"/>
        <pt x="16" y="342" on="0"/>
        <pt x="16" y="421" on="1"/>
        <pt x="16" y="567" on="0"/>
        <pt x="141" y="700" on="0"/>
        <pt x="296" y="700" on="1"/>
        <pt x="320" y="700" on="1"/>
      </contour>
      <contour>
        <pt x="207" y="296" on="1"/>
        <pt x="279" y="668" on="1"/>
        <pt x="148" y="666" on="0"/>
        <pt x="51" y="562" on="0"/>
        <pt x="51" y="427" on="1"/>
        <pt x="51" y="360" on="0"/>
        <pt x="125" y="302" on="0"/>
      </contour>
    </TTGlyph>
    <TTGlyph name="parenleft" xMin="184" yMin="-160" xMax="426" yMax="796">
      <contour>
        <pt x="385" y="796" on="1"/>
        <pt x="426" y="769" on="1"/>
        <pt x="351" y="671" on="0"/>
        <pt x="304" y="567" on="1"/>
        <pt x="256" y="462" on="0"/>
        <pt x="222" y="174" on="0"/>
        <pt x="269" y="-34" on="0"/>
        <pt x="321" y="-132" on="1"/>
        <pt x="273" y="-160" on="1"/>
        <pt x="216" y="-53" on="0"/>
        <pt x="192" y="58" on="1"/>
        <pt x="166" y="168" on="0"/>
        <pt x="202" y="468" on="0"/>
        <pt x="304" y="690" on="0"/>
      </contour>
    </TTGlyph>
    <TTGlyph name="parenright" xMin="73" yMin="-156" xMax="312" yMax="800">
      <contour>
        <pt x="114" y="-156" on="1"/>
        <pt x="73" y="-128" on="1"/>
        <pt x="146" y="-33" on="0"/>
        <pt x="241" y="177" on="0"/>
        <pt x="259" y="322" on="1"/>
        <pt x="275" y="467" on="0"/>
        <pt x="229" y="675" on="0"/>
        <pt x="178" y="773" on="1"/>
        <pt x="225" y="800" on="1"/>
        <pt x="281" y="696" on="0"/>
        <pt x="330" y="472" on="0"/>
        <pt x="294" y="172" on="0"/>
        <pt x="194" y="-51" on="0"/>
      </contour>
    </TTGlyph>
    <TTGlyph name="percent" xMin="19" yMin="0" xMax="480" yMax="665">
      <contour>
        <pt x="399" y="665" on="1"/>
        <pt x="455" y="665" on="1"/>
        <pt x="99" y="0" on="1"/>
        <pt x="43" y="0" on="1"/>
      </contour>
      <contour>
        <pt x="210" y="655" on="0"/>
        <pt x="267" y="594" on="0"/>
        <pt x="267" y="481" on="0"/>
        <pt x="189" y="398" on="0"/>
        <pt x="78" y="398" on="0"/>
        <pt x="19" y="462" on="0"/>
        <pt x="19" y="573" on="0"/>
        <pt x="99" y="655" on="0"/>
      </contour>
      <contour>
        <pt x="154" y="613" on="1"/>
        <pt x="117" y="613" on="0"/>
        <pt x="71" y="557" on="0"/>
        <pt x="71" y="483" on="0"/>
        <pt x="103" y="441" on="0"/>
        <pt x="173" y="441" on="0"/>
        <pt x="217" y="495" on="0"/>
        <pt x="217" y="538" on="1"/>
        <pt x="217" y="613" on="0"/>
      </contour>
      <contour>
        <pt x="422" y="257" on="0"/>
        <pt x="480" y="196" on="0"/>
        <pt x="480" y="83" on="0"/>
        <pt x="401" y="0" on="0"/>
        <pt x="290" y="0" on="0"/>
        <pt x="232" y="64" on="0"/>
        <pt x="232" y="175" on="0"/>
        <pt x="311" y="257" on="0"/>
      </contour>
      <contour>
        <pt x="367" y="215" on="1"/>
        <pt x="329" y="215" on="0"/>
        <pt x="283" y="159" on="0"/>
        <pt x="283" y="85" on="0"/>
        <pt x="315" y="43" on="0"/>
        <pt x="385" y="43" on="0"/>
        <pt x="429" y="97" on="0"/>
        <pt x="429" y="140" on="1"/>
        <pt x="429" y="215" on="0"/>
      </contour>
    </TTGlyph>
    <TTGlyph name="period" xMin="170" yMin="0" xMax="274" yMax="112">
      <contour>
        <pt x="170" y="0" on="1"/>
        <pt x="184" y="112" on="1"/>
        <pt x="274" y="112" on="1"/>
        <pt x="260" y="0" on="1"/>
      </contour>
    </TTGlyph>
    <TTGlyph name="perthousand" xMin="-1" yMin="0" xMax="501" yMax="655">
      <contour>
        <pt x="0" y="257" on="1"/>
        <pt x="500" y="430" on="1"/>
        <pt x="500" y="481" on="1"/>
        <pt x="0" y="309" on="1"/>
      </contour>
      <contour>
        <pt x="188" y="257" on="0"/>
        <pt x="245" y="196" on="0"/>
        <pt x="245" y="83" on="0"/>
        <pt x="168" y="0" on="0"/>
        <pt x="57" y="0" on="0"/>
        <pt x="-1" y="64" on="0"/>
        <pt x="-1" y="175" on="0"/>
        <pt x="78" y="257" on="0"/>
      </contour>
      <contour>
        <pt x="134" y="215" on="1"/>
        <pt x="96" y="215" on="0"/>
        <pt x="50" y="159" on="0"/>
        <pt x="50" y="85" on="0"/>
        <pt x="82" y="43" on="0"/>
        <pt x="152" y="43" on="0"/>
        <pt x="194" y="98" on="0"/>
        <pt x="194" y="142" on="1"/>
        <pt x="194" y="215" on="0"/>
      </contour>
      <contour>
        <pt x="231" y="655" on="0"/>
        <pt x="288" y="594" on="0"/>
        <pt x="288" y="481" on="0"/>
        <pt x="210" y="398" on="0"/>
        <pt x="99" y="398" on="0"/>
        <pt x="40" y="462" on="0"/>
        <pt x="40" y="573" on="0"/>
        <pt x="120" y="655" on="0"/>
      </contour>
      <contour>
        <pt x="175" y="613" on="1"/>
        <pt x="138" y="613" on="0"/>
        <pt x="92" y="557" on="0"/>
        <pt x="92" y="483" on="0"/>
        <pt x="124" y="441" on="0"/>
        <pt x="194" y="441" on="0"/>
        <pt x="238" y="495" on="0"/>
        <pt x="238" y="538" on="1"/>
        <pt x="238" y="613" on="0"/>
      </contour>
      <contour>
        <pt x="443" y="257" on="0"/>
        <pt x="501" y="196" on="0"/>
        <pt x="501" y="83" on="0"/>
        <pt x="422" y="0" on="0"/>
        <pt x="312" y="0" on="0"/>
        <pt x="257" y="63" on="0"/>
        <pt x="257" y="175" on="0"/>
        <pt x="332" y="257" on="0"/>
      </contour>
      <contour>
        <pt x="388" y="215" on="1"/>
        <pt x="350" y="215" on="0"/>
        <pt x="308" y="159" on="0"/>
        <pt x="308" y="117" on="1"/>
        <pt x="308" y="43" on="0"/>
        <pt x="367" y="43" on="1"/>
        <pt x="406" y="43" on="0"/>
        <pt x="450" y="97" on="0"/>
        <pt x="450" y="140" on="1"/>
        <pt x="450" y="215" on="0"/>
      </contour>
    </TTGlyph>
    <TTGlyph name="plus" xMin="33" yMin="61" xMax="466" yMax="504">
      <contour>
        <pt x="456" y="260" on="1"/>
        <pt x="269" y="260" on="1"/>
        <pt x="236" y="61" on="1"/>
        <pt x="187" y="61" on="1"/>
        <pt x="219" y="260" on="1"/>
        <pt x="33" y="260" on="1"/>
        <pt x="42" y="306" on="1"/>
        <pt x="227" y="306" on="1"/>
        <pt x="260" y="504" on="1"/>
        <pt x="308" y="504" on="1"/>
        <pt x="276" y="306" on="1"/>
        <pt x="466" y="306" on="1"/>
      </contour>
    </TTGlyph>
    <TTGlyph name="plusminus" xMin="-9" yMin="54" xMax="507" yMax="504">
      <contour>
        <pt x="500" y="300" on="1"/>
        <pt x="290" y="300" on="1"/>
        <pt x="266" y="148" on="1"/>
        <pt x="216" y="148" on="1"/>
        <pt x="240" y="300" on="1"/>
        <pt x="30" y="300" on="1"/>
        <pt x="37" y="343" on="1"/>
        <pt x="247" y="343" on="1"/>
        <pt x="272" y="504" on="1"/>
        <pt x="322" y="504" on="1"/>
        <pt x="297" y="343" on="1"/>
        <pt x="507" y="343" on="1"/>
      </contour>
      <contour>
        <pt x="461" y="54" on="1"/>
        <pt x="-9" y="54" on="1"/>
        <pt x="-2" y="96" on="1"/>
        <pt x="468" y="96" on="1"/>
      </contour>
    </TTGlyph>
    <TTGlyph name="product" xMin="9" yMin="0" xMax="507" yMax="654">
      <contour>
        <pt x="499" y="604" on="1"/>
        <pt x="421" y="604" on="1"/>
        <pt x="325" y="0" on="1"/>
        <pt x="270" y="0" on="1"/>
        <pt x="366" y="604" on="1"/>
        <pt x="160" y="604" on="1"/>
        <pt x="64" y="0" on="1"/>
        <pt x="9" y="0" on="1"/>
        <pt x="105" y="604" on="1"/>
        <pt x="31" y="604" on="1"/>
        <pt x="39" y="654" on="1"/>
        <pt x="507" y="654" on="1"/>
      </contour>
    </TTGlyph>
    <TTGlyph name="q" xMin="60" yMin="-192" xMax="462" yMax="481">
      <contour>
        <pt x="462" y="447" on="1"/>
        <pt x="358" y="-192" on="1"/>
        <pt x="306" y="-192" on="1"/>
        <pt x="344" y="42" on="1"/>
        <pt x="269" y="-9" on="0"/>
        <pt x="217" y="-9" on="1"/>
        <pt x="142" y="-9" on="0"/>
        <pt x="60" y="95" on="0"/>
        <pt x="60" y="186" on="1"/>
        <pt x="60" y="313" on="0"/>
        <pt x="180" y="481" on="0"/>
        <pt x="388" y="481" on="0"/>
      </contour>
      <contour>
        <pt x="114" y="125" on="0"/>
        <pt x="172" y="43" on="0"/>
        <pt x="277" y="43" on="0"/>
        <pt x="354" y="104" on="1"/>
        <pt x="404" y="410" on="1"/>
        <pt x="385" y="418" on="0"/>
        <pt x="313" y="433" on="0"/>
        <pt x="287" y="433" on="1"/>
        <pt x="209" y="433" on="0"/>
        <pt x="114" y="293" on="0"/>
        <pt x="114" y="195" on="1"/>
      </contour>
    </TTGlyph>
    <TTGlyph name="question" xMin="86" yMin="0" xMax="418" yMax="689">
      <contour>
        <pt x="136" y="0" on="1"/>
        <pt x="148" y="93" on="1"/>
        <pt x="228" y="93" on="1"/>
        <pt x="217" y="0" on="1"/>
      </contour>
      <contour>
        <pt x="418" y="539" on="1"/>
        <pt x="412" y="481" on="0"/>
        <pt x="390" y="446" on="1"/>
        <pt x="368" y="410" on="0"/>
        <pt x="256" y="310" on="0"/>
        <pt x="226" y="266" on="0"/>
        <pt x="218" y="198" on="0"/>
        <pt x="217" y="167" on="1"/>
        <pt x="167" y="165" on="1"/>
        <pt x="164" y="187" on="0"/>
        <pt x="167" y="238" on="1"/>
        <pt x="173" y="282" on="0"/>
        <pt x="192" y="310" on="1"/>
        <pt x="212" y="337" on="0"/>
        <pt x="324" y="437" on="0"/>
        <pt x="358" y="493" on="0"/>
        <pt x="370" y="583" on="0"/>
        <pt x="317" y="637" on="0"/>
        <pt x="231" y="637" on="0"/>
        <pt x="160" y="600" on="0"/>
        <pt x="110" y="562" on="1"/>
        <pt x="86" y="603" on="1"/>
        <pt x="145" y="647" on="0"/>
        <pt x="229" y="689" on="0"/>
        <pt x="275" y="689" on="1"/>
        <pt x="344" y="689" on="0"/>
        <pt x="427" y="610" on="0"/>
      </contour>
    </TTGlyph>
    <TTGlyph name="questiondown" xMin="88" yMin="-199" xMax="420" yMax="490">
      <contour>
        <pt x="370" y="490" on="1"/>
        <pt x="358" y="397" on="1"/>
        <pt x="278" y="397" on="1"/>
        <pt x="289" y="490" on="1"/>
      </contour>
      <contour>
        <pt x="88" y="-49" on="1"/>
        <pt x="94" y="9" on="0"/>
        <pt x="116" y="44" on="1"/>
        <pt x="138" y="80" on="0"/>
        <pt x="250" y="180" on="0"/>
        <pt x="280" y="224" on="0"/>
        <pt x="288" y="292" on="0"/>
        <pt x="289" y="323" on="1"/>
        <pt x="339" y="325" on="1"/>
        <pt x="342" y="303" on="0"/>
        <pt x="339" y="252" on="1"/>
        <pt x="333" y="208" on="0"/>
        <pt x="314" y="180" on="1"/>
        <pt x="294" y="153" on="0"/>
        <pt x="182" y="53" on="0"/>
        <pt x="148" y="-3" on="0"/>
        <pt x="136" y="-93" on="0"/>
        <pt x="189" y="-147" on="0"/>
        <pt x="275" y="-147" on="0"/>
        <pt x="346" y="-110" on="0"/>
        <pt x="396" y="-72" on="1"/>
        <pt x="420" y="-113" on="1"/>
        <pt x="361" y="-157" on="0"/>
        <pt x="277" y="-199" on="0"/>
        <pt x="231" y="-199" on="1"/>
        <pt x="162" y="-199" on="0"/>
        <pt x="79" y="-120" on="0"/>
      </contour>
    </TTGlyph>
    <TTGlyph name="quotedbl" xMin="133" yMin="463" xMax="365" yMax="680">
      <contour>
        <pt x="213" y="680" on="1"/>
        <pt x="183" y="463" on="1"/>
        <pt x="133" y="463" on="1"/>
        <pt x="163" y="680" on="1"/>
      </contour>
      <contour>
        <pt x="365" y="680" on="1"/>
        <pt x="335" y="463" on="1"/>
        <pt x="285" y="463" on="1"/>
        <pt x="315" y="680" on="1"/>
      </contour>
    </TTGlyph>
    <TTGlyph name="quotedblleft" xMin="106" yMin="449" xMax="398" yMax="685">
      <contour>
        <pt x="398" y="656" on="1"/>
        <pt x="307" y="449" on="1"/>
        <pt x="246" y="466" on="1"/>
        <pt x="358" y="667" on="1"/>
      </contour>
      <contour>
        <pt x="258" y="674" on="1"/>
        <pt x="167" y="467" on="1"/>
        <pt x="106" y="484" on="1"/>
        <pt x="217" y="685" on="1"/>
      </contour>
    </TTGlyph>
    <TTGlyph name="quotedblright" xMin="117" yMin="446" xMax="409" yMax="682">
      <contour>
        <pt x="117" y="475" on="1"/>
        <pt x="208" y="682" on="1"/>
        <pt x="269" y="665" on="1"/>
        <pt x="157" y="464" on="1"/>
      </contour>
      <contour>
        <pt x="257" y="457" on="1"/>
        <pt x="348" y="664" on="1"/>
        <pt x="409" y="647" on="1"/>
        <pt x="298" y="446" on="1"/>
      </contour>
    </TTGlyph>
    <TTGlyph name="quoteleft" xMin="188" yMin="454" xMax="340" yMax="672">
      <contour>
        <pt x="340" y="661" on="1"/>
        <pt x="249" y="454" on="1"/>
        <pt x="188" y="471" on="1"/>
        <pt x="299" y="672" on="1"/>
      </contour>
    </TTGlyph>
    <TTGlyph name="quoteright" xMin="189" yMin="461" xMax="341" yMax="679">
      <contour>
        <pt x="189" y="472" on="1"/>
        <pt x="280" y="679" on="1"/>
        <pt x="341" y="662" on="1"/>
        <pt x="229" y="461" on="1"/>
      </contour>
    </TTGlyph>
    <TTGlyph name="quotesingle" xMin="207" yMin="463" xMax="287" yMax="680">
      <contour>
        <pt x="287" y="680" on="1"/>
        <pt x="257" y="463" on="1"/>
        <pt x="207" y="463" on="1"/>
        <pt x="237" y="680" on="1"/>
      </contour>
    </TTGlyph>
    <TTGlyph name="r" xMin="122" yMin="0" xMax="453" yMax="481">
      <contour>
        <pt x="258" y="367" on="1"/>
        <pt x="198" y="0" on="1"/>
        <pt x="146" y="0" on="1"/>
        <pt x="215" y="425" on="1"/>
        <pt x="122" y="425" on="1"/>
        <pt x="130" y="475" on="1"/>
        <pt x="276" y="475" on="1"/>
        <pt x="266" y="417" on="1"/>
        <pt x="299" y="438" on="0"/>
        <pt x="411" y="477" on="0"/>
        <pt x="453" y="481" on="1"/>
        <pt x="446" y="422" on="1"/>
        <pt x="407" y="419" on="0"/>
        <pt x="289" y="385" on="0"/>
      </contour>
    </TTGlyph>
    <TTGlyph name="ring" xMin="138" yMin="568" xMax="350" yMax="759">
      <contour>
        <pt x="301" y="759" on="0"/>
        <pt x="350" y="716" on="0"/>
        <pt x="350" y="628" on="0"/>
        <pt x="282" y="568" on="0"/>
        <pt x="187" y="568" on="0"/>
        <pt x="138" y="611" on="0"/>
        <pt x="138" y="698" on="0"/>
        <pt x="205" y="759" on="0"/>
      </contour>
      <contour>
        <pt x="180" y="653" on="1"/>
        <pt x="180" y="606" on="0"/>
        <pt x="234" y="606" on="1"/>
        <pt x="267" y="606" on="0"/>
        <pt x="306" y="642" on="0"/>
        <pt x="306" y="673" on="1"/>
        <pt x="306" y="720" on="0"/>
        <pt x="252" y="720" on="1"/>
        <pt x="219" y="720" on="0"/>
        <pt x="180" y="684" on="0"/>
      </contour>
    </TTGlyph>
    <TTGlyph name="s" xMin="86" yMin="-9" xMax="438" yMax="483">
      <contour>
        <pt x="86" y="21" on="1"/>
        <pt x="100" y="75" on="1"/>
        <pt x="190" y="42" on="0"/>
        <pt x="296" y="42" on="0"/>
        <pt x="360" y="94" on="0"/>
        <pt x="360" y="143" on="1"/>
        <pt x="360" y="172" on="0"/>
        <pt x="318" y="206" on="0"/>
        <pt x="194" y="238" on="0"/>
        <pt x="128" y="294" on="0"/>
        <pt x="128" y="338" on="1"/>
        <pt x="128" y="407" on="0"/>
        <pt x="220" y="483" on="0"/>
        <pt x="368" y="483" on="0"/>
        <pt x="438" y="455" on="1"/>
        <pt x="424" y="404" on="1"/>
        <pt x="350" y="430" on="0"/>
        <pt x="246" y="430" on="0"/>
        <pt x="181" y="384" on="0"/>
        <pt x="181" y="320" on="0"/>
        <pt x="204" y="302" on="1"/>
        <pt x="228" y="286" on="0"/>
        <pt x="356" y="250" on="0"/>
        <pt x="413" y="196" on="0"/>
        <pt x="413" y="80" on="0"/>
        <pt x="320" y="-9" on="0"/>
        <pt x="170" y="-9" on="0"/>
      </contour>
    </TTGlyph>
    <TTGlyph name="semicolon" xMin="140" yMin="-143" xMax="309" yMax="405">
      <contour>
        <pt x="208" y="303" on="1"/>
        <pt x="221" y="405" on="1"/>
        <pt x="309" y="405" on="1"/>
        <pt x="295" y="303" on="1"/>
      </contour>
      <contour>
        <pt x="167" y="0" on="1"/>
        <pt x="181" y="102" on="1"/>
        <pt x="269" y="102" on="1"/>
        <pt x="259" y="30" on="1"/>
        <pt x="246" y="-60" on="0"/>
        <pt x="163" y="-143" on="1"/>
        <pt x="140" y="-119" on="1"/>
        <pt x="191" y="-54" on="0"/>
        <pt x="202" y="0" on="1"/>
      </contour>
    </TTGlyph>
    <TTGlyph name="seven" xMin="80" yMin="0" xMax="463" yMax="634">
      <contour>
        <pt x="443" y="543" on="1"/>
        <pt x="424" y="494" on="0"/>
        <pt x="380" y="423" on="1"/>
        <pt x="296" y="294" on="1"/>
        <pt x="256" y="236" on="0"/>
        <pt x="185" y="75" on="0"/>
        <pt x="176" y="0" on="1"/>
        <pt x="117" y="0" on="1"/>
        <pt x="125" y="72" on="0"/>
        <pt x="155" y="147" on="1"/>
        <pt x="184" y="222" on="0"/>
        <pt x="222" y="283" on="1"/>
        <pt x="297" y="398" on="1"/>
        <pt x="387" y="531" on="0"/>
        <pt x="395" y="582" on="1"/>
        <pt x="149" y="582" on="1"/>
        <pt x="128" y="525" on="1"/>
        <pt x="80" y="529" on="1"/>
        <pt x="111" y="634" on="1"/>
        <pt x="463" y="634" on="1"/>
        <pt x="460" y="593" on="0"/>
      </contour>
    </TTGlyph>
    <TTGlyph name="six" xMin="47" yMin="-10" xMax="447" yMax="651">
      <contour>
        <pt x="136" y="347" on="1"/>
        <pt x="205" y="404" on="0"/>
        <pt x="280" y="404" on="1"/>
        <pt x="378" y="404" on="0"/>
        <pt x="466" y="301" on="0"/>
        <pt x="447" y="205" on="1"/>
        <pt x="404" y="-10" on="0"/>
        <pt x="203" y="-10" on="1"/>
        <pt x="115" y="-10" on="0"/>
        <pt x="31" y="104" on="0"/>
        <pt x="47" y="208" on="1"/>
        <pt x="76" y="382" on="0"/>
        <pt x="242" y="581" on="0"/>
        <pt x="419" y="651" on="1"/>
        <pt x="428" y="601" on="1"/>
        <pt x="292" y="538" on="0"/>
        <pt x="171" y="429" on="0"/>
      </contour>
      <contour>
        <pt x="389" y="205" on="1"/>
        <pt x="413" y="352" on="0"/>
        <pt x="272" y="352" on="1"/>
        <pt x="211" y="352" on="0"/>
        <pt x="114" y="276" on="0"/>
        <pt x="102" y="208" on="1"/>
        <pt x="72" y="42" on="0"/>
        <pt x="221" y="42" on="1"/>
        <pt x="290" y="42" on="0"/>
        <pt x="377" y="128" on="0"/>
      </contour>
    </TTGlyph>
    <TTGlyph name="slash" xMin="-14" yMin="-41" xMax="508" yMax="710">
      <contour>
        <pt x="508" y="688" on="1"/>
        <pt x="26" y="-41" on="1"/>
        <pt x="-14" y="-19" on="1"/>
        <pt x="465" y="710" on="1"/>
      </contour>
    </TTGlyph>
    <TTGlyph name="sterling" xMin="32" yMin="0" xMax="494" yMax="664">
      <contour>
        <pt x="154" y="51" on="1"/>
        <pt x="447" y="51" on="1"/>
        <pt x="439" y="0" on="1"/>
        <pt x="32" y="0" on="1"/>
        <pt x="40" y="51" on="1"/>
        <pt x="98" y="52" on="0"/>
        <pt x="129" y="127" on="0"/>
        <pt x="163" y="318" on="1"/>
        <pt x="82" y="318" on="1"/>
        <pt x="90" y="368" on="1"/>
        <pt x="162" y="368" on="1"/>
        <pt x="163" y="437" on="0"/>
        <pt x="174" y="568" on="0"/>
        <pt x="239" y="650" on="0"/>
        <pt x="288" y="664" on="1"/>
        <pt x="385" y="692" on="0"/>
        <pt x="494" y="658" on="1"/>
        <pt x="476" y="605" on="1"/>
        <pt x="402" y="632" on="0"/>
        <pt x="324" y="616" on="1"/>
        <pt x="286" y="608" on="0"/>
        <pt x="230" y="552" on="0"/>
        <pt x="224" y="505" on="1"/>
        <pt x="220" y="483" on="0"/>
        <pt x="218" y="368" on="1"/>
        <pt x="406" y="368" on="1"/>
        <pt x="398" y="318" on="1"/>
        <pt x="221" y="318" on="1"/>
        <pt x="198" y="188" on="0"/>
        <pt x="192" y="153" on="1"/>
        <pt x="177" y="78" on="0"/>
      </contour>
    </TTGlyph>
    <TTGlyph name="t" xMin="98" yMin="-10" xMax="410" yMax="593">
      <contour>
        <pt x="147" y="160" on="1"/>
        <pt x="190" y="418" on="1"/>
        <pt x="98" y="418" on="1"/>
        <pt x="106" y="468" on="1"/>
        <pt x="198" y="468" on="1"/>
        <pt x="217" y="583" on="1"/>
        <pt x="271" y="593" on="1"/>
        <pt x="250" y="468" on="1"/>
        <pt x="410" y="468" on="1"/>
        <pt x="402" y="418" on="1"/>
        <pt x="242" y="418" on="1"/>
        <pt x="201" y="162" on="1"/>
        <pt x="200" y="150" on="0"/>
        <pt x="194" y="111" on="0"/>
        <pt x="193" y="96" on="0"/>
        <pt x="191" y="71" on="0"/>
        <pt x="193" y="67" on="1"/>
        <pt x="198" y="56" on="1"/>
        <pt x="205" y="42" on="0"/>
        <pt x="292" y="42" on="0"/>
        <pt x="346" y="61" on="1"/>
        <pt x="352" y="11" on="1"/>
        <pt x="294" y="-10" on="0"/>
        <pt x="185" y="-10" on="0"/>
        <pt x="137" y="27" on="0"/>
        <pt x="138" y="103" on="0"/>
      </contour>
    </TTGlyph>
    <TTGlyph name="three" xMin="12" yMin="-10" xMax="458" yMax="609">
      <contour>
        <pt x="145" y="294" on="1"/>
        <pt x="145" y="340" on="1"/>
        <pt x="219" y="351" on="1"/>
        <pt x="390" y="376" on="0"/>
        <pt x="402" y="481" on="1"/>
        <pt x="408" y="538" on="0"/>
        <pt x="342" y="593" on="0"/>
        <pt x="285" y="593" on="1"/>
        <pt x="232" y="593" on="0"/>
        <pt x="168" y="571" on="1"/>
        <pt x="148" y="564" on="1"/>
        <pt x="133" y="609" on="1"/>
        <pt x="332" y="682" on="0"/>
        <pt x="418" y="606" on="1"/>
        <pt x="466" y="564" on="0"/>
        <pt x="458" y="485" on="1"/>
        <pt x="451" y="427" on="0"/>
        <pt x="395" y="362" on="0"/>
        <pt x="337" y="340" on="1"/>
        <pt x="337" y="338" on="1"/>
        <pt x="395" y="328" on="0"/>
        <pt x="444" y="243" on="0"/>
        <pt x="433" y="175" on="1"/>
        <pt x="403" y="-10" on="0"/>
        <pt x="196" y="-10" on="1"/>
        <pt x="112" y="-10" on="0"/>
        <pt x="12" y="30" on="1"/>
        <pt x="35" y="77" on="1"/>
        <pt x="120" y="42" on="0"/>
        <pt x="273" y="42" on="0"/>
        <pt x="366" y="107" on="0"/>
        <pt x="388" y="242" on="0"/>
        <pt x="328" y="306" on="0"/>
        <pt x="256" y="306" on="1"/>
      </contour>
    </TTGlyph>
    <TTGlyph name="tilde" xMin="99" yMin="606" xMax="410" yMax="707">
      <contour>
        <pt x="390" y="694" on="1"/>
        <pt x="410" y="661" on="1"/>
        <pt x="349" y="606" on="0"/>
        <pt x="283" y="606" on="0"/>
        <pt x="217" y="660" on="0"/>
        <pt x="173" y="660" on="0"/>
        <pt x="122" y="619" on="1"/>
        <pt x="99" y="653" on="1"/>
        <pt x="164" y="707" on="0"/>
        <pt x="236" y="707" on="0"/>
        <pt x="304" y="654" on="0"/>
        <pt x="340" y="654" on="0"/>
      </contour>
    </TTGlyph>
    <TTGlyph name="trademark" xMin="6" yMin="293" xMax="494" yMax="590">
      <contour>
        <pt x="6" y="551" on="1"/>
        <pt x="14" y="590" on="1"/>
        <pt x="186" y="590" on="1"/>
        <pt x="178" y="551" on="1"/>
        <pt x="136" y="551" on="1"/>
        <pt x="86" y="293" on="1"/>
        <pt x="38" y="293" on="1"/>
        <pt x="88" y="551" on="1"/>
      </contour>
      <contour>
        <pt x="494" y="590" on="1"/>
        <pt x="436" y="293" on="1"/>
        <pt x="396" y="293" on="1"/>
        <pt x="439" y="512" on="1"/>
        <pt x="325" y="335" on="1"/>
        <pt x="300" y="335" on="1"/>
        <pt x="247" y="513" on="1"/>
        <pt x="204" y="293" on="1"/>
        <pt x="163" y="293" on="1"/>
        <pt x="221" y="590" on="1"/>
        <pt x="269" y="590" on="1"/>
        <pt x="325" y="403" on="1"/>
        <pt x="446" y="590" on="1"/>
      </contour>
    </TTGlyph>
    <TTGlyph name="two" xMin="51" yMin="0" xMax="448" yMax="643">
      <contour>
        <pt x="254" y="201" on="1"/>
        <pt x="151" y="121" on="0"/>
        <pt x="115" y="55" on="1"/>
        <pt x="408" y="55" on="1"/>
        <pt x="399" y="0" on="1"/>
        <pt x="51" y="0" on="1"/>
        <pt x="51" y="49" on="1"/>
        <pt x="76" y="100" on="0"/>
        <pt x="118" y="147" on="1"/>
        <pt x="162" y="194" on="0"/>
        <pt x="204" y="228" on="1"/>
        <pt x="286" y="298" on="1"/>
        <pt x="380" y="380" on="0"/>
        <pt x="395" y="459" on="1"/>
        <pt x="406" y="519" on="0"/>
        <pt x="353" y="591" on="0"/>
        <pt x="245" y="591" on="0"/>
        <pt x="144" y="526" on="1"/>
        <pt x="124" y="566" on="1"/>
        <pt x="232" y="643" on="0"/>
        <pt x="383" y="643" on="0"/>
        <pt x="461" y="546" on="0"/>
        <pt x="435" y="373" on="0"/>
        <pt x="312" y="246" on="0"/>
      </contour>
    </TTGlyph>
    <TTGlyph name="u" xMin="70" yMin="-9" xMax="464" yMax="475">
      <contour>
        <pt x="341" y="0" on="1"/>
        <pt x="343" y="41" on="1"/>
        <pt x="248" y="-9" on="0"/>
        <pt x="124" y="-9" on="0"/>
        <pt x="61" y="80" on="0"/>
        <pt x="70" y="155" on="1"/>
        <pt x="122" y="475" on="1"/>
        <pt x="174" y="475" on="1"/>
        <pt x="122" y="155" on="1"/>
        <pt x="116" y="106" on="0"/>
        <pt x="155" y="43" on="0"/>
        <pt x="247" y="43" on="0"/>
        <pt x="349" y="93" on="1"/>
        <pt x="412" y="475" on="1"/>
        <pt x="464" y="475" on="1"/>
        <pt x="386" y="0" on="1"/>
      </contour>
    </TTGlyph>
    <TTGlyph name="uacute" xMin="70" yMin="-9" xMax="464" yMax="720">
      <contour>
        <pt x="341" y="0" on="1"/>
        <pt x="343" y="41" on="1"/>
        <pt x="248" y="-9" on="0"/>
        <pt x="124" y="-9" on="0"/>
        <pt x="61" y="80" on="0"/>
        <pt x="70" y="155" on="1"/>
        <pt x="122" y="475" on="1"/>
        <pt x="174" y="475" on="1"/>
        <pt x="122" y="155" on="1"/>
        <pt x="116" y="106" on="0"/>
        <pt x="155" y="43" on="0"/>
        <pt x="247" y="43" on="0"/>
        <pt x="349" y="93" on="1"/>
        <pt x="412" y="475" on="1"/>
        <pt x="464" y="475" on="1"/>
        <pt x="386" y="0" on="1"/>
      </contour>
      <contour>
        <pt x="213" y="622" on="1"/>
        <pt x="377" y="720" on="1"/>
        <pt x="395" y="666" on="1"/>
        <pt x="230" y="574" on="1"/>
      </contour>
    </TTGlyph>
    <TTGlyph name="ucircumflex" xMin="70" yMin="-9" xMax="464" yMax="749">
      <contour>
        <pt x="341" y="0" on="1"/>
        <pt x="343" y="41" on="1"/>
        <pt x="248" y="-9" on="0"/>
        <pt x="124" y="-9" on="0"/>
        <pt x="61" y="80" on="0"/>
        <pt x="70" y="155" on="1"/>
        <pt x="122" y="475" on="1"/>
        <pt x="174" y="475" on="1"/>
        <pt x="122" y="155" on="1"/>
        <pt x="116" y="106" on="0"/>
        <pt x="155" y="43" on="0"/>
        <pt x="247" y="43" on="0"/>
        <pt x="349" y="93" on="1"/>
        <pt x="412" y="475" on="1"/>
        <pt x="464" y="475" on="1"/>
        <pt x="386" y="0" on="1"/>
      </contour>
      <contour>
        <pt x="151" y="587" on="1"/>
        <pt x="304" y="749" on="1"/>
        <pt x="349" y="749" on="1"/>
        <pt x="451" y="587" on="1"/>
        <pt x="393" y="587" on="1"/>
        <pt x="319" y="709" on="1"/>
        <pt x="208" y="587" on="1"/>
      </contour>
    </TTGlyph>
    <TTGlyph name="udieresis" xMin="70" yMin="-9" xMax="464" yMax="684">
      <contour>
        <pt x="341" y="0" on="1"/>
        <pt x="343" y="41" on="1"/>
        <pt x="247" y="-9" on="0"/>
        <pt x="124" y="-9" on="0"/>
        <pt x="61" y="80" on="0"/>
        <pt x="70" y="155" on="1"/>
        <pt x="122" y="475" on="1"/>
        <pt x="174" y="475" on="1"/>
        <pt x="122" y="155" on="1"/>
        <pt x="116" y="106" on="0"/>
        <pt x="155" y="43" on="0"/>
        <pt x="247" y="43" on="0"/>
        <pt x="349" y="93" on="1"/>
        <pt x="412" y="475" on="1"/>
        <pt x="464" y="475" on="1"/>
        <pt x="386" y="0" on="1"/>
      </contour>
      <contour>
        <pt x="208" y="610" on="1"/>
        <pt x="177" y="610" on="0"/>
        <pt x="177" y="644" on="1"/>
        <pt x="177" y="660" on="0"/>
        <pt x="201" y="684" on="0"/>
        <pt x="234" y="684" on="0"/>
        <pt x="250" y="666" on="0"/>
        <pt x="250" y="635" on="0"/>
        <pt x="226" y="610" on="0"/>
      </contour>
      <contour>
        <pt x="387" y="610" on="0"/>
        <pt x="370" y="628" on="0"/>
        <pt x="370" y="659" on="0"/>
        <pt x="395" y="684" on="0"/>
        <pt x="427" y="684" on="0"/>
        <pt x="444" y="666" on="0"/>
        <pt x="444" y="635" on="0"/>
        <pt x="419" y="610" on="0"/>
      </contour>
    </TTGlyph>
    <TTGlyph name="ugrave" xMin="70" yMin="-9" xMax="464" yMax="717">
      <contour>
        <pt x="341" y="0" on="1"/>
        <pt x="343" y="41" on="1"/>
        <pt x="248" y="-9" on="0"/>
        <pt x="124" y="-9" on="0"/>
        <pt x="61" y="80" on="0"/>
        <pt x="70" y="155" on="1"/>
        <pt x="122" y="475" on="1"/>
        <pt x="174" y="475" on="1"/>
        <pt x="122" y="155" on="1"/>
        <pt x="116" y="106" on="0"/>
        <pt x="155" y="43" on="0"/>
        <pt x="247" y="43" on="0"/>
        <pt x="349" y="93" on="1"/>
        <pt x="412" y="475" on="1"/>
        <pt x="464" y="475" on="1"/>
        <pt x="386" y="0" on="1"/>
      </contour>
      <contour>
        <pt x="239" y="717" on="1"/>
        <pt x="401" y="619" on="1"/>
        <pt x="376" y="576" on="1"/>
        <pt x="212" y="668" on="1"/>
      </contour>
    </TTGlyph>
    <TTGlyph name="underscore" xMin="11" yMin="-128" xMax="489" yMax="-85">
      <contour>
        <pt x="11" y="-128" on="1"/>
        <pt x="17" y="-85" on="1"/>
        <pt x="489" y="-85" on="1"/>
        <pt x="483" y="-128" on="1"/>
      </contour>
    </TTGlyph>
    <TTGlyph name="v" xMin="94" yMin="0" xMax="469" yMax="475">
      <contour>
        <pt x="94" y="475" on="1"/>
        <pt x="151" y="475" on="1"/>
        <pt x="213" y="48" on="1"/>
        <pt x="230" y="48" on="1"/>
        <pt x="412" y="475" on="1"/>
        <pt x="469" y="475" on="1"/>
        <pt x="263" y="0" on="1"/>
        <pt x="168" y="0" on="1"/>
      </contour>
    </TTGlyph>
    <TTGlyph name="w" xMin="61" yMin="0" xMax="487" yMax="475">
      <contour>
        <pt x="438" y="475" on="1"/>
        <pt x="487" y="475" on="1"/>
        <pt x="367" y="0" on="1"/>
        <pt x="266" y="0" on="1"/>
        <pt x="242" y="207" on="1"/>
        <pt x="235" y="207" on="1"/>
        <pt x="161" y="0" on="1"/>
        <pt x="61" y="0" on="1"/>
        <pt x="65" y="475" on="1"/>
        <pt x="114" y="475" on="1"/>
        <pt x="113" y="48" on="1"/>
        <pt x="130" y="48" on="1"/>
        <pt x="222" y="289" on="1"/>
        <pt x="276" y="289" on="1"/>
        <pt x="311" y="48" on="1"/>
        <pt x="328" y="48" on="1"/>
      </contour>
    </TTGlyph>
    <TTGlyph name="x" xMin="36" yMin="0" xMax="455" yMax="475">
      <contour>
        <pt x="97" y="475" on="1"/>
        <pt x="162" y="475" on="1"/>
        <pt x="255" y="279" on="1"/>
        <pt x="391" y="475" on="1"/>
        <pt x="455" y="475" on="1"/>
        <pt x="285" y="241" on="1"/>
        <pt x="407" y="0" on="1"/>
        <pt x="343" y="0" on="1"/>
        <pt x="245" y="203" on="1"/>
        <pt x="101" y="0" on="1"/>
        <pt x="36" y="0" on="1"/>
        <pt x="217" y="241" on="1"/>
      </contour>
    </TTGlyph>
    <TTGlyph name="y" xMin="1" yMin="-206" xMax="450" yMax="475">
      <contour>
        <pt x="94" y="475" on="1"/>
        <pt x="151" y="475" on="1"/>
        <pt x="210" y="71" on="1"/>
        <pt x="215" y="71" on="1"/>
        <pt x="394" y="475" on="1"/>
        <pt x="450" y="475" on="1"/>
        <pt x="197" y="-81" on="1"/>
        <pt x="162" y="-157" on="0"/>
        <pt x="87" y="-204" on="0"/>
        <pt x="1" y="-206" on="1"/>
        <pt x="7" y="-155" on="1"/>
        <pt x="63" y="-153" on="0"/>
        <pt x="121" y="-121" on="0"/>
        <pt x="141" y="-76" on="1"/>
        <pt x="169" y="-7" on="1"/>
      </contour>
    </TTGlyph>
    <TTGlyph name="ydieresis" xMin="1" yMin="-206" xMax="450" yMax="684">
      <contour>
        <pt x="94" y="475" on="1"/>
        <pt x="151" y="475" on="1"/>
        <pt x="210" y="71" on="1"/>
        <pt x="215" y="71" on="1"/>
        <pt x="394" y="475" on="1"/>
        <pt x="450" y="475" on="1"/>
        <pt x="197" y="-81" on="1"/>
        <pt x="162" y="-157" on="0"/>
        <pt x="87" y="-204" on="0"/>
        <pt x="1" y="-206" on="1"/>
        <pt x="7" y="-155" on="1"/>
        <pt x="63" y="-153" on="0"/>
        <pt x="121" y="-121" on="0"/>
        <pt x="141" y="-76" on="1"/>
        <pt x="169" y="-7" on="1"/>
      </contour>
      <contour>
        <pt x="185" y="610" on="1"/>
        <pt x="154" y="610" on="0"/>
        <pt x="154" y="644" on="1"/>
        <pt x="154" y="660" on="0"/>
        <pt x="178" y="684" on="0"/>
        <pt x="211" y="684" on="0"/>
        <pt x="227" y="666" on="0"/>
        <pt x="227" y="635" on="0"/>
        <pt x="203" y="610" on="0"/>
      </contour>
      <contour>
        <pt x="364" y="610" on="0"/>
        <pt x="347" y="628" on="0"/>
        <pt x="347" y="659" on="0"/>
        <pt x="372" y="684" on="0"/>
        <pt x="404" y="684" on="0"/>
        <pt x="421" y="666" on="0"/>
        <pt x="421" y="635" on="0"/>
        <pt x="396" y="610" on="0"/>
      </contour>
    </TTGlyph>
    <TTGlyph name="yen" xMin="11" yMin="0" xMax="492" yMax="655">
      <contour>
        <pt x="248" y="323" on="1"/>
        <pt x="197" y="0" on="1"/>
        <pt x="142" y="0" on="1"/>
        <pt x="193" y="323" on="1"/>
        <pt x="52" y="655" on="1"/>
        <pt x="111" y="655" on="1"/>
        <pt x="224" y="374" on="1"/>
        <pt x="226" y="374" on="1"/>
        <pt x="427" y="655" on="1"/>
        <pt x="492" y="655" on="1"/>
      </contour>
      <contour>
        <pt x="19" y="218" on="1"/>
        <pt x="388" y="218" on="1"/>
        <pt x="380" y="168" on="1"/>
        <pt x="11" y="168" on="1"/>
      </contour>
      <contour>
        <pt x="41" y="361" on="1"/>
        <pt x="410" y="361" on="1"/>
        <pt x="402" y="311" on="1"/>
        <pt x="33" y="311" on="1"/>
      </contour>
    </TTGlyph>
    <TTGlyph name="z" xMin="63" yMin="0" xMax="432" yMax="475">
      <contour>
        <pt x="118" y="425" on="1"/>
        <pt x="126" y="475" on="1"/>
        <pt x="432" y="475" on="1"/>
        <pt x="432" y="434" on="1"/>
        <pt x="133" y="50" on="1"/>
        <pt x="400" y="50" on="1"/>
        <pt x="392" y="0" on="1"/>
        <pt x="66" y="0" on="1"/>
        <pt x="63" y="41" on="1"/>
        <pt x="361" y="425" on="1"/>
      </contour>
    </TTGlyph>
    <TTGlyph name="zero" xMin="61" yMin="-12" xMax="442" yMax="646">
      <contour>
        <pt x="90" y="501" on="0"/>
        <pt x="201" y="645" on="0"/>
        <pt x="404" y="647" on="0"/>
        <pt x="470" y="491" on="0"/>
        <pt x="413" y="133" on="0"/>
        <pt x="300" y="-12" on="0"/>
        <pt x="98" y="-12" on="0"/>
        <pt x="32" y="141" on="0"/>
      </contour>
      <contour>
        <pt x="94" y="172" on="0"/>
        <pt x="132" y="43" on="0"/>
        <pt x="279" y="43" on="0"/>
        <pt x="358" y="165" on="0"/>
        <pt x="382" y="316" on="1"/>
        <pt x="408" y="460" on="0"/>
        <pt x="370" y="591" on="0"/>
        <pt x="220" y="591" on="0"/>
        <pt x="143" y="465" on="0"/>
      </contour>
    </TTGlyph>
</ttFont>
